<?xml version="1.0" encoding="utf-8"?>
<!-- Generator: Adobe Illustrator 16.0.0, SVG Export Plug-In . SVG Version: 6.00 Build 0)  -->
<!DOCTYPE svg PUBLIC "-//W3C//DTD SVG 1.1//EN" "http://www.w3.org/Graphics/SVG/1.1/DTD/svg11.dtd">
<svg version="1.1" id="Layer_2" xmlns="http://www.w3.org/2000/svg" xmlns:xlink="http://www.w3.org/1999/xlink" x="0px" y="0px"
	 width="390px" height="60px" viewBox="0 0 390 60" enable-background="new 0 0 390 60" xml:space="preserve">
<path fill="none" stroke="#231F20" stroke-width="8" stroke-linejoin="round" stroke-miterlimit="10" d="M502.592,0"/>
<g>
	<g>
		<g>
			<path fill="#6D6E70" d="M23.873,31.824l-1.931-2.938H2.621L0.85,31.81l-0.789-0.473l1.904-3.146
				c0.084-0.138,0.234-0.222,0.396-0.222h19.832c0.155,0,0.3,0.079,0.386,0.209l2.065,3.146L23.873,31.824z"/>
		</g>
		<g>
			<g>
				<polygon fill="#37B34A" points="0.576,31.43 0.576,44.338 2.481,47.484 22.313,47.484 24.38,44.338 24.219,31.43 22.192,28.427 
					2.36,28.427 				"/>
			</g>
		</g>
		<g opacity="0.8">
			<g>
				<polygon fill="#DAE8ED" points="24.244,27.651 17.636,20.329 17.636,3.398 18.54,3.398 18.54,0.572 6.307,0.572 6.307,3.398 
					7.211,3.398 7.211,20.329 0.603,27.651 0.576,31.43 2.4,35.086 22.232,35.086 24.259,31.573 				"/>
				<path fill="#DAE8ED" d="M22.232,35.66H2.4c-0.219,0-0.419-0.124-0.516-0.318l-1.824-3.659c-0.04-0.08-0.062-0.168-0.061-0.258
					l0.026-3.778c0.001-0.139,0.053-0.274,0.147-0.379l6.461-7.158V3.971H6.307c-0.318,0-0.577-0.257-0.577-0.573V0.572
					C5.729,0.256,5.988,0,6.307,0H18.54c0.318,0,0.577,0.256,0.577,0.572v2.826c0,0.315-0.259,0.573-0.577,0.573h-0.328v16.138
					l6.461,7.158c0.095,0.106,0.147,0.241,0.147,0.381l0.015,3.923c0,0.101-0.026,0.2-0.077,0.287l-2.025,3.514
					C22.629,35.551,22.439,35.66,22.232,35.66z M2.758,34.514h19.141l1.784-3.092l-0.014-3.55l-6.462-7.159
					c-0.095-0.106-0.147-0.243-0.147-0.383V3.398c0-0.317,0.258-0.574,0.576-0.574h0.328v-1.68H6.883v1.68h0.328
					c0.318,0,0.576,0.256,0.576,0.574v16.93c0,0.141-0.053,0.277-0.147,0.383l-6.463,7.16l-0.023,3.425L2.758,34.514z"/>
			</g>
		</g>
		<g opacity="0.2">
			<path fill="#BBBDBF" d="M22.313,47.718c-0.254,0-0.46-0.204-0.461-0.457l-0.081-16.145l-4.466-10.33H7.484L2.861,31.119
				l0.081,16.138c0.001,0.253-0.205,0.459-0.459,0.461c0,0-0.001,0-0.002,0c-0.255,0-0.46-0.204-0.461-0.457L1.939,31.024
				c0-0.065,0.014-0.129,0.04-0.188l4.784-10.695c0.074-0.165,0.239-0.271,0.421-0.271h10.424c0.185,0,0.352,0.109,0.425,0.277
				l4.622,10.693c0.024,0.057,0.038,0.118,0.038,0.179l0.081,16.237c0.001,0.253-0.204,0.459-0.459,0.461
				C22.315,47.718,22.314,47.718,22.313,47.718z"/>
		</g>
		<g opacity="0.2">
			<path fill="#BBBDBF" d="M22.232,31.48H2.4c-0.171,0-0.327-0.093-0.407-0.242l-1.798-3.372c-0.119-0.224-0.034-0.501,0.19-0.619
				c0.226-0.12,0.504-0.034,0.624,0.188l1.667,3.128H21.97l1.878-3.147c0.131-0.217,0.413-0.289,0.632-0.16
				c0.219,0.129,0.291,0.411,0.161,0.628l-2.013,3.371C22.546,31.395,22.396,31.48,22.232,31.48z"/>
		</g>
		<g>
			<path fill="#6D6E70" d="M22.313,47.718H2.481c-0.161,0-0.312-0.085-0.396-0.223L0.182,44.35
				c-0.044-0.072-0.066-0.154-0.066-0.237V27.651c0-0.114,0.042-0.223,0.117-0.308l6.491-7.191V3.856H6.28
				c-0.255,0-0.461-0.205-0.461-0.458V0.572c0-0.252,0.206-0.459,0.461-0.459h12.233c0.255,0,0.461,0.207,0.461,0.459v2.826
				c0,0.253-0.206,0.458-0.461,0.458H18.07v16.296l6.491,7.191c0.074,0.084,0.116,0.192,0.117,0.302l0.162,16.463
				c0.001,0.091-0.025,0.18-0.076,0.256l-2.065,3.146C22.614,47.64,22.469,47.718,22.313,47.718z M2.741,46.801h19.322l1.854-2.823
				l-0.159-16.149l-6.492-7.193c-0.076-0.085-0.118-0.194-0.118-0.307V3.398c0-0.253,0.206-0.458,0.461-0.458h0.443v-1.91H6.741
				v1.91h0.443c0.255,0,0.461,0.205,0.461,0.458v16.93c0,0.113-0.042,0.222-0.117,0.307l-6.491,7.191v16.159L2.741,46.801z"/>
		</g>
	</g>
	<g>
		<path fill="#58595B" d="M37.261,0.113h33.206v2.535H40.305V21.72h28.363v2.535H40.305v20.94h30.508v2.534H37.261V0.113z"/>
		<path fill="#58595B" d="M86.931,29.723L73.926,13.451h3.666L88.73,27.789l11.206-14.338h3.391L90.46,29.723l14.043,18.006h-3.597
			L88.73,31.657L76.277,47.729h-3.32L86.931,29.723z"/>
		<path fill="#58595B" d="M112.873,21.319h0.207c0.277-0.843,0.737-1.776,1.383-2.8c0.645-1.023,1.499-1.968,2.561-2.833
			c1.061-0.869,2.341-1.591,3.84-2.17c1.498-0.576,3.218-0.865,5.152-0.865c2.721,0,5.084,0.488,7.092,1.467
			c2.006,0.979,3.667,2.29,4.981,3.933c1.313,1.646,2.294,3.559,2.939,5.736c0.646,2.178,0.971,4.468,0.971,6.869
			c0,2.624-0.327,5.024-0.973,7.204c-0.647,2.178-1.63,4.057-2.947,5.634c-1.318,1.579-2.983,2.812-4.993,3.701
			c-2.01,0.89-4.379,1.335-7.106,1.335c-2.961,0-5.596-0.625-7.906-1.868c-2.312-1.245-3.999-3.268-5.062-6.069h-0.136L112.873,60
			h-2.56V13.451h2.56V21.319z M125.982,46.329c2.31,0,4.311-0.422,5.999-1.268c1.687-0.843,3.074-1.978,4.162-3.4
			c1.085-1.423,1.895-3.078,2.426-4.97c0.534-1.888,0.798-3.901,0.798-6.034c0-1.956-0.254-3.878-0.763-5.768
			c-0.508-1.89-1.294-3.579-2.357-5.069c-1.063-1.49-2.439-2.689-4.127-3.601c-1.689-0.911-3.734-1.368-6.138-1.368
			c-2.359,0-4.372,0.445-6.035,1.334c-1.665,0.889-3.019,2.066-4.059,3.533c-1.041,1.468-1.792,3.147-2.254,5.036
			c-0.463,1.89-0.693,3.858-0.693,5.902c0,2.044,0.207,4.012,0.625,5.902c0.415,1.89,1.119,3.557,2.114,5.001
			c0.996,1.444,2.334,2.6,4.023,3.468C121.393,45.896,123.484,46.329,125.982,46.329z"/>
		<path fill="#58595B" d="M150.852,30.923v0.4c0,2.001,0.277,3.913,0.831,5.735c0.556,1.824,1.376,3.425,2.465,4.802
			c1.085,1.378,2.449,2.468,4.091,3.267c1.641,0.802,3.548,1.201,5.724,1.201c3.559,0,6.381-0.9,8.463-2.701
			c2.079-1.801,3.513-4.301,4.301-7.503h2.628c-0.786,4.002-2.48,7.069-5.085,9.202c-2.606,2.135-6.053,3.203-10.342,3.203
			c-2.63,0-4.924-0.457-6.884-1.369c-1.962-0.91-3.598-2.155-4.912-3.734c-1.314-1.579-2.295-3.445-2.939-5.601
			c-0.646-2.157-0.969-4.479-0.969-6.97c0-2.4,0.334-4.702,1.003-6.901c0.668-2.201,1.672-4.135,3.01-5.802
			c1.337-1.668,3.011-3.002,5.016-4.002c2.007-1,4.368-1.499,7.09-1.499c2.491,0,4.693,0.443,6.607,1.333
			c1.913,0.89,3.516,2.101,4.808,3.633c1.29,1.535,2.271,3.313,2.939,5.337c0.67,2.022,1.003,4.19,1.003,6.5
			c0,0.224-0.011,0.479-0.033,0.768c-0.023,0.289-0.034,0.524-0.034,0.7H150.852z M177.001,28.723
			c-0.093-1.868-0.416-3.635-0.97-5.301c-0.556-1.668-1.377-3.135-2.462-4.403c-1.088-1.268-2.406-2.278-3.956-3.034
			c-1.549-0.755-3.317-1.133-5.307-1.133c-2.125,0-3.999,0.39-5.618,1.167c-1.618,0.779-2.982,1.802-4.092,3.069
			c-1.109,1.266-1.965,2.745-2.566,4.434c-0.601,1.69-0.971,3.425-1.109,5.202H177.001z"/>
		<path fill="#58595B" d="M190.146,21.054h0.207c0.322-1.112,0.911-2.156,1.765-3.134c0.853-0.978,1.891-1.822,3.112-2.534
			c1.221-0.712,2.584-1.256,4.082-1.635c1.498-0.376,3.055-0.543,4.669-0.5v2.535c-1.384-0.177-2.964-0.044-4.738,0.401
			c-1.776,0.445-3.471,1.422-5.085,2.934c-0.646,0.667-1.211,1.312-1.693,1.934c-0.484,0.624-0.891,1.313-1.212,2.067
			c-0.322,0.757-0.577,1.6-0.761,2.534c-0.186,0.934-0.299,2.046-0.346,3.335v18.74h-2.63V13.451h2.63V21.054z"/>
		<path fill="#58595B" d="M209.099,6.983v-6.87h2.631v6.87H209.099z M209.099,47.729V13.451h2.631v34.278H209.099z"/>
		<path fill="#58595B" d="M221.898,13.451h2.628v7.003h0.138c0.276-1.068,0.761-2.078,1.454-3.035c0.69-0.955,1.533-1.789,2.525-2.5
			c0.991-0.71,2.097-1.268,3.319-1.668c1.222-0.399,2.502-0.598,3.84-0.598c1.707,0,3.183,0.21,4.427,0.632
			c1.245,0.425,2.307,0.979,3.183,1.668c0.876,0.689,1.568,1.467,2.078,2.333c0.506,0.868,0.851,1.746,1.036,2.634h0.139
			c1.059-2.4,2.478-4.212,4.254-5.435c1.773-1.222,4.115-1.833,7.021-1.833c1.612,0,3.102,0.233,4.463,0.699
			c1.359,0.468,2.536,1.179,3.527,2.134c0.99,0.957,1.765,2.168,2.317,3.635c0.553,1.467,0.829,3.2,0.829,5.201v23.409h-2.628
			V24.255c0-2.178-0.346-3.89-1.038-5.135c-0.691-1.245-1.51-2.19-2.455-2.835c-0.946-0.643-1.893-1.043-2.836-1.2
			c-0.946-0.155-1.672-0.233-2.18-0.233c-1.614,0-3.103,0.266-4.463,0.799c-1.36,0.535-2.536,1.335-3.526,2.401
			c-0.994,1.068-1.765,2.392-2.319,3.968c-0.553,1.579-0.83,3.391-0.83,5.436v20.274h-2.628V24.255c0-2.134-0.336-3.835-1.003-5.102
			c-0.67-1.267-1.454-2.212-2.354-2.835c-0.899-0.622-1.82-1.021-2.767-1.201c-0.945-0.177-1.693-0.266-2.248-0.266
			c-1.245,0-2.537,0.246-3.872,0.734c-1.34,0.49-2.562,1.244-3.668,2.267c-1.108,1.024-2.006,2.333-2.698,3.935
			c-0.692,1.6-1.038,3.491-1.038,5.668v20.274h-2.628V13.451z"/>
		<path fill="#58595B" d="M279.592,30.923v0.4c0,2.001,0.277,3.913,0.833,5.735c0.554,1.824,1.375,3.425,2.464,4.802
			c1.084,1.378,2.447,2.468,4.089,3.267c1.642,0.802,3.55,1.201,5.725,1.201c3.56,0,6.382-0.9,8.463-2.701
			c2.08-1.801,3.514-4.301,4.302-7.503h2.628c-0.786,4.002-2.479,7.069-5.084,9.202c-2.607,2.135-6.054,3.203-10.344,3.203
			c-2.628,0-4.923-0.457-6.883-1.369c-1.962-0.91-3.598-2.155-4.912-3.734c-1.315-1.579-2.294-3.445-2.939-5.601
			c-0.647-2.157-0.969-4.479-0.969-6.97c0-2.4,0.334-4.702,1.003-6.901c0.667-2.201,1.67-4.135,3.009-5.802
			c1.338-1.668,3.011-3.002,5.016-4.002c2.006-1,4.369-1.499,7.092-1.499c2.49,0,4.69,0.443,6.606,1.333
			c1.912,0.89,3.515,2.101,4.807,3.633c1.291,1.535,2.271,3.313,2.94,5.337c0.67,2.022,1.003,4.19,1.003,6.5
			c0,0.224-0.012,0.479-0.034,0.768c-0.023,0.289-0.033,0.524-0.033,0.7H279.592z M305.742,28.723
			c-0.093-1.868-0.416-3.635-0.971-5.301c-0.555-1.668-1.376-3.135-2.462-4.403c-1.087-1.268-2.407-2.278-3.955-3.034
			c-1.551-0.755-3.318-1.133-5.307-1.133c-2.127,0-3.999,0.39-5.618,1.167c-1.618,0.779-2.982,1.802-4.093,3.069
			c-1.108,1.266-1.964,2.745-2.564,4.434c-0.603,1.69-0.974,3.425-1.111,5.202H305.742z"/>
		<path fill="#58595B" d="M316.258,13.451h2.628v7.335h0.139c0.46-1.288,1.118-2.434,1.971-3.433
			c0.853-1.001,1.845-1.857,2.974-2.567c1.132-0.712,2.364-1.245,3.703-1.601c1.335-0.356,2.697-0.533,4.081-0.533
			c2.075,0,3.839,0.244,5.293,0.732c1.451,0.49,2.639,1.135,3.561,1.935c0.923,0.799,1.649,1.7,2.18,2.7
			c0.529,1,0.91,2.012,1.141,3.034c0.233,1.023,0.371,2.012,0.416,2.969c0.046,0.955,0.069,1.789,0.069,2.499v21.208h-2.63V26.056
			c0-0.844-0.067-1.911-0.207-3.201c-0.136-1.289-0.542-2.523-1.209-3.701c-0.67-1.178-1.686-2.19-3.044-3.035
			c-1.361-0.844-3.242-1.267-5.639-1.267c-2.03,0-3.828,0.356-5.396,1.068c-1.567,0.711-2.904,1.699-4.011,2.967
			c-1.107,1.267-1.95,2.779-2.526,4.535c-0.578,1.756-0.864,3.68-0.864,5.767v18.541h-2.628V13.451z"/>
		<path fill="#58595B" d="M366.965,15.651h-7.747v23.942c0,1.379,0.159,2.467,0.483,3.268c0.322,0.8,0.819,1.411,1.486,1.833
			c0.67,0.424,1.477,0.679,2.422,0.767c0.944,0.089,2.041,0.112,3.288,0.067v2.201c-1.342,0.088-2.642,0.077-3.911-0.035
			c-1.269-0.11-2.386-0.444-3.354-0.999c-0.969-0.556-1.741-1.389-2.317-2.501c-0.579-1.111-0.819-2.643-0.727-4.601V15.651h-6.573
			v-2.2h6.573V2.782h2.63v10.669h7.747V15.651z"/>
		<path fill="#58595B" d="M376.166,21.054h0.205c0.324-1.112,0.912-2.156,1.767-3.134c0.852-0.978,1.888-1.822,3.11-2.534
			s2.583-1.256,4.084-1.635c1.497-0.376,3.054-0.543,4.668-0.5v2.535c-1.384-0.177-2.964-0.044-4.738,0.401
			c-1.775,0.445-3.471,1.422-5.085,2.934c-0.646,0.667-1.211,1.312-1.693,1.934c-0.485,0.624-0.891,1.313-1.211,2.067
			c-0.324,0.757-0.577,1.6-0.762,2.534c-0.184,0.934-0.301,2.046-0.345,3.335v18.74h-2.63V13.451h2.63V21.054z"/>
	</g>
</g>
</svg>
