<?xml version='1.0' encoding='utf-8'?><!DOCTYPE svg PUBLIC '-//W3C//DTD SVG 1.1//EN' 'http://www.w3.org/Graphics/SVG/1.1/DTD/svg11.dtd'><svg height="300" width="600"><g><line y1="20" y2="280" x1="20" x2="20" style="stroke: #000000;"></line><text x="0" y="25" font-size="10">100</text><text x="12" y="280" font-size="10">0</text><line x1="20" x2="580" y1="280" y2="280" style="stroke: #000000;"></line><rect style="stroke: #000000; fill: none;" x="40" y="108.57142857142861" width="30" height="171.4285714285714"></rect><rect style="stroke: #000000; fill: none;" x="94" y="215.06493506493507" width="30" height="64.93506493506493"></rect><rect style="stroke: #000000; fill: none;" x="148" y="181.2987012987013" width="30" height="98.70129870129868"></rect><rect style="stroke: #000000; fill: none;" x="202.00000000000003" y="105.97402597402598" width="30" height="174.02597402597402"></rect><rect style="stroke: #000000; fill: none;" x="256" y="98.18181818181822" width="30" height="181.81818181818178"></rect><rect style="stroke: #000000; fill: none;" x="310" y="64.41558441558445" width="30" height="215.58441558441555"></rect><rect style="stroke: #000000; fill: none;" x="364.00000000000006" y="124.15584415584416" width="30" height="155.84415584415584"></rect><rect style="stroke: #000000; fill: none;" x="418.00000000000006" y="25.454545454545496" width="30" height="254.5454545454545"></rect><rect style="stroke: #000000; fill: none;" x="472" y="46.23376623376626" width="30" height="233.76623376623374"></rect><rect style="stroke: #000000; fill: none;" x="526" y="142.33766233766235" width="30" height="137.66233766233765"></rect></g><g><text x="55" y="290" font-size="10" text-anchor="middle"></text><text x="109" y="290" font-size="10" text-anchor="middle">B</text><text x="163" y="290" font-size="10" text-anchor="middle">A</text><text x="217.00000000000003" y="290" font-size="10" text-anchor="middle"></text><text x="271" y="290" font-size="10" text-anchor="middle"></text><text x="325" y="290" font-size="10" text-anchor="middle"></text><text x="379.00000000000006" y="290" font-size="10" text-anchor="middle"></text><text x="433.00000000000006" y="290" font-size="10" text-anchor="middle"></text><text x="487" y="290" font-size="10" text-anchor="middle"></text><text x="541" y="290" font-size="10" text-anchor="middle"></text></g></svg>