<?xml version='1.0' encoding='utf-8'?><!DOCTYPE svg PUBLIC '-//W3C//DTD SVG 1.1//EN' 'http://www.w3.org/Graphics/SVG/1.1/DTD/svg11.dtd'><svg height="300" width="600"><g><line y1="20" y2="280" x1="20" x2="20" style="stroke: #000000;"></line><text x="0" y="25" font-size="10">100</text><text x="12" y="280" font-size="10">0</text><line x1="20" x2="580" y1="280" y2="280" style="stroke: #000000;"></line><rect style="stroke: #000000; fill: none;" x="40" y="118.01652892561984" width="30" height="161.98347107438016"></rect><rect style="stroke: #000000; fill: none;" x="94" y="104.79338842975207" width="30" height="175.20661157024793"></rect><rect style="stroke: #000000; fill: none;" x="148" y="263.4710743801653" width="30" height="16.52892561983471"></rect><rect style="stroke: #000000; fill: none;" x="202.00000000000003" y="134.54545454545456" width="30" height="145.45454545454544"></rect><rect style="stroke: #000000; fill: none;" x="256" y="266.77685950413223" width="30" height="13.223140495867769"></rect><rect style="stroke: #000000; fill: none;" x="310" y="78.34710743801651" width="30" height="201.6528925619835"></rect><rect style="stroke: #000000; fill: none;" x="364.00000000000006" y="25.454545454545467" width="30" height="254.54545454545453"></rect><rect style="stroke: #000000; fill: none;" x="418.00000000000006" y="75.04132231404961" width="30" height="204.9586776859504"></rect><rect style="stroke: #000000; fill: none;" x="472" y="88.26446280991738" width="30" height="191.73553719008262"></rect><rect style="stroke: #000000; fill: none;" x="526" y="207.27272727272728" width="30" height="72.72727272727272"></rect></g><g><text x="55" y="290" font-size="10" text-anchor="middle"></text><text x="109" y="290" font-size="10" text-anchor="middle"></text><text x="163" y="290" font-size="10" text-anchor="middle"></text><text x="217.00000000000003" y="290" font-size="10" text-anchor="middle">B</text><text x="271" y="290" font-size="10" text-anchor="middle">A</text><text x="325" y="290" font-size="10" text-anchor="middle"></text><text x="379.00000000000006" y="290" font-size="10" text-anchor="middle"></text><text x="433.00000000000006" y="290" font-size="10" text-anchor="middle"></text><text x="487" y="290" font-size="10" text-anchor="middle"></text><text x="541" y="290" font-size="10" text-anchor="middle"></text></g></svg>