<?xml version='1.0' encoding='utf-8'?><!DOCTYPE svg PUBLIC '-//W3C//DTD SVG 1.1//EN' 'http://www.w3.org/Graphics/SVG/1.1/DTD/svg11.dtd'><svg height="300" width="600"><g><line y1="20" y2="280" x1="20" x2="20" style="stroke: #000000;"></line><text x="0" y="25" font-size="10">100</text><text x="12" y="280" font-size="10">0</text><line x1="20" x2="580" y1="280" y2="280" style="stroke: #000000;"></line><rect style="stroke: #000000; fill: none;" x="40" y="130.87235996326905" width="30" height="149.12764003673095"></rect><rect style="stroke: #000000; fill: none;" x="94" y="246.57483930211203" width="30" height="33.42516069788797"></rect><rect style="stroke: #000000; fill: none;" x="148" y="138.58585858585857" width="30" height="141.41414141414143"></rect><rect style="stroke: #000000; fill: none;" x="202.00000000000003" y="172.01101928374655" width="30" height="107.98898071625345"></rect><rect style="stroke: #000000; fill: none;" x="256" y="105.16069788797063" width="30" height="174.83930211202937"></rect><rect style="stroke: #000000; fill: none;" x="310" y="25.454545454545467" width="30" height="254.54545454545453"></rect><rect style="stroke: #000000; fill: none;" x="364.00000000000006" y="259.43067033976126" width="30" height="20.56932966023875"></rect><rect style="stroke: #000000; fill: none;" x="418.00000000000006" y="123.15886134067952" width="30" height="156.84113865932048"></rect><rect style="stroke: #000000; fill: none;" x="472" y="110.30303030303031" width="30" height="169.6969696969697"></rect><rect style="stroke: #000000; fill: none;" x="526" y="58.87970615243344" width="30" height="221.12029384756656"></rect></g><g><text x="55" y="290" font-size="10" text-anchor="middle"></text><text x="109" y="290" font-size="10" text-anchor="middle"></text><text x="163" y="290" font-size="10" text-anchor="middle"></text><text x="217.00000000000003" y="290" font-size="10" text-anchor="middle"></text><text x="271" y="290" font-size="10" text-anchor="middle">A</text><text x="325" y="290" font-size="10" text-anchor="middle">B</text><text x="379.00000000000006" y="290" font-size="10" text-anchor="middle"></text><text x="433.00000000000006" y="290" font-size="10" text-anchor="middle"></text><text x="487" y="290" font-size="10" text-anchor="middle"></text><text x="541" y="290" font-size="10" text-anchor="middle"></text></g></svg>