<?xml version='1.0' encoding='utf-8'?><!DOCTYPE svg PUBLIC '-//W3C//DTD SVG 1.1//EN' 'http://www.w3.org/Graphics/SVG/1.1/DTD/svg11.dtd'><svg height="300" width="600"><g><line y1="20" y2="280" x1="20" x2="20" style="stroke: #000000;"></line><text x="0" y="25" font-size="10">100</text><text x="12" y="280" font-size="10">0</text><line x1="20" x2="580" y1="280" y2="280" style="stroke: #000000;"></line><rect style="stroke: #000000; fill: none;" x="40" y="211.92389006342495" width="30" height="68.07610993657504"></rect><rect style="stroke: #000000; fill: none;" x="94" y="188.2452431289641" width="30" height="91.75475687103592"></rect><rect style="stroke: #000000; fill: none;" x="148" y="25.454545454545496" width="30" height="254.5454545454545"></rect><rect style="stroke: #000000; fill: none;" x="202.00000000000003" y="229.68287526427062" width="30" height="50.31712473572938"></rect><rect style="stroke: #000000; fill: none;" x="256" y="223.7632135306554" width="30" height="56.2367864693446"></rect><rect style="stroke: #000000; fill: none;" x="310" y="37.29386892177595" width="30" height="242.70613107822405"></rect><rect style="stroke: #000000; fill: none;" x="364.00000000000006" y="179.36575052854124" width="30" height="100.63424947145876"></rect><rect style="stroke: #000000; fill: none;" x="418.00000000000006" y="200.08456659619452" width="30" height="79.91543340380548"></rect><rect style="stroke: #000000; fill: none;" x="472" y="155.68710359408036" width="30" height="124.31289640591964"></rect><rect style="stroke: #000000; fill: none;" x="526" y="235.60253699788584" width="30" height="44.39746300211416"></rect></g><g><text x="55" y="290" font-size="10" text-anchor="middle"></text><text x="109" y="290" font-size="10" text-anchor="middle"></text><text x="163" y="290" font-size="10" text-anchor="middle"></text><text x="217.00000000000003" y="290" font-size="10" text-anchor="middle"></text><text x="271" y="290" font-size="10" text-anchor="middle">A</text><text x="325" y="290" font-size="10" text-anchor="middle">B</text><text x="379.00000000000006" y="290" font-size="10" text-anchor="middle"></text><text x="433.00000000000006" y="290" font-size="10" text-anchor="middle"></text><text x="487" y="290" font-size="10" text-anchor="middle"></text><text x="541" y="290" font-size="10" text-anchor="middle"></text></g></svg>