<?xml version='1.0' encoding='utf-8'?><!DOCTYPE svg PUBLIC '-//W3C//DTD SVG 1.1//EN' 'http://www.w3.org/Graphics/SVG/1.1/DTD/svg11.dtd'><svg height="300" width="600"><g><line y1="20" y2="280" x1="20" x2="20" style="stroke: #000000;"></line><text x="0" y="25" font-size="10">100</text><text x="12" y="280" font-size="10">0</text><line x1="20" x2="580" y1="280" y2="280" style="stroke: #000000;"></line><rect style="stroke: #000000; fill: none;" x="40" y="228.51889683350356" width="30" height="51.481103166496425"></rect><rect style="stroke: #000000; fill: none;" x="94" y="202.77834525025537" width="30" height="77.22165474974464"></rect><rect style="stroke: #000000; fill: none;" x="148" y="214.21859039836568" width="30" height="65.78140960163432"></rect><rect style="stroke: #000000; fill: none;" x="202.00000000000003" y="56.91521961184881" width="30" height="223.0847803881512"></rect><rect style="stroke: #000000; fill: none;" x="256" y="268.5597548518897" width="30" height="11.440245148110316"></rect><rect style="stroke: #000000; fill: none;" x="310" y="119.83656792645556" width="30" height="160.16343207354444"></rect><rect style="stroke: #000000; fill: none;" x="364.00000000000006" y="25.454545454545467" width="30" height="254.54545454545453"></rect><rect style="stroke: #000000; fill: none;" x="418.00000000000006" y="45.474974463738505" width="30" height="234.5250255362615"></rect><rect style="stroke: #000000; fill: none;" x="472" y="174.17773237997957" width="30" height="105.82226762002043"></rect><rect style="stroke: #000000; fill: none;" x="526" y="111.25638406537283" width="30" height="168.74361593462717"></rect></g><g><text x="55" y="290" font-size="10" text-anchor="middle"></text><text x="109" y="290" font-size="10" text-anchor="middle">A</text><text x="163" y="290" font-size="10" text-anchor="middle">B</text><text x="217.00000000000003" y="290" font-size="10" text-anchor="middle"></text><text x="271" y="290" font-size="10" text-anchor="middle"></text><text x="325" y="290" font-size="10" text-anchor="middle"></text><text x="379.00000000000006" y="290" font-size="10" text-anchor="middle"></text><text x="433.00000000000006" y="290" font-size="10" text-anchor="middle"></text><text x="487" y="290" font-size="10" text-anchor="middle"></text><text x="541" y="290" font-size="10" text-anchor="middle"></text></g></svg>