<?xml version='1.0' encoding='utf-8'?><!DOCTYPE svg PUBLIC '-//W3C//DTD SVG 1.1//EN' 'http://www.w3.org/Graphics/SVG/1.1/DTD/svg11.dtd'><svg height="300" width="600"><g><line y1="20" y2="280" x1="20" x2="20" style="stroke: #000000;"></line><text x="0" y="25" font-size="10">100</text><text x="12" y="280" font-size="10">0</text><line x1="20" x2="580" y1="280" y2="280" style="stroke: #000000;"></line><rect style="stroke: #000000; fill: none;" x="40" y="124.15584415584416" width="30" height="155.84415584415584"></rect><rect style="stroke: #000000; fill: none;" x="94" y="215.06493506493507" width="30" height="64.93506493506493"></rect><rect style="stroke: #000000; fill: none;" x="148" y="56.62337662337666" width="30" height="223.37662337662334"></rect><rect style="stroke: #000000; fill: none;" x="202.00000000000003" y="251.42857142857144" width="30" height="28.57142857142857"></rect><rect style="stroke: #000000; fill: none;" x="256" y="25.454545454545496" width="30" height="254.5454545454545"></rect><rect style="stroke: #000000; fill: none;" x="310" y="59.220779220779264" width="30" height="220.77922077922074"></rect><rect style="stroke: #000000; fill: none;" x="364.00000000000006" y="230.64935064935065" width="30" height="49.35064935064934"></rect><rect style="stroke: #000000; fill: none;" x="418.00000000000006" y="74.80519480519484" width="30" height="205.19480519480516"></rect><rect style="stroke: #000000; fill: none;" x="472" y="272.2077922077922" width="30" height="7.792207792207791"></rect><rect style="stroke: #000000; fill: none;" x="526" y="103.3766233766234" width="30" height="176.6233766233766"></rect></g><g><text x="55" y="290" font-size="10" text-anchor="middle">A</text><text x="109" y="290" font-size="10" text-anchor="middle">B</text><text x="163" y="290" font-size="10" text-anchor="middle"></text><text x="217.00000000000003" y="290" font-size="10" text-anchor="middle"></text><text x="271" y="290" font-size="10" text-anchor="middle"></text><text x="325" y="290" font-size="10" text-anchor="middle"></text><text x="379.00000000000006" y="290" font-size="10" text-anchor="middle"></text><text x="433.00000000000006" y="290" font-size="10" text-anchor="middle"></text><text x="487" y="290" font-size="10" text-anchor="middle"></text><text x="541" y="290" font-size="10" text-anchor="middle"></text></g></svg>