<?xml version='1.0' encoding='utf-8'?><!DOCTYPE svg PUBLIC '-//W3C//DTD SVG 1.1//EN' 'http://www.w3.org/Graphics/SVG/1.1/DTD/svg11.dtd'><svg height="300" width="600"><g><line y1="20" y2="280" x1="20" x2="20" style="stroke: #000000;"></line><text x="0" y="25" font-size="10">100</text><text x="12" y="280" font-size="10">0</text><line x1="20" x2="580" y1="280" y2="280" style="stroke: #000000;"></line><rect style="stroke: #000000; fill: none;" x="40" y="27.97479747974802" width="30" height="252.02520252025198"></rect><rect style="stroke: #000000; fill: none;" x="94" y="239.67596759675968" width="30" height="40.32403240324032"></rect><rect style="stroke: #000000; fill: none;" x="148" y="93.50135013501352" width="30" height="186.49864986498648"></rect><rect style="stroke: #000000; fill: none;" x="202.00000000000003" y="83.42034203420343" width="30" height="196.57965796579657"></rect><rect style="stroke: #000000; fill: none;" x="256" y="98.54185418541854" width="30" height="181.45814581458146"></rect><rect style="stroke: #000000; fill: none;" x="310" y="25.454545454545496" width="30" height="254.5454545454545"></rect><rect style="stroke: #000000; fill: none;" x="364.00000000000006" y="90.981098109811" width="30" height="189.018901890189"></rect><rect style="stroke: #000000; fill: none;" x="418.00000000000006" y="247.23672367236725" width="30" height="32.76327632763276"></rect><rect style="stroke: #000000; fill: none;" x="472" y="78.37983798379841" width="30" height="201.6201620162016"></rect><rect style="stroke: #000000; fill: none;" x="526" y="262.3582358235824" width="30" height="17.641764176417638"></rect></g><g><text x="55" y="290" font-size="10" text-anchor="middle">A</text><text x="109" y="290" font-size="10" text-anchor="middle">B</text><text x="163" y="290" font-size="10" text-anchor="middle"></text><text x="217.00000000000003" y="290" font-size="10" text-anchor="middle"></text><text x="271" y="290" font-size="10" text-anchor="middle"></text><text x="325" y="290" font-size="10" text-anchor="middle"></text><text x="379.00000000000006" y="290" font-size="10" text-anchor="middle"></text><text x="433.00000000000006" y="290" font-size="10" text-anchor="middle"></text><text x="487" y="290" font-size="10" text-anchor="middle"></text><text x="541" y="290" font-size="10" text-anchor="middle"></text></g></svg>