<?xml version='1.0' encoding='utf-8'?><!DOCTYPE svg PUBLIC '-//W3C//DTD SVG 1.1//EN' 'http://www.w3.org/Graphics/SVG/1.1/DTD/svg11.dtd'><svg height="300" width="600"><g><line y1="20" y2="280" x1="20" x2="20" style="stroke: #000000;"></line><text x="0" y="25" font-size="10">100</text><text x="12" y="280" font-size="10">0</text><line x1="20" x2="580" y1="280" y2="280" style="stroke: #000000;"></line><rect style="stroke: #000000; fill: none;" x="40" y="109.42830365510781" width="30" height="170.5716963448922"></rect><rect style="stroke: #000000; fill: none;" x="94" y="25.454545454545467" width="30" height="254.54545454545453"></rect><rect style="stroke: #000000; fill: none;" x="148" y="43.82380506091849" width="30" height="236.1761949390815"></rect><rect style="stroke: #000000; fill: none;" x="202.00000000000003" y="117.30084348641049" width="30" height="162.69915651358951"></rect><rect style="stroke: #000000; fill: none;" x="256" y="85.81068416119965" width="30" height="194.18931583880035"></rect><rect style="stroke: #000000; fill: none;" x="310" y="243.26148078725396" width="30" height="36.73851921274601"></rect><rect style="stroke: #000000; fill: none;" x="364.00000000000006" y="253.7582005623243" width="30" height="26.241799437675724"></rect><rect style="stroke: #000000; fill: none;" x="418.00000000000006" y="238.01312089971884" width="30" height="41.98687910028116"></rect><rect style="stroke: #000000; fill: none;" x="472" y="30.702905342080612" width="30" height="249.2970946579194"></rect><rect style="stroke: #000000; fill: none;" x="526" y="188.15370196813495" width="30" height="91.84629803186503"></rect></g><g><text x="55" y="290" font-size="10" text-anchor="middle"></text><text x="109" y="290" font-size="10" text-anchor="middle"></text><text x="163" y="290" font-size="10" text-anchor="middle"></text><text x="217.00000000000003" y="290" font-size="10" text-anchor="middle"></text><text x="271" y="290" font-size="10" text-anchor="middle"></text><text x="325" y="290" font-size="10" text-anchor="middle"></text><text x="379.00000000000006" y="290" font-size="10" text-anchor="middle">A</text><text x="433.00000000000006" y="290" font-size="10" text-anchor="middle">B</text><text x="487" y="290" font-size="10" text-anchor="middle"></text><text x="541" y="290" font-size="10" text-anchor="middle"></text></g></svg>