<?xml version='1.0' encoding='utf-8'?><!DOCTYPE svg PUBLIC '-//W3C//DTD SVG 1.1//EN' 'http://www.w3.org/Graphics/SVG/1.1/DTD/svg11.dtd'><svg height="300" width="600"><g><line y1="20" y2="280" x1="20" x2="20" style="stroke: #000000;"></line><text x="0" y="25" font-size="10">100</text><text x="12" y="280" font-size="10">0</text><line x1="20" x2="580" y1="280" y2="280" style="stroke: #000000;"></line><rect style="stroke: #000000; fill: none;" x="40" y="252.92069632495162" width="30" height="27.079303675048354"></rect><rect style="stroke: #000000; fill: none;" x="94" y="233.9651837524178" width="30" height="46.0348162475822"></rect><rect style="stroke: #000000; fill: none;" x="148" y="247.504835589942" width="30" height="32.495164410058024"></rect><rect style="stroke: #000000; fill: none;" x="202.00000000000003" y="44.410058027079344" width="30" height="235.58994197292066"></rect><rect style="stroke: #000000; fill: none;" x="256" y="120.23210831721471" width="30" height="159.7678916827853"></rect><rect style="stroke: #000000; fill: none;" x="310" y="258.3365570599613" width="30" height="21.66344294003868"></rect><rect style="stroke: #000000; fill: none;" x="364.00000000000006" y="125.64796905222437" width="30" height="154.35203094777563"></rect><rect style="stroke: #000000; fill: none;" x="418.00000000000006" y="25.454545454545496" width="30" height="254.5454545454545"></rect><rect style="stroke: #000000; fill: none;" x="472" y="198.76208897485492" width="30" height="81.23791102514507"></rect><rect style="stroke: #000000; fill: none;" x="526" y="144.60348162475822" width="30" height="135.39651837524178"></rect></g><g><text x="55" y="290" font-size="10" text-anchor="middle"></text><text x="109" y="290" font-size="10" text-anchor="middle"></text><text x="163" y="290" font-size="10" text-anchor="middle">A</text><text x="217.00000000000003" y="290" font-size="10" text-anchor="middle">B</text><text x="271" y="290" font-size="10" text-anchor="middle"></text><text x="325" y="290" font-size="10" text-anchor="middle"></text><text x="379.00000000000006" y="290" font-size="10" text-anchor="middle"></text><text x="433.00000000000006" y="290" font-size="10" text-anchor="middle"></text><text x="487" y="290" font-size="10" text-anchor="middle"></text><text x="541" y="290" font-size="10" text-anchor="middle"></text></g></svg>