<?xml version='1.0' encoding='utf-8'?><!DOCTYPE svg PUBLIC '-//W3C//DTD SVG 1.1//EN' 'http://www.w3.org/Graphics/SVG/1.1/DTD/svg11.dtd'><svg height="300" width="600"><g><line y1="20" y2="280" x1="20" x2="20" style="stroke: #000000;"></line><text x="0" y="25" font-size="10">100</text><text x="12" y="280" font-size="10">0</text><line x1="20" x2="580" y1="280" y2="280" style="stroke: #000000;"></line><rect style="stroke: #000000; fill: none;" x="40" y="174.86166007905138" width="30" height="105.13833992094861"></rect><rect style="stroke: #000000; fill: none;" x="94" y="180.39525691699606" width="30" height="99.60474308300395"></rect><rect style="stroke: #000000; fill: none;" x="148" y="119.52569169960475" width="30" height="160.47430830039525"></rect><rect style="stroke: #000000; fill: none;" x="202.00000000000003" y="105.69169960474309" width="30" height="174.3083003952569"></rect><rect style="stroke: #000000; fill: none;" x="256" y="202.5296442687747" width="30" height="77.4703557312253"></rect><rect style="stroke: #000000; fill: none;" x="310" y="224.66403162055337" width="30" height="55.33596837944664"></rect><rect style="stroke: #000000; fill: none;" x="364.00000000000006" y="25.454545454545467" width="30" height="254.54545454545453"></rect><rect style="stroke: #000000; fill: none;" x="418.00000000000006" y="64.1897233201581" width="30" height="215.8102766798419"></rect><rect style="stroke: #000000; fill: none;" x="472" y="268.9328063241107" width="30" height="11.067193675889328"></rect><rect style="stroke: #000000; fill: none;" x="526" y="127.82608695652175" width="30" height="152.17391304347825"></rect></g><g><text x="55" y="290" font-size="10" text-anchor="middle">A</text><text x="109" y="290" font-size="10" text-anchor="middle">B</text><text x="163" y="290" font-size="10" text-anchor="middle"></text><text x="217.00000000000003" y="290" font-size="10" text-anchor="middle"></text><text x="271" y="290" font-size="10" text-anchor="middle"></text><text x="325" y="290" font-size="10" text-anchor="middle"></text><text x="379.00000000000006" y="290" font-size="10" text-anchor="middle"></text><text x="433.00000000000006" y="290" font-size="10" text-anchor="middle"></text><text x="487" y="290" font-size="10" text-anchor="middle"></text><text x="541" y="290" font-size="10" text-anchor="middle"></text></g></svg>