<?xml version='1.0' encoding='utf-8'?><!DOCTYPE svg PUBLIC '-//W3C//DTD SVG 1.1//EN' 'http://www.w3.org/Graphics/SVG/1.1/DTD/svg11.dtd'><svg height="300" width="600"><g><line y1="20" y2="280" x1="20" x2="20" style="stroke: #000000;"></line><text x="0" y="25" font-size="10">100</text><text x="12" y="280" font-size="10">0</text><line x1="20" x2="580" y1="280" y2="280" style="stroke: #000000;"></line><rect style="stroke: #000000; fill: none;" x="40" y="159.28772258669164" width="30" height="120.71227741330834"></rect><rect style="stroke: #000000; fill: none;" x="94" y="224.892221180881" width="30" height="55.10777881911902"></rect><rect style="stroke: #000000; fill: none;" x="148" y="25.454545454545467" width="30" height="254.54545454545453"></rect><rect style="stroke: #000000; fill: none;" x="202.00000000000003" y="196.02624179943768" width="30" height="83.97375820056232"></rect><rect style="stroke: #000000; fill: none;" x="256" y="62.19306466729148" width="30" height="217.80693533270852"></rect><rect style="stroke: #000000; fill: none;" x="310" y="248.50984067478913" width="30" height="31.490159325210872"></rect><rect style="stroke: #000000; fill: none;" x="364.00000000000006" y="77.93814432989691" width="30" height="202.06185567010309"></rect><rect style="stroke: #000000; fill: none;" x="418.00000000000006" y="238.01312089971884" width="30" height="41.98687910028116"></rect><rect style="stroke: #000000; fill: none;" x="472" y="167.16026241799437" width="30" height="112.83973758200561"></rect><rect style="stroke: #000000; fill: none;" x="526" y="56.944704779756364" width="30" height="223.05529522024364"></rect></g><g><text x="55" y="290" font-size="10" text-anchor="middle"></text><text x="109" y="290" font-size="10" text-anchor="middle">B</text><text x="163" y="290" font-size="10" text-anchor="middle">A</text><text x="217.00000000000003" y="290" font-size="10" text-anchor="middle"></text><text x="271" y="290" font-size="10" text-anchor="middle"></text><text x="325" y="290" font-size="10" text-anchor="middle"></text><text x="379.00000000000006" y="290" font-size="10" text-anchor="middle"></text><text x="433.00000000000006" y="290" font-size="10" text-anchor="middle"></text><text x="487" y="290" font-size="10" text-anchor="middle"></text><text x="541" y="290" font-size="10" text-anchor="middle"></text></g></svg>