<?xml version='1.0' encoding='utf-8'?><!DOCTYPE svg PUBLIC '-//W3C//DTD SVG 1.1//EN' 'http://www.w3.org/Graphics/SVG/1.1/DTD/svg11.dtd'><svg height="300" width="600"><g><line y1="20" y2="280" x1="20" x2="20" style="stroke: #000000;"></line><text x="0" y="25" font-size="10">100</text><text x="12" y="280" font-size="10">0</text><line x1="20" x2="580" y1="280" y2="280" style="stroke: #000000;"></line><rect style="stroke: #000000; fill: none;" x="40" y="25.454545454545496" width="30" height="254.5454545454545"></rect><rect style="stroke: #000000; fill: none;" x="94" y="147.42424242424244" width="30" height="132.57575757575756"></rect><rect style="stroke: #000000; fill: none;" x="148" y="75.83333333333337" width="30" height="204.16666666666663"></rect><rect style="stroke: #000000; fill: none;" x="202.00000000000003" y="203.10606060606062" width="30" height="76.89393939393939"></rect><rect style="stroke: #000000; fill: none;" x="256" y="232.27272727272728" width="30" height="47.72727272727272"></rect><rect style="stroke: #000000; fill: none;" x="310" y="131.51515151515153" width="30" height="148.48484848484847"></rect><rect style="stroke: #000000; fill: none;" x="364.00000000000006" y="155.37878787878788" width="30" height="124.62121212121211"></rect><rect style="stroke: #000000; fill: none;" x="418.00000000000006" y="171.2878787878788" width="30" height="108.71212121212119"></rect><rect style="stroke: #000000; fill: none;" x="472" y="248.1818181818182" width="30" height="31.818181818181813"></rect><rect style="stroke: #000000; fill: none;" x="526" y="97.04545454545456" width="30" height="182.95454545454544"></rect></g><g><text x="55" y="290" font-size="10" text-anchor="middle">A</text><text x="109" y="290" font-size="10" text-anchor="middle">B</text><text x="163" y="290" font-size="10" text-anchor="middle"></text><text x="217.00000000000003" y="290" font-size="10" text-anchor="middle"></text><text x="271" y="290" font-size="10" text-anchor="middle"></text><text x="325" y="290" font-size="10" text-anchor="middle"></text><text x="379.00000000000006" y="290" font-size="10" text-anchor="middle"></text><text x="433.00000000000006" y="290" font-size="10" text-anchor="middle"></text><text x="487" y="290" font-size="10" text-anchor="middle"></text><text x="541" y="290" font-size="10" text-anchor="middle"></text></g></svg>