<?xml version='1.0' encoding='utf-8'?><!DOCTYPE svg PUBLIC '-//W3C//DTD SVG 1.1//EN' 'http://www.w3.org/Graphics/SVG/1.1/DTD/svg11.dtd'><svg height="300" width="600"><g><line y1="20" y2="280" x1="20" x2="20" style="stroke: #000000;"></line><text x="0" y="25" font-size="10">100</text><text x="12" y="280" font-size="10">0</text><line x1="20" x2="580" y1="280" y2="280" style="stroke: #000000;"></line><rect style="stroke: #000000; fill: none;" x="40" y="25.454545454545496" width="30" height="254.5454545454545"></rect><rect style="stroke: #000000; fill: none;" x="94" y="59.220779220779264" width="30" height="220.77922077922074"></rect><rect style="stroke: #000000; fill: none;" x="148" y="261.8181818181818" width="30" height="18.18181818181818"></rect><rect style="stroke: #000000; fill: none;" x="202.00000000000003" y="64.41558441558445" width="30" height="215.58441558441555"></rect><rect style="stroke: #000000; fill: none;" x="256" y="215.06493506493507" width="30" height="64.93506493506493"></rect><rect style="stroke: #000000; fill: none;" x="310" y="163.11688311688312" width="30" height="116.88311688311687"></rect><rect style="stroke: #000000; fill: none;" x="364.00000000000006" y="116.3636363636364" width="30" height="163.6363636363636"></rect><rect style="stroke: #000000; fill: none;" x="418.00000000000006" y="35.844155844155864" width="30" height="244.15584415584414"></rect><rect style="stroke: #000000; fill: none;" x="472" y="168.31168831168833" width="30" height="111.68831168831167"></rect><rect style="stroke: #000000; fill: none;" x="526" y="212.46753246753246" width="30" height="67.53246753246752"></rect></g><g><text x="55" y="290" font-size="10" text-anchor="middle"></text><text x="109" y="290" font-size="10" text-anchor="middle"></text><text x="163" y="290" font-size="10" text-anchor="middle"></text><text x="217.00000000000003" y="290" font-size="10" text-anchor="middle"></text><text x="271" y="290" font-size="10" text-anchor="middle"></text><text x="325" y="290" font-size="10" text-anchor="middle"></text><text x="379.00000000000006" y="290" font-size="10" text-anchor="middle"></text><text x="433.00000000000006" y="290" font-size="10" text-anchor="middle"></text><text x="487" y="290" font-size="10" text-anchor="middle">B</text><text x="541" y="290" font-size="10" text-anchor="middle">A</text></g></svg>