<?xml version='1.0' encoding='utf-8'?><!DOCTYPE svg PUBLIC '-//W3C//DTD SVG 1.1//EN' 'http://www.w3.org/Graphics/SVG/1.1/DTD/svg11.dtd'><svg height="300" width="600"><g><line y1="20" y2="280" x1="20" x2="20" style="stroke: #000000;"></line><text x="0" y="25" font-size="10">100</text><text x="12" y="280" font-size="10">0</text><line x1="20" x2="580" y1="280" y2="280" style="stroke: #000000;"></line><rect style="stroke: #000000; fill: none;" x="40" y="269.5032802249297" width="30" height="10.49671977507029"></rect><rect style="stroke: #000000; fill: none;" x="94" y="188.15370196813495" width="30" height="91.84629803186503"></rect><rect style="stroke: #000000; fill: none;" x="148" y="230.1405810684161" width="30" height="49.859418931583875"></rect><rect style="stroke: #000000; fill: none;" x="202.00000000000003" y="101.55576382380508" width="30" height="178.44423617619492"></rect><rect style="stroke: #000000; fill: none;" x="256" y="190.77788191190254" width="30" height="89.22211808809746"></rect><rect style="stroke: #000000; fill: none;" x="310" y="214.3955014058107" width="30" height="65.60449859418931"></rect><rect style="stroke: #000000; fill: none;" x="364.00000000000006" y="80.5623242736645" width="30" height="199.4376757263355"></rect><rect style="stroke: #000000; fill: none;" x="418.00000000000006" y="201.27460168697283" width="30" height="78.72539831302717"></rect><rect style="stroke: #000000; fill: none;" x="472" y="25.454545454545467" width="30" height="254.54545454545453"></rect><rect style="stroke: #000000; fill: none;" x="526" y="41.19962511715093" width="30" height="238.80037488284907"></rect></g><g><text x="55" y="290" font-size="10" text-anchor="middle"></text><text x="109" y="290" font-size="10" text-anchor="middle"></text><text x="163" y="290" font-size="10" text-anchor="middle"></text><text x="217.00000000000003" y="290" font-size="10" text-anchor="middle"></text><text x="271" y="290" font-size="10" text-anchor="middle"></text><text x="325" y="290" font-size="10" text-anchor="middle"></text><text x="379.00000000000006" y="290" font-size="10" text-anchor="middle">A</text><text x="433.00000000000006" y="290" font-size="10" text-anchor="middle">B</text><text x="487" y="290" font-size="10" text-anchor="middle"></text><text x="541" y="290" font-size="10" text-anchor="middle"></text></g></svg>