<?xml version='1.0' encoding='utf-8'?><!DOCTYPE svg PUBLIC '-//W3C//DTD SVG 1.1//EN' 'http://www.w3.org/Graphics/SVG/1.1/DTD/svg11.dtd'><svg height="300" width="600"><g><line y1="20" y2="280" x1="20" x2="20" style="stroke: #000000;"></line><text x="0" y="25" font-size="10">100</text><text x="12" y="280" font-size="10">0</text><line x1="20" x2="580" y1="280" y2="280" style="stroke: #000000;"></line><rect style="stroke: #000000; fill: none;" x="40" y="100.01836547291094" width="30" height="179.98163452708906"></rect><rect style="stroke: #000000; fill: none;" x="94" y="179.72451790633608" width="30" height="100.27548209366391"></rect><rect style="stroke: #000000; fill: none;" x="148" y="69.16437098255281" width="30" height="210.8356290174472"></rect><rect style="stroke: #000000; fill: none;" x="202.00000000000003" y="136.01469237832876" width="30" height="143.98530762167124"></rect><rect style="stroke: #000000; fill: none;" x="256" y="87.1625344352617" width="30" height="192.8374655647383"></rect><rect style="stroke: #000000; fill: none;" x="310" y="25.454545454545467" width="30" height="254.54545454545453"></rect><rect style="stroke: #000000; fill: none;" x="364.00000000000006" y="259.43067033976126" width="30" height="20.56932966023875"></rect><rect style="stroke: #000000; fill: none;" x="418.00000000000006" y="166.86868686868686" width="30" height="113.13131313131314"></rect><rect style="stroke: #000000; fill: none;" x="472" y="156.5840220385675" width="30" height="123.4159779614325"></rect><rect style="stroke: #000000; fill: none;" x="526" y="151.4416896235078" width="30" height="128.5583103764922"></rect></g><g><text x="55" y="290" font-size="10" text-anchor="middle">A</text><text x="109" y="290" font-size="10" text-anchor="middle">B</text><text x="163" y="290" font-size="10" text-anchor="middle"></text><text x="217.00000000000003" y="290" font-size="10" text-anchor="middle"></text><text x="271" y="290" font-size="10" text-anchor="middle"></text><text x="325" y="290" font-size="10" text-anchor="middle"></text><text x="379.00000000000006" y="290" font-size="10" text-anchor="middle"></text><text x="433.00000000000006" y="290" font-size="10" text-anchor="middle"></text><text x="487" y="290" font-size="10" text-anchor="middle"></text><text x="541" y="290" font-size="10" text-anchor="middle"></text></g></svg>