<?xml version='1.0' encoding='utf-8'?><!DOCTYPE svg PUBLIC '-//W3C//DTD SVG 1.1//EN' 'http://www.w3.org/Graphics/SVG/1.1/DTD/svg11.dtd'><svg height="300" width="600"><g><line y1="20" y2="280" x1="20" x2="20" style="stroke: #000000;"></line><text x="0" y="25" font-size="10">100</text><text x="12" y="280" font-size="10">0</text><line x1="20" x2="580" y1="280" y2="280" style="stroke: #000000;"></line><rect style="stroke: #000000; fill: none;" x="40" y="123.74437443744375" width="30" height="156.25562556255625"></rect><rect style="stroke: #000000; fill: none;" x="94" y="229.5949594959496" width="30" height="50.4050405040504"></rect><rect style="stroke: #000000; fill: none;" x="148" y="133.82538253825385" width="30" height="146.17461746174615"></rect><rect style="stroke: #000000; fill: none;" x="202.00000000000003" y="65.77857785778582" width="30" height="214.22142214221418"></rect><rect style="stroke: #000000; fill: none;" x="256" y="242.1962196219622" width="30" height="37.80378037803779"></rect><rect style="stroke: #000000; fill: none;" x="310" y="101.0621062106211" width="30" height="178.9378937893789"></rect><rect style="stroke: #000000; fill: none;" x="364.00000000000006" y="68.29882988298831" width="30" height="211.70117011701169"></rect><rect style="stroke: #000000; fill: none;" x="418.00000000000006" y="108.62286228622864" width="30" height="171.37713771377136"></rect><rect style="stroke: #000000; fill: none;" x="472" y="25.454545454545496" width="30" height="254.5454545454545"></rect><rect style="stroke: #000000; fill: none;" x="526" y="234.63546354635463" width="30" height="45.364536453645364"></rect></g><g><text x="55" y="290" font-size="10" text-anchor="middle"></text><text x="109" y="290" font-size="10" text-anchor="middle"></text><text x="163" y="290" font-size="10" text-anchor="middle"></text><text x="217.00000000000003" y="290" font-size="10" text-anchor="middle"></text><text x="271" y="290" font-size="10" text-anchor="middle"></text><text x="325" y="290" font-size="10" text-anchor="middle"></text><text x="379.00000000000006" y="290" font-size="10" text-anchor="middle">B</text><text x="433.00000000000006" y="290" font-size="10" text-anchor="middle">A</text><text x="487" y="290" font-size="10" text-anchor="middle"></text><text x="541" y="290" font-size="10" text-anchor="middle"></text></g></svg>