<?xml version='1.0' encoding='utf-8'?><!DOCTYPE svg PUBLIC '-//W3C//DTD SVG 1.1//EN' 'http://www.w3.org/Graphics/SVG/1.1/DTD/svg11.dtd'><svg height="300" width="600"><g><line y1="20" y2="280" x1="20" x2="20" style="stroke: #000000;"></line><text x="0" y="25" font-size="10">100</text><text x="12" y="280" font-size="10">0</text><line x1="20" x2="580" y1="280" y2="280" style="stroke: #000000;"></line><rect style="stroke: #000000; fill: none;" x="40" y="50.087976539589505" width="30" height="229.9120234604105"></rect><rect style="stroke: #000000; fill: none;" x="94" y="167.78103616813297" width="30" height="112.21896383186703"></rect><rect style="stroke: #000000; fill: none;" x="148" y="263.57771260997066" width="30" height="16.42228739002932"></rect><rect style="stroke: #000000; fill: none;" x="202.00000000000003" y="219.78494623655914" width="30" height="60.21505376344086"></rect><rect style="stroke: #000000; fill: none;" x="256" y="189.67741935483872" width="30" height="90.32258064516127"></rect><rect style="stroke: #000000; fill: none;" x="310" y="74.72140762463346" width="30" height="205.27859237536654"></rect><rect style="stroke: #000000; fill: none;" x="364.00000000000006" y="143.147605083089" width="30" height="136.852394916911"></rect><rect style="stroke: #000000; fill: none;" x="418.00000000000006" y="25.454545454545496" width="30" height="254.5454545454545"></rect><rect style="stroke: #000000; fill: none;" x="472" y="134.93646138807432" width="30" height="145.06353861192568"></rect><rect style="stroke: #000000; fill: none;" x="526" y="227.9960899315738" width="30" height="52.00391006842619"></rect></g><g><text x="55" y="290" font-size="10" text-anchor="middle"></text><text x="109" y="290" font-size="10" text-anchor="middle"></text><text x="163" y="290" font-size="10" text-anchor="middle"></text><text x="217.00000000000003" y="290" font-size="10" text-anchor="middle"></text><text x="271" y="290" font-size="10" text-anchor="middle">A</text><text x="325" y="290" font-size="10" text-anchor="middle">B</text><text x="379.00000000000006" y="290" font-size="10" text-anchor="middle"></text><text x="433.00000000000006" y="290" font-size="10" text-anchor="middle"></text><text x="487" y="290" font-size="10" text-anchor="middle"></text><text x="541" y="290" font-size="10" text-anchor="middle"></text></g></svg>