<?xml version='1.0' encoding='utf-8'?><!DOCTYPE svg PUBLIC '-//W3C//DTD SVG 1.1//EN' 'http://www.w3.org/Graphics/SVG/1.1/DTD/svg11.dtd'><svg height="300" width="600"><g><line y1="20" y2="280" x1="20" x2="20" style="stroke: #000000;"></line><text x="0" y="25" font-size="10">100</text><text x="12" y="280" font-size="10">0</text><line x1="20" x2="580" y1="280" y2="280" style="stroke: #000000;"></line><rect style="stroke: #000000; fill: none;" x="40" y="137.5757575757576" width="30" height="142.4242424242424"></rect><rect style="stroke: #000000; fill: none;" x="94" y="25.454545454545467" width="30" height="254.54545454545453"></rect><rect style="stroke: #000000; fill: none;" x="148" y="113.33333333333334" width="30" height="166.66666666666666"></rect><rect style="stroke: #000000; fill: none;" x="202.00000000000003" y="219.39393939393938" width="30" height="60.60606060606061"></rect><rect style="stroke: #000000; fill: none;" x="256" y="107.27272727272728" width="30" height="172.72727272727272"></rect><rect style="stroke: #000000; fill: none;" x="310" y="73.93939393939397" width="30" height="206.06060606060603"></rect><rect style="stroke: #000000; fill: none;" x="364.00000000000006" y="76.969696969697" width="30" height="203.030303030303"></rect><rect style="stroke: #000000; fill: none;" x="418.00000000000006" y="176.969696969697" width="30" height="103.03030303030302"></rect><rect style="stroke: #000000; fill: none;" x="472" y="234.54545454545456" width="30" height="45.45454545454545"></rect><rect style="stroke: #000000; fill: none;" x="526" y="189.0909090909091" width="30" height="90.9090909090909"></rect></g><g><text x="55" y="290" font-size="10" text-anchor="middle"></text><text x="109" y="290" font-size="10" text-anchor="middle">B</text><text x="163" y="290" font-size="10" text-anchor="middle"></text><text x="217.00000000000003" y="290" font-size="10" text-anchor="middle"></text><text x="271" y="290" font-size="10" text-anchor="middle"></text><text x="325" y="290" font-size="10" text-anchor="middle">A</text><text x="379.00000000000006" y="290" font-size="10" text-anchor="middle"></text><text x="433.00000000000006" y="290" font-size="10" text-anchor="middle"></text><text x="487" y="290" font-size="10" text-anchor="middle"></text><text x="541" y="290" font-size="10" text-anchor="middle"></text></g></svg>