<?xml version='1.0' encoding='utf-8'?><!DOCTYPE svg PUBLIC '-//W3C//DTD SVG 1.1//EN' 'http://www.w3.org/Graphics/SVG/1.1/DTD/svg11.dtd'><svg height="300" width="600"><g><line y1="20" y2="280" x1="20" x2="20" style="stroke: #000000;"></line><text x="0" y="25" font-size="10">100</text><text x="12" y="280" font-size="10">0</text><line x1="20" x2="580" y1="280" y2="280" style="stroke: #000000;"></line><rect style="stroke: #000000; fill: none;" x="40" y="183.54066985645937" width="30" height="96.45933014354064"></rect><rect style="stroke: #000000; fill: none;" x="94" y="263.92344497607655" width="30" height="16.07655502392344"></rect><rect style="stroke: #000000; fill: none;" x="148" y="172.82296650717706" width="30" height="107.17703349282293"></rect><rect style="stroke: #000000; fill: none;" x="202.00000000000003" y="97.79904306220101" width="30" height="182.200956937799"></rect><rect style="stroke: #000000; fill: none;" x="256" y="178.18181818181822" width="30" height="101.81818181818178"></rect><rect style="stroke: #000000; fill: none;" x="310" y="25.454545454545524" width="30" height="254.54545454545448"></rect><rect style="stroke: #000000; fill: none;" x="364.00000000000006" y="255.88516746411483" width="30" height="24.11483253588516"></rect><rect style="stroke: #000000; fill: none;" x="418.00000000000006" y="124.59330143540672" width="30" height="155.40669856459328"></rect><rect style="stroke: #000000; fill: none;" x="472" y="196.93779904306223" width="30" height="83.06220095693779"></rect><rect style="stroke: #000000; fill: none;" x="526" y="49.56937799043067" width="30" height="230.43062200956933"></rect></g><g><text x="55" y="290" font-size="10" text-anchor="middle">B</text><text x="109" y="290" font-size="10" text-anchor="middle"></text><text x="163" y="290" font-size="10" text-anchor="middle"></text><text x="217.00000000000003" y="290" font-size="10" text-anchor="middle"></text><text x="271" y="290" font-size="10" text-anchor="middle">A</text><text x="325" y="290" font-size="10" text-anchor="middle"></text><text x="379.00000000000006" y="290" font-size="10" text-anchor="middle"></text><text x="433.00000000000006" y="290" font-size="10" text-anchor="middle"></text><text x="487" y="290" font-size="10" text-anchor="middle"></text><text x="541" y="290" font-size="10" text-anchor="middle"></text></g></svg>