<?xml version='1.0' encoding='utf-8'?><!DOCTYPE svg PUBLIC '-//W3C//DTD SVG 1.1//EN' 'http://www.w3.org/Graphics/SVG/1.1/DTD/svg11.dtd'><svg height="300" width="600"><g><line y1="20" y2="280" x1="20" x2="20" style="stroke: #000000;"></line><text x="0" y="25" font-size="10">100</text><text x="12" y="280" font-size="10">0</text><line x1="20" x2="580" y1="280" y2="280" style="stroke: #000000;"></line><rect style="stroke: #000000; fill: none;" x="40" y="73.00699300699301" width="30" height="206.993006993007"></rect><rect style="stroke: #000000; fill: none;" x="94" y="70.20979020979019" width="30" height="209.79020979020981"></rect><rect style="stroke: #000000; fill: none;" x="148" y="196.08391608391608" width="30" height="83.91608391608392"></rect><rect style="stroke: #000000; fill: none;" x="202.00000000000003" y="215.66433566433568" width="30" height="64.33566433566433"></rect><rect style="stroke: #000000; fill: none;" x="256" y="114.96503496503496" width="30" height="165.03496503496504"></rect><rect style="stroke: #000000; fill: none;" x="310" y="193.28671328671328" width="30" height="86.71328671328672"></rect><rect style="stroke: #000000; fill: none;" x="364.00000000000006" y="190.4895104895105" width="30" height="89.5104895104895"></rect><rect style="stroke: #000000; fill: none;" x="418.00000000000006" y="204.47552447552448" width="30" height="75.52447552447553"></rect><rect style="stroke: #000000; fill: none;" x="472" y="25.454545454545467" width="30" height="254.54545454545453"></rect><rect style="stroke: #000000; fill: none;" x="526" y="134.54545454545456" width="30" height="145.45454545454544"></rect></g><g><text x="55" y="290" font-size="10" text-anchor="middle"></text><text x="109" y="290" font-size="10" text-anchor="middle"></text><text x="163" y="290" font-size="10" text-anchor="middle"></text><text x="217.00000000000003" y="290" font-size="10" text-anchor="middle">B</text><text x="271" y="290" font-size="10" text-anchor="middle"></text><text x="325" y="290" font-size="10" text-anchor="middle"></text><text x="379.00000000000006" y="290" font-size="10" text-anchor="middle"></text><text x="433.00000000000006" y="290" font-size="10" text-anchor="middle">A</text><text x="487" y="290" font-size="10" text-anchor="middle"></text><text x="541" y="290" font-size="10" text-anchor="middle"></text></g></svg>