<?xml version='1.0' encoding='utf-8'?><!DOCTYPE svg PUBLIC '-//W3C//DTD SVG 1.1//EN' 'http://www.w3.org/Graphics/SVG/1.1/DTD/svg11.dtd'><svg height="300" width="600"><g><line y1="20" y2="280" x1="20" x2="20" style="stroke: #000000;"></line><text x="0" y="25" font-size="10">100</text><text x="12" y="280" font-size="10">0</text><line x1="20" x2="580" y1="280" y2="280" style="stroke: #000000;"></line><rect style="stroke: #000000; fill: none;" x="40" y="169.4398530762167" width="7.5" height="110.56014692378328"></rect><rect style="stroke: #000000; fill: none;" x="53.5" y="267.14416896235076" width="7.5" height="12.855831037649219"></rect><rect style="stroke: #000000; fill: none;" x="67" y="172.01101928374655" width="7.5" height="107.98898071625345"></rect><rect style="stroke: #000000; fill: none;" x="80.5" y="100.01836547291094" width="7.5" height="179.98163452708906"></rect><rect style="stroke: #000000; fill: none;" x="94" y="87.1625344352617" width="7.5" height="192.8374655647383"></rect><rect style="stroke: #000000; fill: none;" x="107.5" y="236.29017447199266" width="7.5" height="43.70982552800734"></rect><rect style="stroke: #000000; fill: none;" x="121.00000000000001" y="82.02020202020202" width="7.5" height="197.97979797979798"></rect><rect style="stroke: #000000; fill: none;" x="134.5" y="251.7171717171717" width="7.5" height="28.282828282828284"></rect><rect style="stroke: #000000; fill: none;" x="148" y="56.3085399449036" width="7.5" height="223.6914600550964"></rect><rect style="stroke: #000000; fill: none;" x="161.5" y="79.44903581267218" width="7.5" height="200.55096418732782"></rect><rect style="stroke: #000000; fill: none;" x="175" y="190.00918273645547" width="7.5" height="89.99081726354453"></rect><rect style="stroke: #000000; fill: none;" x="188.5" y="102.58953168044079" width="7.5" height="177.41046831955921"></rect><rect style="stroke: #000000; fill: none;" x="202.00000000000003" y="48.595041322314046" width="7.5" height="231.40495867768595"></rect><rect style="stroke: #000000; fill: none;" x="215.5" y="92.30486685032142" width="7.5" height="187.69513314967858"></rect><rect style="stroke: #000000; fill: none;" x="229.00000000000003" y="125.73002754820936" width="7.5" height="154.26997245179064"></rect><rect style="stroke: #000000; fill: none;" x="242.5" y="84.59136822773186" width="7.5" height="195.40863177226814"></rect><rect style="stroke: #000000; fill: none;" x="256" y="25.454545454545467" width="7.5" height="254.54545454545453"></rect><rect style="stroke: #000000; fill: none;" x="269.5" y="64.0220385674931" width="7.5" height="215.9779614325069"></rect><rect style="stroke: #000000; fill: none;" x="283" y="154.01285583103765" width="7.5" height="125.98714416896235"></rect><rect style="stroke: #000000; fill: none;" x="296.5" y="259.43067033976126" width="7.5" height="20.56932966023875"></rect><rect style="stroke: #000000; fill: none;" x="310" y="43.45270890725436" width="7.5" height="236.54729109274564"></rect><rect style="stroke: #000000; fill: none;" x="323.5" y="213.14967860422405" width="7.5" height="66.85032139577594"></rect><rect style="stroke: #000000; fill: none;" x="337" y="269.71533516988063" width="7.5" height="10.284664830119375"></rect><rect style="stroke: #000000; fill: none;" x="350.50000000000006" y="118.01652892561984" width="7.5" height="161.98347107438016"></rect><rect style="stroke: #000000; fill: none;" x="364.00000000000006" y="192.5803489439853" width="7.5" height="87.41965105601469"></rect><rect style="stroke: #000000; fill: none;" x="377.5" y="143.7281910009183" width="7.5" height="136.2718089990817"></rect><rect style="stroke: #000000; fill: none;" x="391" y="164.29752066115702" width="7.5" height="115.70247933884298"></rect><rect style="stroke: #000000; fill: none;" x="404.5" y="184.8668503213958" width="7.5" height="95.13314967860421"></rect><rect style="stroke: #000000; fill: none;" x="418.00000000000006" y="133.44352617079892" width="7.5" height="146.55647382920108"></rect><rect style="stroke: #000000; fill: none;" x="431.50000000000006" y="187.43801652892563" width="7.5" height="92.56198347107438"></rect><rect style="stroke: #000000; fill: none;" x="445" y="94.87603305785123" width="7.5" height="185.12396694214877"></rect><rect style="stroke: #000000; fill: none;" x="458.5" y="151.4416896235078" width="7.5" height="128.5583103764922"></rect><rect style="stroke: #000000; fill: none;" x="472" y="40.88154269972452" width="7.5" height="239.11845730027548"></rect><rect style="stroke: #000000; fill: none;" x="485.50000000000006" y="66.59320477502297" width="7.5" height="213.40679522497703"></rect><rect style="stroke: #000000; fill: none;" x="499.00000000000006" y="69.16437098255281" width="7.5" height="210.8356290174472"></rect><rect style="stroke: #000000; fill: none;" x="512.5" y="254.28833792470158" width="7.5" height="25.711662075298438"></rect><rect style="stroke: #000000; fill: none;" x="526" y="228.57667584940313" width="7.5" height="51.423324150596876"></rect><rect style="stroke: #000000; fill: none;" x="539.5" y="112.87419651056015" width="7.5" height="167.12580348943985"></rect><rect style="stroke: #000000; fill: none;" x="553" y="249.1460055096419" width="7.5" height="30.853994490358126"></rect><rect style="stroke: #000000; fill: none;" x="566.5" y="182.29568411386595" width="7.5" height="97.70431588613407"></rect></g><g><text x="43.75" y="290" font-size="10" text-anchor="middle">B</text><text x="57.25" y="290" font-size="10" text-anchor="middle"></text><text x="70.75" y="290" font-size="10" text-anchor="middle"></text><text x="84.25" y="290" font-size="10" text-anchor="middle"></text><text x="97.75" y="290" font-size="10" text-anchor="middle"></text><text x="111.25" y="290" font-size="10" text-anchor="middle"></text><text x="124.75000000000001" y="290" font-size="10" text-anchor="middle"></text><text x="138.25" y="290" font-size="10" text-anchor="middle"></text><text x="151.75" y="290" font-size="10" text-anchor="middle"></text><text x="165.25" y="290" font-size="10" text-anchor="middle"></text><text x="178.75" y="290" font-size="10" text-anchor="middle"></text><text x="192.25" y="290" font-size="10" text-anchor="middle"></text><text x="205.75000000000003" y="290" font-size="10" text-anchor="middle"></text><text x="219.25" y="290" font-size="10" text-anchor="middle"></text><text x="232.75000000000003" y="290" font-size="10" text-anchor="middle"></text><text x="246.25" y="290" font-size="10" text-anchor="middle"></text><text x="259.75" y="290" font-size="10" text-anchor="middle"></text><text x="273.25" y="290" font-size="10" text-anchor="middle"></text><text x="286.75" y="290" font-size="10" text-anchor="middle"></text><text x="300.25" y="290" font-size="10" text-anchor="middle"></text><text x="313.75" y="290" font-size="10" text-anchor="middle"></text><text x="327.25" y="290" font-size="10" text-anchor="middle">A</text><text x="340.75" y="290" font-size="10" text-anchor="middle"></text><text x="354.25000000000006" y="290" font-size="10" text-anchor="middle"></text><text x="367.75000000000006" y="290" font-size="10" text-anchor="middle"></text><text x="381.25" y="290" font-size="10" text-anchor="middle"></text><text x="394.75" y="290" font-size="10" text-anchor="middle"></text><text x="408.25" y="290" font-size="10" text-anchor="middle"></text><text x="421.75000000000006" y="290" font-size="10" text-anchor="middle"></text><text x="435.25000000000006" y="290" font-size="10" text-anchor="middle"></text><text x="448.75" y="290" font-size="10" text-anchor="middle"></text><text x="462.25" y="290" font-size="10" text-anchor="middle"></text><text x="475.75" y="290" font-size="10" text-anchor="middle"></text><text x="489.25000000000006" y="290" font-size="10" text-anchor="middle"></text><text x="502.75000000000006" y="290" font-size="10" text-anchor="middle"></text><text x="516.25" y="290" font-size="10" text-anchor="middle"></text><text x="529.75" y="290" font-size="10" text-anchor="middle"></text><text x="543.25" y="290" font-size="10" text-anchor="middle"></text><text x="556.75" y="290" font-size="10" text-anchor="middle"></text><text x="570.25" y="290" font-size="10" text-anchor="middle"></text></g></svg>