<?xml version='1.0' encoding='utf-8'?><!DOCTYPE svg PUBLIC '-//W3C//DTD SVG 1.1//EN' 'http://www.w3.org/Graphics/SVG/1.1/DTD/svg11.dtd'><svg height="300" width="600"><g><line y1="20" y2="280" x1="20" x2="20" style="stroke: #000000;"></line><text x="0" y="25" font-size="10">100</text><text x="12" y="280" font-size="10">0</text><line x1="20" x2="580" y1="280" y2="280" style="stroke: #000000;"></line><rect style="stroke: #000000; fill: none;" x="40" y="77.52066115702482" width="30" height="202.47933884297518"></rect><rect style="stroke: #000000; fill: none;" x="94" y="242.39669421487605" width="30" height="37.60330578512396"></rect><rect style="stroke: #000000; fill: none;" x="148" y="25.454545454545496" width="30" height="254.5454545454545"></rect><rect style="stroke: #000000; fill: none;" x="202.00000000000003" y="34.1322314049587" width="30" height="245.8677685950413"></rect><rect style="stroke: #000000; fill: none;" x="256" y="112.23140495867773" width="30" height="167.76859504132227"></rect><rect style="stroke: #000000; fill: none;" x="310" y="57.27272727272731" width="30" height="222.7272727272727"></rect><rect style="stroke: #000000; fill: none;" x="364.00000000000006" y="262.64462809917353" width="30" height="17.355371900826444"></rect><rect style="stroke: #000000; fill: none;" x="418.00000000000006" y="256.8595041322314" width="30" height="23.140495867768593"></rect><rect style="stroke: #000000; fill: none;" x="472" y="80.41322314049589" width="30" height="199.5867768595041"></rect><rect style="stroke: #000000; fill: none;" x="526" y="109.33884297520663" width="30" height="170.66115702479337"></rect></g><g><text x="55" y="290" font-size="10" text-anchor="middle">B</text><text x="109" y="290" font-size="10" text-anchor="middle"></text><text x="163" y="290" font-size="10" text-anchor="middle"></text><text x="217.00000000000003" y="290" font-size="10" text-anchor="middle"></text><text x="271" y="290" font-size="10" text-anchor="middle"></text><text x="325" y="290" font-size="10" text-anchor="middle"></text><text x="379.00000000000006" y="290" font-size="10" text-anchor="middle">A</text><text x="433.00000000000006" y="290" font-size="10" text-anchor="middle"></text><text x="487" y="290" font-size="10" text-anchor="middle"></text><text x="541" y="290" font-size="10" text-anchor="middle"></text></g></svg>