<?xml version='1.0' encoding='utf-8'?><!DOCTYPE svg PUBLIC '-//W3C//DTD SVG 1.1//EN' 'http://www.w3.org/Graphics/SVG/1.1/DTD/svg11.dtd'><svg height="300" width="600"><g><line y1="20" y2="280" x1="20" x2="20" style="stroke: #000000;"></line><text x="0" y="25" font-size="10">100</text><text x="12" y="280" font-size="10">0</text><line x1="20" x2="580" y1="280" y2="280" style="stroke: #000000;"></line><rect style="stroke: #000000; fill: none;" x="40" y="106.80412371134022" width="30" height="173.19587628865978"></rect><rect style="stroke: #000000; fill: none;" x="94" y="188.15370196813495" width="30" height="91.84629803186503"></rect><rect style="stroke: #000000; fill: none;" x="148" y="198.65042174320524" width="30" height="81.34957825679476"></rect><rect style="stroke: #000000; fill: none;" x="202.00000000000003" y="62.19306466729148" width="30" height="217.80693533270852"></rect><rect style="stroke: #000000; fill: none;" x="256" y="25.454545454545467" width="30" height="254.54545454545453"></rect><rect style="stroke: #000000; fill: none;" x="310" y="93.68322399250238" width="30" height="186.31677600749762"></rect><rect style="stroke: #000000; fill: none;" x="364.00000000000006" y="235.38894095595128" width="30" height="44.61105904404873"></rect><rect style="stroke: #000000; fill: none;" x="418.00000000000006" y="35.95126522961576" width="30" height="244.04873477038424"></rect><rect style="stroke: #000000; fill: none;" x="472" y="222.2680412371134" width="30" height="57.73195876288659"></rect><rect style="stroke: #000000; fill: none;" x="526" y="41.19962511715093" width="30" height="238.80037488284907"></rect></g><g><text x="55" y="290" font-size="10" text-anchor="middle"></text><text x="109" y="290" font-size="10" text-anchor="middle"></text><text x="163" y="290" font-size="10" text-anchor="middle"></text><text x="217.00000000000003" y="290" font-size="10" text-anchor="middle">B</text><text x="271" y="290" font-size="10" text-anchor="middle"></text><text x="325" y="290" font-size="10" text-anchor="middle"></text><text x="379.00000000000006" y="290" font-size="10" text-anchor="middle"></text><text x="433.00000000000006" y="290" font-size="10" text-anchor="middle">A</text><text x="487" y="290" font-size="10" text-anchor="middle"></text><text x="541" y="290" font-size="10" text-anchor="middle"></text></g></svg>