<?xml version='1.0' encoding='utf-8'?><!DOCTYPE svg PUBLIC '-//W3C//DTD SVG 1.1//EN' 'http://www.w3.org/Graphics/SVG/1.1/DTD/svg11.dtd'><svg height="300" width="600"><g><line y1="20" y2="280" x1="20" x2="20" style="stroke: #000000;"></line><text x="0" y="25" font-size="10">100</text><text x="12" y="280" font-size="10">0</text><line x1="20" x2="580" y1="280" y2="280" style="stroke: #000000;"></line><rect style="stroke: #000000; fill: none;" x="40" y="259.2207792207792" width="7.5" height="20.779220779220775"></rect><rect style="stroke: #000000; fill: none;" x="53.5" y="155.32467532467535" width="7.5" height="124.67532467532466"></rect><rect style="stroke: #000000; fill: none;" x="67" y="56.62337662337666" width="7.5" height="223.37662337662334"></rect><rect style="stroke: #000000; fill: none;" x="80.5" y="100.7792207792208" width="7.5" height="179.2207792207792"></rect><rect style="stroke: #000000; fill: none;" x="94" y="212.46753246753246" width="7.5" height="67.53246753246752"></rect><rect style="stroke: #000000; fill: none;" x="107.5" y="238.44155844155847" width="7.5" height="41.55844155844155"></rect><rect style="stroke: #000000; fill: none;" x="121.00000000000001" y="194.2857142857143" width="7.5" height="85.7142857142857"></rect><rect style="stroke: #000000; fill: none;" x="134.5" y="186.49350649350652" width="7.5" height="93.50649350649348"></rect><rect style="stroke: #000000; fill: none;" x="148" y="87.79220779220782" width="7.5" height="192.20779220779218"></rect><rect style="stroke: #000000; fill: none;" x="161.5" y="105.97402597402598" width="7.5" height="174.02597402597402"></rect><rect style="stroke: #000000; fill: none;" x="175" y="61.81818181818184" width="7.5" height="218.18181818181816"></rect><rect style="stroke: #000000; fill: none;" x="188.5" y="129.35064935064938" width="7.5" height="150.64935064935062"></rect><rect style="stroke: #000000; fill: none;" x="202.00000000000003" y="209.87012987012986" width="7.5" height="70.12987012987013"></rect><rect style="stroke: #000000; fill: none;" x="215.5" y="241.03896103896102" width="7.5" height="38.96103896103896"></rect><rect style="stroke: #000000; fill: none;" x="229.00000000000003" y="191.6883116883117" width="7.5" height="88.3116883116883"></rect><rect style="stroke: #000000; fill: none;" x="242.5" y="196.88311688311688" width="7.5" height="83.1168831168831"></rect><rect style="stroke: #000000; fill: none;" x="256" y="25.454545454545496" width="7.5" height="254.5454545454545"></rect><rect style="stroke: #000000; fill: none;" x="269.5" y="98.18181818181822" width="7.5" height="181.81818181818178"></rect><rect style="stroke: #000000; fill: none;" x="283" y="220.25974025974028" width="7.5" height="59.74025974025973"></rect><rect style="stroke: #000000; fill: none;" x="296.5" y="235.84415584415586" width="7.5" height="44.15584415584415"></rect><rect style="stroke: #000000; fill: none;" x="310" y="80.00000000000003" width="7.5" height="199.99999999999997"></rect><rect style="stroke: #000000; fill: none;" x="323.5" y="251.42857142857144" width="7.5" height="28.57142857142857"></rect><rect style="stroke: #000000; fill: none;" x="337" y="199.4805194805195" width="7.5" height="80.51948051948051"></rect><rect style="stroke: #000000; fill: none;" x="350.50000000000006" y="222.85714285714286" width="7.5" height="57.14285714285714"></rect><rect style="stroke: #000000; fill: none;" x="364.00000000000006" y="48.83116883116887" width="7.5" height="231.16883116883113"></rect><rect style="stroke: #000000; fill: none;" x="377.5" y="108.57142857142861" width="7.5" height="171.4285714285714"></rect><rect style="stroke: #000000; fill: none;" x="391" y="269.61038961038963" width="7.5" height="10.389610389610388"></rect><rect style="stroke: #000000; fill: none;" x="404.5" y="189.09090909090912" width="7.5" height="90.90909090909089"></rect><rect style="stroke: #000000; fill: none;" x="418.00000000000006" y="134.54545454545456" width="7.5" height="145.45454545454544"></rect><rect style="stroke: #000000; fill: none;" x="431.50000000000006" y="163.11688311688312" width="7.5" height="116.88311688311687"></rect><rect style="stroke: #000000; fill: none;" x="445" y="215.06493506493507" width="7.5" height="64.93506493506493"></rect><rect style="stroke: #000000; fill: none;" x="458.5" y="248.83116883116884" width="7.5" height="31.168831168831165"></rect><rect style="stroke: #000000; fill: none;" x="472" y="261.8181818181818" width="7.5" height="18.18181818181818"></rect><rect style="stroke: #000000; fill: none;" x="485.50000000000006" y="124.15584415584416" width="7.5" height="155.84415584415584"></rect><rect style="stroke: #000000; fill: none;" x="499.00000000000006" y="168.31168831168833" width="7.5" height="111.68831168831167"></rect><rect style="stroke: #000000; fill: none;" x="512.5" y="176.10389610389615" width="7.5" height="103.89610389610387"></rect><rect style="stroke: #000000; fill: none;" x="526" y="111.16883116883119" width="7.5" height="168.8311688311688"></rect><rect style="stroke: #000000; fill: none;" x="539.5" y="139.74025974025975" width="7.5" height="140.25974025974025"></rect><rect style="stroke: #000000; fill: none;" x="553" y="264.4155844155844" width="7.5" height="15.584415584415583"></rect><rect style="stroke: #000000; fill: none;" x="566.5" y="233.24675324675326" width="7.5" height="46.75324675324674"></rect></g><g><text x="43.75" y="290" font-size="10" text-anchor="middle"></text><text x="57.25" y="290" font-size="10" text-anchor="middle"></text><text x="70.75" y="290" font-size="10" text-anchor="middle"></text><text x="84.25" y="290" font-size="10" text-anchor="middle"></text><text x="97.75" y="290" font-size="10" text-anchor="middle"></text><text x="111.25" y="290" font-size="10" text-anchor="middle"></text><text x="124.75000000000001" y="290" font-size="10" text-anchor="middle"></text><text x="138.25" y="290" font-size="10" text-anchor="middle"></text><text x="151.75" y="290" font-size="10" text-anchor="middle"></text><text x="165.25" y="290" font-size="10" text-anchor="middle"></text><text x="178.75" y="290" font-size="10" text-anchor="middle"></text><text x="192.25" y="290" font-size="10" text-anchor="middle"></text><text x="205.75000000000003" y="290" font-size="10" text-anchor="middle"></text><text x="219.25" y="290" font-size="10" text-anchor="middle"></text><text x="232.75000000000003" y="290" font-size="10" text-anchor="middle"></text><text x="246.25" y="290" font-size="10" text-anchor="middle"></text><text x="259.75" y="290" font-size="10" text-anchor="middle"></text><text x="273.25" y="290" font-size="10" text-anchor="middle">B</text><text x="286.75" y="290" font-size="10" text-anchor="middle"></text><text x="300.25" y="290" font-size="10" text-anchor="middle"></text><text x="313.75" y="290" font-size="10" text-anchor="middle"></text><text x="327.25" y="290" font-size="10" text-anchor="middle"></text><text x="340.75" y="290" font-size="10" text-anchor="middle"></text><text x="354.25000000000006" y="290" font-size="10" text-anchor="middle"></text><text x="367.75000000000006" y="290" font-size="10" text-anchor="middle"></text><text x="381.25" y="290" font-size="10" text-anchor="middle"></text><text x="394.75" y="290" font-size="10" text-anchor="middle"></text><text x="408.25" y="290" font-size="10" text-anchor="middle"></text><text x="421.75000000000006" y="290" font-size="10" text-anchor="middle"></text><text x="435.25000000000006" y="290" font-size="10" text-anchor="middle"></text><text x="448.75" y="290" font-size="10" text-anchor="middle"></text><text x="462.25" y="290" font-size="10" text-anchor="middle"></text><text x="475.75" y="290" font-size="10" text-anchor="middle"></text><text x="489.25000000000006" y="290" font-size="10" text-anchor="middle"></text><text x="502.75000000000006" y="290" font-size="10" text-anchor="middle"></text><text x="516.25" y="290" font-size="10" text-anchor="middle"></text><text x="529.75" y="290" font-size="10" text-anchor="middle"></text><text x="543.25" y="290" font-size="10" text-anchor="middle"></text><text x="556.75" y="290" font-size="10" text-anchor="middle">A</text><text x="570.25" y="290" font-size="10" text-anchor="middle"></text></g></svg>