<?xml version='1.0' encoding='utf-8'?><!DOCTYPE svg PUBLIC '-//W3C//DTD SVG 1.1//EN' 'http://www.w3.org/Graphics/SVG/1.1/DTD/svg11.dtd'><svg height="300" width="600"><g><line y1="20" y2="280" x1="20" x2="20" style="stroke: #000000;"></line><text x="0" y="25" font-size="10">100</text><text x="12" y="280" font-size="10">0</text><line x1="20" x2="580" y1="280" y2="280" style="stroke: #000000;"></line><rect style="stroke: #000000; fill: none;" x="40" y="84.19580419580421" width="30" height="195.80419580419579"></rect><rect style="stroke: #000000; fill: none;" x="94" y="70.20979020979019" width="30" height="209.79020979020981"></rect><rect style="stroke: #000000; fill: none;" x="148" y="131.74825174825176" width="30" height="148.25174825174824"></rect><rect style="stroke: #000000; fill: none;" x="202.00000000000003" y="25.454545454545467" width="30" height="254.54545454545453"></rect><rect style="stroke: #000000; fill: none;" x="256" y="117.76223776223776" width="30" height="162.23776223776224"></rect><rect style="stroke: #000000; fill: none;" x="310" y="187.69230769230768" width="30" height="92.3076923076923"></rect><rect style="stroke: #000000; fill: none;" x="364.00000000000006" y="252.02797202797206" width="30" height="27.972027972027973"></rect><rect style="stroke: #000000; fill: none;" x="418.00000000000006" y="73.00699300699301" width="30" height="206.993006993007"></rect><rect style="stroke: #000000; fill: none;" x="472" y="120.55944055944056" width="30" height="159.44055944055944"></rect><rect style="stroke: #000000; fill: none;" x="526" y="151.32867132867133" width="30" height="128.67132867132867"></rect></g><g><text x="55" y="290" font-size="10" text-anchor="middle"></text><text x="109" y="290" font-size="10" text-anchor="middle">B</text><text x="163" y="290" font-size="10" text-anchor="middle"></text><text x="217.00000000000003" y="290" font-size="10" text-anchor="middle"></text><text x="271" y="290" font-size="10" text-anchor="middle"></text><text x="325" y="290" font-size="10" text-anchor="middle">A</text><text x="379.00000000000006" y="290" font-size="10" text-anchor="middle"></text><text x="433.00000000000006" y="290" font-size="10" text-anchor="middle"></text><text x="487" y="290" font-size="10" text-anchor="middle"></text><text x="541" y="290" font-size="10" text-anchor="middle"></text></g></svg>