<?xml version='1.0' encoding='utf-8'?><!DOCTYPE svg PUBLIC '-//W3C//DTD SVG 1.1//EN' 'http://www.w3.org/Graphics/SVG/1.1/DTD/svg11.dtd'><svg height="300" width="600"><g><line y1="20" y2="280" x1="20" x2="20" style="stroke: #000000;"></line><text x="0" y="25" font-size="10">100</text><text x="12" y="280" font-size="10">0</text><line x1="20" x2="580" y1="280" y2="280" style="stroke: #000000;"></line><rect style="stroke: #000000; fill: none;" x="40" y="215.72084481175392" width="30" height="64.2791551882461"></rect><rect style="stroke: #000000; fill: none;" x="94" y="256.8595041322314" width="30" height="23.140495867768596"></rect><rect style="stroke: #000000; fill: none;" x="148" y="100.01836547291094" width="30" height="179.98163452708906"></rect><rect style="stroke: #000000; fill: none;" x="202.00000000000003" y="272.28650137741045" width="30" height="7.7134986225895315"></rect><rect style="stroke: #000000; fill: none;" x="256" y="125.73002754820936" width="30" height="154.26997245179064"></rect><rect style="stroke: #000000; fill: none;" x="310" y="38.31037649219468" width="30" height="241.68962350780532"></rect><rect style="stroke: #000000; fill: none;" x="364.00000000000006" y="25.454545454545467" width="30" height="254.54545454545453"></rect><rect style="stroke: #000000; fill: none;" x="418.00000000000006" y="241.43250688705234" width="30" height="38.56749311294766"></rect><rect style="stroke: #000000; fill: none;" x="472" y="156.5840220385675" width="30" height="123.4159779614325"></rect><rect style="stroke: #000000; fill: none;" x="526" y="205.43617998163452" width="30" height="74.56382001836548"></rect></g><g><text x="55" y="290" font-size="10" text-anchor="middle">B</text><text x="109" y="290" font-size="10" text-anchor="middle"></text><text x="163" y="290" font-size="10" text-anchor="middle"></text><text x="217.00000000000003" y="290" font-size="10" text-anchor="middle"></text><text x="271" y="290" font-size="10" text-anchor="middle">A</text><text x="325" y="290" font-size="10" text-anchor="middle"></text><text x="379.00000000000006" y="290" font-size="10" text-anchor="middle"></text><text x="433.00000000000006" y="290" font-size="10" text-anchor="middle"></text><text x="487" y="290" font-size="10" text-anchor="middle"></text><text x="541" y="290" font-size="10" text-anchor="middle"></text></g></svg>