<?xml version='1.0' encoding='utf-8'?><!DOCTYPE svg PUBLIC '-//W3C//DTD SVG 1.1//EN' 'http://www.w3.org/Graphics/SVG/1.1/DTD/svg11.dtd'><svg height="300" width="600"><g><line y1="20" y2="280" x1="20" x2="20" style="stroke: #000000;"></line><text x="0" y="25" font-size="10">100</text><text x="12" y="280" font-size="10">0</text><line x1="20" x2="580" y1="280" y2="280" style="stroke: #000000;"></line><rect style="stroke: #000000; fill: none;" x="40" y="215.06493506493507" width="30" height="64.93506493506493"></rect><rect style="stroke: #000000; fill: none;" x="94" y="264.4155844155844" width="30" height="15.584415584415583"></rect><rect style="stroke: #000000; fill: none;" x="148" y="85.19480519480521" width="30" height="194.8051948051948"></rect><rect style="stroke: #000000; fill: none;" x="202.00000000000003" y="103.3766233766234" width="30" height="176.6233766233766"></rect><rect style="stroke: #000000; fill: none;" x="256" y="82.59740259740263" width="30" height="197.40259740259737"></rect><rect style="stroke: #000000; fill: none;" x="310" y="181.2987012987013" width="30" height="98.70129870129868"></rect><rect style="stroke: #000000; fill: none;" x="364.00000000000006" y="25.454545454545496" width="30" height="254.5454545454545"></rect><rect style="stroke: #000000; fill: none;" x="418.00000000000006" y="225.45454545454547" width="30" height="54.54545454545454"></rect><rect style="stroke: #000000; fill: none;" x="472" y="259.2207792207792" width="30" height="20.779220779220775"></rect><rect style="stroke: #000000; fill: none;" x="526" y="256.62337662337666" width="30" height="23.37662337662337"></rect></g><g><text x="55" y="290" font-size="10" text-anchor="middle">B</text><text x="109" y="290" font-size="10" text-anchor="middle"></text><text x="163" y="290" font-size="10" text-anchor="middle"></text><text x="217.00000000000003" y="290" font-size="10" text-anchor="middle"></text><text x="271" y="290" font-size="10" text-anchor="middle"></text><text x="325" y="290" font-size="10" text-anchor="middle">A</text><text x="379.00000000000006" y="290" font-size="10" text-anchor="middle"></text><text x="433.00000000000006" y="290" font-size="10" text-anchor="middle"></text><text x="487" y="290" font-size="10" text-anchor="middle"></text><text x="541" y="290" font-size="10" text-anchor="middle"></text></g></svg>