<?xml version='1.0' encoding='utf-8'?><!DOCTYPE svg PUBLIC '-//W3C//DTD SVG 1.1//EN' 'http://www.w3.org/Graphics/SVG/1.1/DTD/svg11.dtd'><svg height="300" width="600"><g><line y1="20" y2="280" x1="20" x2="20" style="stroke: #000000;"></line><text x="0" y="25" font-size="10">100</text><text x="12" y="280" font-size="10">0</text><line x1="20" x2="580" y1="280" y2="280" style="stroke: #000000;"></line><rect style="stroke: #000000; fill: none;" x="40" y="250.7419017763845" width="30" height="29.258098223615466"></rect><rect style="stroke: #000000; fill: none;" x="94" y="139.56112852664577" width="30" height="140.43887147335423"></rect><rect style="stroke: #000000; fill: none;" x="148" y="25.454545454545467" width="30" height="254.54545454545453"></rect><rect style="stroke: #000000; fill: none;" x="202.00000000000003" y="218.55799373040753" width="30" height="61.442006269592476"></rect><rect style="stroke: #000000; fill: none;" x="256" y="133.7095088819227" width="30" height="146.2904911180773"></rect><rect style="stroke: #000000; fill: none;" x="310" y="265.3709508881923" width="30" height="14.629049111807733"></rect><rect style="stroke: #000000; fill: none;" x="364.00000000000006" y="31.306165099268526" width="30" height="248.69383490073147"></rect><rect style="stroke: #000000; fill: none;" x="418.00000000000006" y="54.7126436781609" width="30" height="225.2873563218391"></rect><rect style="stroke: #000000; fill: none;" x="472" y="244.89028213166142" width="30" height="35.10971786833856"></rect><rect style="stroke: #000000; fill: none;" x="526" y="192.22570532915358" width="30" height="87.7742946708464"></rect></g><g><text x="55" y="290" font-size="10" text-anchor="middle"></text><text x="109" y="290" font-size="10" text-anchor="middle"></text><text x="163" y="290" font-size="10" text-anchor="middle">B</text><text x="217.00000000000003" y="290" font-size="10" text-anchor="middle"></text><text x="271" y="290" font-size="10" text-anchor="middle"></text><text x="325" y="290" font-size="10" text-anchor="middle"></text><text x="379.00000000000006" y="290" font-size="10" text-anchor="middle"></text><text x="433.00000000000006" y="290" font-size="10" text-anchor="middle"></text><text x="487" y="290" font-size="10" text-anchor="middle">A</text><text x="541" y="290" font-size="10" text-anchor="middle"></text></g></svg>