<?xml version='1.0' encoding='utf-8'?><!DOCTYPE svg PUBLIC '-//W3C//DTD SVG 1.1//EN' 'http://www.w3.org/Graphics/SVG/1.1/DTD/svg11.dtd'><svg height="300" width="600"><g><line y1="20" y2="280" x1="20" x2="20" style="stroke: #000000;"></line><text x="0" y="25" font-size="10">100</text><text x="12" y="280" font-size="10">0</text><line x1="20" x2="580" y1="280" y2="280" style="stroke: #000000;"></line><rect style="stroke: #000000; fill: none;" x="40" y="175.9921798631476" width="30" height="104.00782013685237"></rect><rect style="stroke: #000000; fill: none;" x="94" y="156.83284457478007" width="30" height="123.16715542521993"></rect><rect style="stroke: #000000; fill: none;" x="148" y="91.1436950146628" width="30" height="188.8563049853372"></rect><rect style="stroke: #000000; fill: none;" x="202.00000000000003" y="143.147605083089" width="30" height="136.852394916911"></rect><rect style="stroke: #000000; fill: none;" x="256" y="25.454545454545496" width="30" height="254.5454545454545"></rect><rect style="stroke: #000000; fill: none;" x="310" y="41.876832844574835" width="30" height="238.12316715542516"></rect><rect style="stroke: #000000; fill: none;" x="364.00000000000006" y="211.5738025415445" width="30" height="68.4261974584555"></rect><rect style="stroke: #000000; fill: none;" x="418.00000000000006" y="181.46627565982408" width="30" height="98.53372434017592"></rect><rect style="stroke: #000000; fill: none;" x="472" y="230.73313782991204" width="30" height="49.26686217008796"></rect><rect style="stroke: #000000; fill: none;" x="526" y="271.78885630498536" width="30" height="8.21114369501466"></rect></g><g><text x="55" y="290" font-size="10" text-anchor="middle">A</text><text x="109" y="290" font-size="10" text-anchor="middle"></text><text x="163" y="290" font-size="10" text-anchor="middle"></text><text x="217.00000000000003" y="290" font-size="10" text-anchor="middle"></text><text x="271" y="290" font-size="10" text-anchor="middle"></text><text x="325" y="290" font-size="10" text-anchor="middle"></text><text x="379.00000000000006" y="290" font-size="10" text-anchor="middle">B</text><text x="433.00000000000006" y="290" font-size="10" text-anchor="middle"></text><text x="487" y="290" font-size="10" text-anchor="middle"></text><text x="541" y="290" font-size="10" text-anchor="middle"></text></g></svg>