<?xml version='1.0' encoding='utf-8'?><!DOCTYPE svg PUBLIC '-//W3C//DTD SVG 1.1//EN' 'http://www.w3.org/Graphics/SVG/1.1/DTD/svg11.dtd'><svg height="300" width="600"><g><line y1="20" y2="280" x1="20" x2="20" style="stroke: #000000;"></line><text x="0" y="25" font-size="10">100</text><text x="12" y="280" font-size="10">0</text><line x1="20" x2="580" y1="280" y2="280" style="stroke: #000000;"></line><rect style="stroke: #000000; fill: none;" x="40" y="35.739210284664836" width="30" height="244.26078971533516"></rect><rect style="stroke: #000000; fill: none;" x="94" y="215.72084481175392" width="30" height="64.2791551882461"></rect><rect style="stroke: #000000; fill: none;" x="148" y="133.44352617079892" width="30" height="146.55647382920108"></rect><rect style="stroke: #000000; fill: none;" x="202.00000000000003" y="118.01652892561984" width="30" height="161.98347107438016"></rect><rect style="stroke: #000000; fill: none;" x="256" y="148.87052341597797" width="30" height="131.12947658402203"></rect><rect style="stroke: #000000; fill: none;" x="310" y="105.16069788797063" width="30" height="174.83930211202937"></rect><rect style="stroke: #000000; fill: none;" x="364.00000000000006" y="179.72451790633608" width="30" height="100.27548209366391"></rect><rect style="stroke: #000000; fill: none;" x="418.00000000000006" y="238.86134067952253" width="30" height="41.1386593204775"></rect><rect style="stroke: #000000; fill: none;" x="472" y="136.01469237832876" width="30" height="143.98530762167124"></rect><rect style="stroke: #000000; fill: none;" x="526" y="25.454545454545467" width="30" height="254.54545454545453"></rect></g><g><text x="55" y="290" font-size="10" text-anchor="middle"></text><text x="109" y="290" font-size="10" text-anchor="middle"></text><text x="163" y="290" font-size="10" text-anchor="middle"></text><text x="217.00000000000003" y="290" font-size="10" text-anchor="middle"></text><text x="271" y="290" font-size="10" text-anchor="middle"></text><text x="325" y="290" font-size="10" text-anchor="middle">A</text><text x="379.00000000000006" y="290" font-size="10" text-anchor="middle"></text><text x="433.00000000000006" y="290" font-size="10" text-anchor="middle"></text><text x="487" y="290" font-size="10" text-anchor="middle"></text><text x="541" y="290" font-size="10" text-anchor="middle">B</text></g></svg>