<?xml version='1.0' encoding='utf-8'?><!DOCTYPE svg PUBLIC '-//W3C//DTD SVG 1.1//EN' 'http://www.w3.org/Graphics/SVG/1.1/DTD/svg11.dtd'><svg height="300" width="600"><g><line y1="20" y2="280" x1="20" x2="20" style="stroke: #000000;"></line><text x="0" y="25" font-size="10">100</text><text x="12" y="280" font-size="10">0</text><line x1="20" x2="580" y1="280" y2="280" style="stroke: #000000;"></line><rect style="stroke: #000000; fill: none;" x="40" y="145.0909090909091" width="30" height="134.9090909090909"></rect><rect style="stroke: #000000; fill: none;" x="94" y="180.72727272727272" width="30" height="99.27272727272728"></rect><rect style="stroke: #000000; fill: none;" x="148" y="259.6363636363636" width="30" height="20.363636363636363"></rect><rect style="stroke: #000000; fill: none;" x="202.00000000000003" y="56.00000000000003" width="30" height="223.99999999999997"></rect><rect style="stroke: #000000; fill: none;" x="256" y="25.454545454545467" width="30" height="254.54545454545453"></rect><rect style="stroke: #000000; fill: none;" x="310" y="190.9090909090909" width="30" height="89.0909090909091"></rect><rect style="stroke: #000000; fill: none;" x="364.00000000000006" y="274.90909090909093" width="30" height="5.090909090909091"></rect><rect style="stroke: #000000; fill: none;" x="418.00000000000006" y="101.81818181818181" width="30" height="178.1818181818182"></rect><rect style="stroke: #000000; fill: none;" x="472" y="160.36363636363637" width="30" height="119.63636363636363"></rect><rect style="stroke: #000000; fill: none;" x="526" y="91.63636363636363" width="30" height="188.36363636363637"></rect></g><g><text x="55" y="290" font-size="10" text-anchor="middle"></text><text x="109" y="290" font-size="10" text-anchor="middle">B</text><text x="163" y="290" font-size="10" text-anchor="middle"></text><text x="217.00000000000003" y="290" font-size="10" text-anchor="middle"></text><text x="271" y="290" font-size="10" text-anchor="middle"></text><text x="325" y="290" font-size="10" text-anchor="middle"></text><text x="379.00000000000006" y="290" font-size="10" text-anchor="middle"></text><text x="433.00000000000006" y="290" font-size="10" text-anchor="middle">A</text><text x="487" y="290" font-size="10" text-anchor="middle"></text><text x="541" y="290" font-size="10" text-anchor="middle"></text></g></svg>