<?xml version='1.0' encoding='utf-8'?><!DOCTYPE svg PUBLIC '-//W3C//DTD SVG 1.1//EN' 'http://www.w3.org/Graphics/SVG/1.1/DTD/svg11.dtd'><svg height="300" width="600"><g><line y1="20" y2="280" x1="20" x2="20" style="stroke: #000000;"></line><text x="0" y="25" font-size="10">100</text><text x="12" y="280" font-size="10">0</text><line x1="20" x2="580" y1="280" y2="280" style="stroke: #000000;"></line><rect style="stroke: #000000; fill: none;" x="40" y="25.454545454545496" width="30" height="254.5454545454545"></rect><rect style="stroke: #000000; fill: none;" x="94" y="171.2878787878788" width="30" height="108.71212121212119"></rect><rect style="stroke: #000000; fill: none;" x="148" y="179.24242424242425" width="30" height="100.75757575757575"></rect><rect style="stroke: #000000; fill: none;" x="202.00000000000003" y="237.57575757575756" width="30" height="42.424242424242415"></rect><rect style="stroke: #000000; fill: none;" x="256" y="147.42424242424244" width="30" height="132.57575757575756"></rect><rect style="stroke: #000000; fill: none;" x="310" y="208.40909090909093" width="30" height="71.59090909090908"></rect><rect style="stroke: #000000; fill: none;" x="364.00000000000006" y="44.01515151515156" width="30" height="235.98484848484844"></rect><rect style="stroke: #000000; fill: none;" x="418.00000000000006" y="176.59090909090912" width="30" height="103.40909090909089"></rect><rect style="stroke: #000000; fill: none;" x="472" y="187.19696969696972" width="30" height="92.80303030303028"></rect><rect style="stroke: #000000; fill: none;" x="526" y="126.21212121212122" width="30" height="153.78787878787878"></rect></g><g><text x="55" y="290" font-size="10" text-anchor="middle">A</text><text x="109" y="290" font-size="10" text-anchor="middle"></text><text x="163" y="290" font-size="10" text-anchor="middle"></text><text x="217.00000000000003" y="290" font-size="10" text-anchor="middle"></text><text x="271" y="290" font-size="10" text-anchor="middle">B</text><text x="325" y="290" font-size="10" text-anchor="middle"></text><text x="379.00000000000006" y="290" font-size="10" text-anchor="middle"></text><text x="433.00000000000006" y="290" font-size="10" text-anchor="middle"></text><text x="487" y="290" font-size="10" text-anchor="middle"></text><text x="541" y="290" font-size="10" text-anchor="middle"></text></g></svg>