<?xml version='1.0' encoding='utf-8'?><!DOCTYPE svg PUBLIC '-//W3C//DTD SVG 1.1//EN' 'http://www.w3.org/Graphics/SVG/1.1/DTD/svg11.dtd'><svg height="300" width="600"><g><line y1="20" y2="280" x1="20" x2="20" style="stroke: #000000;"></line><text x="0" y="25" font-size="10">100</text><text x="12" y="280" font-size="10">0</text><line x1="20" x2="580" y1="280" y2="280" style="stroke: #000000;"></line><rect style="stroke: #000000; fill: none;" x="40" y="186.49350649350652" width="7.5" height="93.50649350649348"></rect><rect style="stroke: #000000; fill: none;" x="53.5" y="233.24675324675326" width="7.5" height="46.75324675324674"></rect><rect style="stroke: #000000; fill: none;" x="67" y="61.81818181818184" width="7.5" height="218.18181818181816"></rect><rect style="stroke: #000000; fill: none;" x="80.5" y="194.2857142857143" width="7.5" height="85.7142857142857"></rect><rect style="stroke: #000000; fill: none;" x="94" y="264.4155844155844" width="7.5" height="15.584415584415583"></rect><rect style="stroke: #000000; fill: none;" x="107.5" y="189.09090909090912" width="7.5" height="90.90909090909089"></rect><rect style="stroke: #000000; fill: none;" x="121.00000000000001" y="202.0779220779221" width="7.5" height="77.92207792207792"></rect><rect style="stroke: #000000; fill: none;" x="134.5" y="103.3766233766234" width="7.5" height="176.6233766233766"></rect><rect style="stroke: #000000; fill: none;" x="148" y="215.06493506493507" width="7.5" height="64.93506493506493"></rect><rect style="stroke: #000000; fill: none;" x="161.5" y="98.18181818181822" width="7.5" height="181.81818181818178"></rect><rect style="stroke: #000000; fill: none;" x="175" y="147.53246753246756" width="7.5" height="132.46753246753244"></rect><rect style="stroke: #000000; fill: none;" x="188.5" y="204.6753246753247" width="7.5" height="75.32467532467531"></rect><rect style="stroke: #000000; fill: none;" x="202.00000000000003" y="207.27272727272728" width="7.5" height="72.72727272727272"></rect><rect style="stroke: #000000; fill: none;" x="215.5" y="181.2987012987013" width="7.5" height="98.70129870129868"></rect><rect style="stroke: #000000; fill: none;" x="229.00000000000003" y="35.844155844155864" width="7.5" height="244.15584415584414"></rect><rect style="stroke: #000000; fill: none;" x="242.5" y="272.2077922077922" width="7.5" height="7.792207792207791"></rect><rect style="stroke: #000000; fill: none;" x="256" y="131.94805194805198" width="7.5" height="148.05194805194802"></rect><rect style="stroke: #000000; fill: none;" x="269.5" y="246.23376623376623" width="7.5" height="33.76623376623376"></rect><rect style="stroke: #000000; fill: none;" x="283" y="43.63636363636368" width="7.5" height="236.36363636363632"></rect><rect style="stroke: #000000; fill: none;" x="296.5" y="108.57142857142861" width="7.5" height="171.4285714285714"></rect><rect style="stroke: #000000; fill: none;" x="310" y="222.85714285714286" width="7.5" height="57.14285714285714"></rect><rect style="stroke: #000000; fill: none;" x="323.5" y="64.41558441558445" width="7.5" height="215.58441558441555"></rect><rect style="stroke: #000000; fill: none;" x="337" y="25.454545454545496" width="7.5" height="254.5454545454545"></rect><rect style="stroke: #000000; fill: none;" x="350.50000000000006" y="165.71428571428572" width="7.5" height="114.28571428571428"></rect><rect style="stroke: #000000; fill: none;" x="364.00000000000006" y="28.051948051948074" width="7.5" height="251.94805194805193"></rect><rect style="stroke: #000000; fill: none;" x="377.5" y="116.3636363636364" width="7.5" height="163.6363636363636"></rect><rect style="stroke: #000000; fill: none;" x="391" y="160.51948051948054" width="7.5" height="119.48051948051946"></rect><rect style="stroke: #000000; fill: none;" x="404.5" y="82.59740259740263" width="7.5" height="197.40259740259737"></rect><rect style="stroke: #000000; fill: none;" x="418.00000000000006" y="95.58441558441561" width="7.5" height="184.4155844155844"></rect><rect style="stroke: #000000; fill: none;" x="431.50000000000006" y="196.88311688311688" width="7.5" height="83.1168831168831"></rect><rect style="stroke: #000000; fill: none;" x="445" y="144.93506493506496" width="7.5" height="135.06493506493504"></rect><rect style="stroke: #000000; fill: none;" x="458.5" y="77.40259740259745" width="7.5" height="202.59740259740255"></rect><rect style="stroke: #000000; fill: none;" x="472" y="51.428571428571445" width="7.5" height="228.57142857142856"></rect><rect style="stroke: #000000; fill: none;" x="485.50000000000006" y="173.5064935064935" width="7.5" height="106.49350649350649"></rect><rect style="stroke: #000000; fill: none;" x="499.00000000000006" y="183.8961038961039" width="7.5" height="96.10389610389609"></rect><rect style="stroke: #000000; fill: none;" x="512.5" y="124.15584415584416" width="7.5" height="155.84415584415584"></rect><rect style="stroke: #000000; fill: none;" x="526" y="220.25974025974028" width="7.5" height="59.74025974025973"></rect><rect style="stroke: #000000; fill: none;" x="539.5" y="126.7532467532468" width="7.5" height="153.2467532467532"></rect><rect style="stroke: #000000; fill: none;" x="553" y="105.97402597402598" width="7.5" height="174.02597402597402"></rect><rect style="stroke: #000000; fill: none;" x="566.5" y="238.44155844155847" width="7.5" height="41.55844155844155"></rect></g><g><text x="43.75" y="290" font-size="10" text-anchor="middle"></text><text x="57.25" y="290" font-size="10" text-anchor="middle"></text><text x="70.75" y="290" font-size="10" text-anchor="middle"></text><text x="84.25" y="290" font-size="10" text-anchor="middle"></text><text x="97.75" y="290" font-size="10" text-anchor="middle"></text><text x="111.25" y="290" font-size="10" text-anchor="middle"></text><text x="124.75000000000001" y="290" font-size="10" text-anchor="middle">B</text><text x="138.25" y="290" font-size="10" text-anchor="middle"></text><text x="151.75" y="290" font-size="10" text-anchor="middle"></text><text x="165.25" y="290" font-size="10" text-anchor="middle"></text><text x="178.75" y="290" font-size="10" text-anchor="middle"></text><text x="192.25" y="290" font-size="10" text-anchor="middle"></text><text x="205.75000000000003" y="290" font-size="10" text-anchor="middle"></text><text x="219.25" y="290" font-size="10" text-anchor="middle"></text><text x="232.75000000000003" y="290" font-size="10" text-anchor="middle"></text><text x="246.25" y="290" font-size="10" text-anchor="middle"></text><text x="259.75" y="290" font-size="10" text-anchor="middle"></text><text x="273.25" y="290" font-size="10" text-anchor="middle"></text><text x="286.75" y="290" font-size="10" text-anchor="middle"></text><text x="300.25" y="290" font-size="10" text-anchor="middle"></text><text x="313.75" y="290" font-size="10" text-anchor="middle"></text><text x="327.25" y="290" font-size="10" text-anchor="middle"></text><text x="340.75" y="290" font-size="10" text-anchor="middle"></text><text x="354.25000000000006" y="290" font-size="10" text-anchor="middle"></text><text x="367.75000000000006" y="290" font-size="10" text-anchor="middle"></text><text x="381.25" y="290" font-size="10" text-anchor="middle"></text><text x="394.75" y="290" font-size="10" text-anchor="middle"></text><text x="408.25" y="290" font-size="10" text-anchor="middle">A</text><text x="421.75000000000006" y="290" font-size="10" text-anchor="middle"></text><text x="435.25000000000006" y="290" font-size="10" text-anchor="middle"></text><text x="448.75" y="290" font-size="10" text-anchor="middle"></text><text x="462.25" y="290" font-size="10" text-anchor="middle"></text><text x="475.75" y="290" font-size="10" text-anchor="middle"></text><text x="489.25000000000006" y="290" font-size="10" text-anchor="middle"></text><text x="502.75000000000006" y="290" font-size="10" text-anchor="middle"></text><text x="516.25" y="290" font-size="10" text-anchor="middle"></text><text x="529.75" y="290" font-size="10" text-anchor="middle"></text><text x="543.25" y="290" font-size="10" text-anchor="middle"></text><text x="556.75" y="290" font-size="10" text-anchor="middle"></text><text x="570.25" y="290" font-size="10" text-anchor="middle"></text></g></svg>