<?xml version='1.0' encoding='utf-8'?><!DOCTYPE svg PUBLIC '-//W3C//DTD SVG 1.1//EN' 'http://www.w3.org/Graphics/SVG/1.1/DTD/svg11.dtd'><svg height="300" width="600"><g><line y1="20" y2="280" x1="20" x2="20" style="stroke: #000000;"></line><text x="0" y="25" font-size="10">100</text><text x="12" y="280" font-size="10">0</text><line x1="20" x2="580" y1="280" y2="280" style="stroke: #000000;"></line><rect style="stroke: #000000; fill: none;" x="40" y="40.72727272727275" width="7.5" height="239.27272727272725"></rect><rect style="stroke: #000000; fill: none;" x="53.5" y="117.0909090909091" width="7.5" height="162.9090909090909"></rect><rect style="stroke: #000000; fill: none;" x="67" y="81.45454545454544" width="7.5" height="198.54545454545456"></rect><rect style="stroke: #000000; fill: none;" x="80.5" y="244.36363636363637" width="7.5" height="35.63636363636363"></rect><rect style="stroke: #000000; fill: none;" x="94" y="190.9090909090909" width="7.5" height="89.0909090909091"></rect><rect style="stroke: #000000; fill: none;" x="107.5" y="208.72727272727275" width="7.5" height="71.27272727272727"></rect><rect style="stroke: #000000; fill: none;" x="121.00000000000001" y="274.90909090909093" width="7.5" height="5.090909090909091"></rect><rect style="stroke: #000000; fill: none;" x="134.5" y="160.36363636363637" width="7.5" height="119.63636363636363"></rect><rect style="stroke: #000000; fill: none;" x="148" y="101.81818181818181" width="7.5" height="178.1818181818182"></rect><rect style="stroke: #000000; fill: none;" x="161.5" y="129.8181818181818" width="7.5" height="150.1818181818182"></rect><rect style="stroke: #000000; fill: none;" x="175" y="259.6363636363636" width="7.5" height="20.363636363636363"></rect><rect style="stroke: #000000; fill: none;" x="188.5" y="104.36363636363637" width="7.5" height="175.63636363636363"></rect><rect style="stroke: #000000; fill: none;" x="202.00000000000003" y="234.1818181818182" width="7.5" height="45.81818181818182"></rect><rect style="stroke: #000000; fill: none;" x="215.5" y="221.45454545454547" width="7.5" height="58.54545454545454"></rect><rect style="stroke: #000000; fill: none;" x="229.00000000000003" y="165.45454545454547" width="7.5" height="114.54545454545453"></rect><rect style="stroke: #000000; fill: none;" x="242.5" y="155.27272727272728" width="7.5" height="124.72727272727272"></rect><rect style="stroke: #000000; fill: none;" x="256" y="109.45454545454547" width="7.5" height="170.54545454545453"></rect><rect style="stroke: #000000; fill: none;" x="269.5" y="99.27272727272728" width="7.5" height="180.72727272727272"></rect><rect style="stroke: #000000; fill: none;" x="283" y="140" width="7.5" height="140"></rect><rect style="stroke: #000000; fill: none;" x="296.5" y="76.36363636363635" width="7.5" height="203.63636363636365"></rect><rect style="stroke: #000000; fill: none;" x="310" y="198.54545454545456" width="7.5" height="81.45454545454545"></rect><rect style="stroke: #000000; fill: none;" x="323.5" y="257.09090909090907" width="7.5" height="22.90909090909091"></rect><rect style="stroke: #000000; fill: none;" x="337" y="50.909090909090935" width="7.5" height="229.09090909090907"></rect><rect style="stroke: #000000; fill: none;" x="350.50000000000006" y="45.81818181818184" width="7.5" height="234.18181818181816"></rect><rect style="stroke: #000000; fill: none;" x="364.00000000000006" y="264.72727272727275" width="7.5" height="15.272727272727272"></rect><rect style="stroke: #000000; fill: none;" x="377.5" y="89.0909090909091" width="7.5" height="190.9090909090909"></rect><rect style="stroke: #000000; fill: none;" x="391" y="188.36363636363637" width="7.5" height="91.63636363636364"></rect><rect style="stroke: #000000; fill: none;" x="404.5" y="152.72727272727275" width="7.5" height="127.27272727272727"></rect><rect style="stroke: #000000; fill: none;" x="418.00000000000006" y="170.54545454545456" width="7.5" height="109.45454545454544"></rect><rect style="stroke: #000000; fill: none;" x="431.50000000000006" y="180.72727272727272" width="7.5" height="99.27272727272728"></rect><rect style="stroke: #000000; fill: none;" x="445" y="269.8181818181818" width="7.5" height="10.181818181818182"></rect><rect style="stroke: #000000; fill: none;" x="458.5" y="226.54545454545456" width="7.5" height="53.454545454545446"></rect><rect style="stroke: #000000; fill: none;" x="472" y="112" width="7.5" height="168"></rect><rect style="stroke: #000000; fill: none;" x="485.50000000000006" y="119.63636363636363" width="7.5" height="160.36363636363637"></rect><rect style="stroke: #000000; fill: none;" x="499.00000000000006" y="145.0909090909091" width="7.5" height="134.9090909090909"></rect><rect style="stroke: #000000; fill: none;" x="512.5" y="78.9090909090909" width="7.5" height="201.0909090909091"></rect><rect style="stroke: #000000; fill: none;" x="526" y="25.454545454545467" width="7.5" height="254.54545454545453"></rect><rect style="stroke: #000000; fill: none;" x="539.5" y="68.72727272727275" width="7.5" height="211.27272727272725"></rect><rect style="stroke: #000000; fill: none;" x="553" y="267.27272727272725" width="7.5" height="12.727272727272728"></rect><rect style="stroke: #000000; fill: none;" x="566.5" y="173.09090909090912" width="7.5" height="106.90909090909089"></rect></g><g><text x="43.75" y="290" font-size="10" text-anchor="middle"></text><text x="57.25" y="290" font-size="10" text-anchor="middle"></text><text x="70.75" y="290" font-size="10" text-anchor="middle"></text><text x="84.25" y="290" font-size="10" text-anchor="middle"></text><text x="97.75" y="290" font-size="10" text-anchor="middle"></text><text x="111.25" y="290" font-size="10" text-anchor="middle"></text><text x="124.75000000000001" y="290" font-size="10" text-anchor="middle"></text><text x="138.25" y="290" font-size="10" text-anchor="middle"></text><text x="151.75" y="290" font-size="10" text-anchor="middle">A</text><text x="165.25" y="290" font-size="10" text-anchor="middle"></text><text x="178.75" y="290" font-size="10" text-anchor="middle"></text><text x="192.25" y="290" font-size="10" text-anchor="middle"></text><text x="205.75000000000003" y="290" font-size="10" text-anchor="middle"></text><text x="219.25" y="290" font-size="10" text-anchor="middle"></text><text x="232.75000000000003" y="290" font-size="10" text-anchor="middle"></text><text x="246.25" y="290" font-size="10" text-anchor="middle"></text><text x="259.75" y="290" font-size="10" text-anchor="middle"></text><text x="273.25" y="290" font-size="10" text-anchor="middle"></text><text x="286.75" y="290" font-size="10" text-anchor="middle"></text><text x="300.25" y="290" font-size="10" text-anchor="middle"></text><text x="313.75" y="290" font-size="10" text-anchor="middle"></text><text x="327.25" y="290" font-size="10" text-anchor="middle"></text><text x="340.75" y="290" font-size="10" text-anchor="middle"></text><text x="354.25000000000006" y="290" font-size="10" text-anchor="middle"></text><text x="367.75000000000006" y="290" font-size="10" text-anchor="middle"></text><text x="381.25" y="290" font-size="10" text-anchor="middle"></text><text x="394.75" y="290" font-size="10" text-anchor="middle"></text><text x="408.25" y="290" font-size="10" text-anchor="middle"></text><text x="421.75000000000006" y="290" font-size="10" text-anchor="middle"></text><text x="435.25000000000006" y="290" font-size="10" text-anchor="middle">B</text><text x="448.75" y="290" font-size="10" text-anchor="middle"></text><text x="462.25" y="290" font-size="10" text-anchor="middle"></text><text x="475.75" y="290" font-size="10" text-anchor="middle"></text><text x="489.25000000000006" y="290" font-size="10" text-anchor="middle"></text><text x="502.75000000000006" y="290" font-size="10" text-anchor="middle"></text><text x="516.25" y="290" font-size="10" text-anchor="middle"></text><text x="529.75" y="290" font-size="10" text-anchor="middle"></text><text x="543.25" y="290" font-size="10" text-anchor="middle"></text><text x="556.75" y="290" font-size="10" text-anchor="middle"></text><text x="570.25" y="290" font-size="10" text-anchor="middle"></text></g></svg>