<?xml version='1.0' encoding='utf-8'?><!DOCTYPE svg PUBLIC '-//W3C//DTD SVG 1.1//EN' 'http://www.w3.org/Graphics/SVG/1.1/DTD/svg11.dtd'><svg height="300" width="600"><g><line y1="20" y2="280" x1="20" x2="20" style="stroke: #000000;"></line><text x="0" y="25" font-size="10">100</text><text x="12" y="280" font-size="10">0</text><line x1="20" x2="580" y1="280" y2="280" style="stroke: #000000;"></line><rect style="stroke: #000000; fill: none;" x="40" y="197.722681359045" width="30" height="82.277318640955"></rect><rect style="stroke: #000000; fill: none;" x="94" y="164.29752066115702" width="30" height="115.70247933884298"></rect><rect style="stroke: #000000; fill: none;" x="148" y="128.3011937557392" width="30" height="151.6988062442608"></rect><rect style="stroke: #000000; fill: none;" x="202.00000000000003" y="30.59687786960515" width="30" height="249.40312213039485"></rect><rect style="stroke: #000000; fill: none;" x="256" y="210.57851239669424" width="30" height="69.42148760330578"></rect><rect style="stroke: #000000; fill: none;" x="310" y="25.454545454545467" width="30" height="254.54545454545453"></rect><rect style="stroke: #000000; fill: none;" x="364.00000000000006" y="87.1625344352617" width="30" height="192.8374655647383"></rect><rect style="stroke: #000000; fill: none;" x="418.00000000000006" y="226.0055096418733" width="30" height="53.994490358126725"></rect><rect style="stroke: #000000; fill: none;" x="472" y="205.43617998163452" width="30" height="74.56382001836548"></rect><rect style="stroke: #000000; fill: none;" x="526" y="254.28833792470158" width="30" height="25.711662075298438"></rect></g><g><text x="55" y="290" font-size="10" text-anchor="middle"></text><text x="109" y="290" font-size="10" text-anchor="middle"></text><text x="163" y="290" font-size="10" text-anchor="middle"></text><text x="217.00000000000003" y="290" font-size="10" text-anchor="middle">A</text><text x="271" y="290" font-size="10" text-anchor="middle"></text><text x="325" y="290" font-size="10" text-anchor="middle"></text><text x="379.00000000000006" y="290" font-size="10" text-anchor="middle"></text><text x="433.00000000000006" y="290" font-size="10" text-anchor="middle">B</text><text x="487" y="290" font-size="10" text-anchor="middle"></text><text x="541" y="290" font-size="10" text-anchor="middle"></text></g></svg>