<?xml version='1.0' encoding='utf-8'?><!DOCTYPE svg PUBLIC '-//W3C//DTD SVG 1.1//EN' 'http://www.w3.org/Graphics/SVG/1.1/DTD/svg11.dtd'><svg height="300" width="600"><g><line y1="20" y2="280" x1="20" x2="20" style="stroke: #000000;"></line><text x="0" y="25" font-size="10">100</text><text x="12" y="280" font-size="10">0</text><line x1="20" x2="580" y1="280" y2="280" style="stroke: #000000;"></line><rect style="stroke: #000000; fill: none;" x="40" y="104.4514106583072" width="30" height="175.5485893416928"></rect><rect style="stroke: #000000; fill: none;" x="94" y="66.4158829676071" width="30" height="213.5841170323929"></rect><rect style="stroke: #000000; fill: none;" x="148" y="83.97074190177636" width="30" height="196.02925809822364"></rect><rect style="stroke: #000000; fill: none;" x="202.00000000000003" y="25.454545454545467" width="30" height="254.54545454545453"></rect><rect style="stroke: #000000; fill: none;" x="256" y="215.632183908046" width="30" height="64.36781609195403"></rect><rect style="stroke: #000000; fill: none;" x="310" y="75.19331243469173" width="30" height="204.80668756530827"></rect><rect style="stroke: #000000; fill: none;" x="364.00000000000006" y="206.85475444096136" width="30" height="73.14524555903866"></rect><rect style="stroke: #000000; fill: none;" x="418.00000000000006" y="244.89028213166142" width="30" height="35.10971786833856"></rect><rect style="stroke: #000000; fill: none;" x="472" y="183.44827586206895" width="30" height="96.55172413793105"></rect><rect style="stroke: #000000; fill: none;" x="526" y="101.52560083594568" width="30" height="178.47439916405432"></rect></g><g><text x="55" y="290" font-size="10" text-anchor="middle"></text><text x="109" y="290" font-size="10" text-anchor="middle"></text><text x="163" y="290" font-size="10" text-anchor="middle"></text><text x="217.00000000000003" y="290" font-size="10" text-anchor="middle">B</text><text x="271" y="290" font-size="10" text-anchor="middle"></text><text x="325" y="290" font-size="10" text-anchor="middle"></text><text x="379.00000000000006" y="290" font-size="10" text-anchor="middle"></text><text x="433.00000000000006" y="290" font-size="10" text-anchor="middle">A</text><text x="487" y="290" font-size="10" text-anchor="middle"></text><text x="541" y="290" font-size="10" text-anchor="middle"></text></g></svg>