<?xml version='1.0' encoding='utf-8'?><!DOCTYPE svg PUBLIC '-//W3C//DTD SVG 1.1//EN' 'http://www.w3.org/Graphics/SVG/1.1/DTD/svg11.dtd'><svg height="300" width="600"><g><line y1="20" y2="280" x1="20" x2="20" style="stroke: #000000;"></line><text x="0" y="25" font-size="10">100</text><text x="12" y="280" font-size="10">0</text><line x1="20" x2="580" y1="280" y2="280" style="stroke: #000000;"></line><rect style="stroke: #000000; fill: none;" x="40" y="227.0747074707471" width="30" height="52.92529252925292"></rect><rect style="stroke: #000000; fill: none;" x="94" y="214.4734473447345" width="30" height="65.52655265526552"></rect><rect style="stroke: #000000; fill: none;" x="148" y="204.3924392439244" width="30" height="75.60756075607559"></rect><rect style="stroke: #000000; fill: none;" x="202.00000000000003" y="123.74437443744375" width="30" height="156.25562556255625"></rect><rect style="stroke: #000000; fill: none;" x="256" y="88.4608460846085" width="30" height="191.5391539153915"></rect><rect style="stroke: #000000; fill: none;" x="310" y="257.31773177317734" width="30" height="22.682268226822682"></rect><rect style="stroke: #000000; fill: none;" x="364.00000000000006" y="25.454545454545496" width="30" height="254.5454545454545"></rect><rect style="stroke: #000000; fill: none;" x="418.00000000000006" y="35.53555355535559" width="30" height="244.4644464446444"></rect><rect style="stroke: #000000; fill: none;" x="472" y="194.3114311431143" width="30" height="85.68856885688568"></rect><rect style="stroke: #000000; fill: none;" x="526" y="108.62286228622864" width="30" height="171.37713771377136"></rect></g><g><text x="55" y="290" font-size="10" text-anchor="middle">B</text><text x="109" y="290" font-size="10" text-anchor="middle"></text><text x="163" y="290" font-size="10" text-anchor="middle"></text><text x="217.00000000000003" y="290" font-size="10" text-anchor="middle"></text><text x="271" y="290" font-size="10" text-anchor="middle"></text><text x="325" y="290" font-size="10" text-anchor="middle"></text><text x="379.00000000000006" y="290" font-size="10" text-anchor="middle"></text><text x="433.00000000000006" y="290" font-size="10" text-anchor="middle">A</text><text x="487" y="290" font-size="10" text-anchor="middle"></text><text x="541" y="290" font-size="10" text-anchor="middle"></text></g></svg>