<?xml version='1.0' encoding='utf-8'?><!DOCTYPE svg PUBLIC '-//W3C//DTD SVG 1.1//EN' 'http://www.w3.org/Graphics/SVG/1.1/DTD/svg11.dtd'><svg height="300" width="600"><g><line y1="20" y2="280" x1="20" x2="20" style="stroke: #000000;"></line><text x="0" y="25" font-size="10">100</text><text x="12" y="280" font-size="10">0</text><line x1="20" x2="580" y1="280" y2="280" style="stroke: #000000;"></line><rect style="stroke: #000000; fill: none;" x="40" y="118.70387038703873" width="7.5" height="161.29612961296127"></rect><rect style="stroke: #000000; fill: none;" x="53.5" y="116.18361836183621" width="7.5" height="163.8163816381638"></rect><rect style="stroke: #000000; fill: none;" x="67" y="272.43924392439243" width="7.5" height="7.56075607560756"></rect><rect style="stroke: #000000; fill: none;" x="80.5" y="252.2772277227723" width="7.5" height="27.722772277227715"></rect><rect style="stroke: #000000; fill: none;" x="94" y="48.13681368136818" width="7.5" height="231.86318631863182"></rect><rect style="stroke: #000000; fill: none;" x="107.5" y="43.096309630963134" width="7.5" height="236.90369036903687"></rect><rect style="stroke: #000000; fill: none;" x="121.00000000000001" y="128.78487848784883" width="7.5" height="151.21512151215117"></rect><rect style="stroke: #000000; fill: none;" x="134.5" y="224.55445544554456" width="7.5" height="55.44554455445543"></rect><rect style="stroke: #000000; fill: none;" x="148" y="234.63546354635463" width="7.5" height="45.364536453645364"></rect><rect style="stroke: #000000; fill: none;" x="161.5" y="111.14311431143116" width="7.5" height="168.85688568856884"></rect><rect style="stroke: #000000; fill: none;" x="175" y="222.03420342034204" width="7.5" height="57.965796579657955"></rect><rect style="stroke: #000000; fill: none;" x="188.5" y="133.82538253825385" width="7.5" height="146.17461746174615"></rect><rect style="stroke: #000000; fill: none;" x="202.00000000000003" y="262.3582358235824" width="7.5" height="17.641764176417638"></rect><rect style="stroke: #000000; fill: none;" x="215.5" y="25.454545454545496" width="7.5" height="254.5454545454545"></rect><rect style="stroke: #000000; fill: none;" x="229.00000000000003" y="191.7911791179118" width="7.5" height="88.20882088208819"></rect><rect style="stroke: #000000; fill: none;" x="242.5" y="216.99369936993702" width="7.5" height="63.006300630062995"></rect><rect style="stroke: #000000; fill: none;" x="256" y="219.51395139513951" width="7.5" height="60.48604860486048"></rect><rect style="stroke: #000000; fill: none;" x="269.5" y="274.95949594959495" width="7.5" height="5.04050405040504"></rect><rect style="stroke: #000000; fill: none;" x="283" y="93.50135013501352" width="7.5" height="186.49864986498648"></rect><rect style="stroke: #000000; fill: none;" x="296.5" y="45.61656165616566" width="7.5" height="234.38343834383434"></rect><rect style="stroke: #000000; fill: none;" x="310" y="123.74437443744375" width="7.5" height="156.25562556255625"></rect><rect style="stroke: #000000; fill: none;" x="323.5" y="136.34563456345637" width="7.5" height="143.65436543654363"></rect><rect style="stroke: #000000; fill: none;" x="337" y="164.06840684068408" width="7.5" height="115.93159315931591"></rect><rect style="stroke: #000000; fill: none;" x="350.50000000000006" y="151.4671467146715" width="7.5" height="128.5328532853285"></rect><rect style="stroke: #000000; fill: none;" x="364.00000000000006" y="242.1962196219622" width="7.5" height="37.80378037803779"></rect><rect style="stroke: #000000; fill: none;" x="377.5" y="156.50765076507653" width="7.5" height="123.49234923492347"></rect><rect style="stroke: #000000; fill: none;" x="391" y="267.3987398739874" width="7.5" height="12.6012601260126"></rect><rect style="stroke: #000000; fill: none;" x="404.5" y="131.30513051305132" width="7.5" height="148.69486948694868"></rect><rect style="stroke: #000000; fill: none;" x="418.00000000000006" y="35.53555355535559" width="7.5" height="244.4644464446444"></rect><rect style="stroke: #000000; fill: none;" x="431.50000000000006" y="254.79747974797482" width="7.5" height="25.2025202520252"></rect><rect style="stroke: #000000; fill: none;" x="445" y="73.33933393339339" width="7.5" height="206.6606660666066"></rect><rect style="stroke: #000000; fill: none;" x="458.5" y="211.95319531953197" width="7.5" height="68.04680468046803"></rect><rect style="stroke: #000000; fill: none;" x="472" y="199.35193519351935" width="7.5" height="80.64806480648063"></rect><rect style="stroke: #000000; fill: none;" x="485.50000000000006" y="196.83168316831686" width="7.5" height="83.16831683168314"></rect><rect style="stroke: #000000; fill: none;" x="499.00000000000006" y="166.5886588658866" width="7.5" height="113.4113411341134"></rect><rect style="stroke: #000000; fill: none;" x="512.5" y="184.23042304230427" width="7.5" height="95.76957695769575"></rect><rect style="stroke: #000000; fill: none;" x="526" y="101.0621062106211" width="7.5" height="178.9378937893789"></rect><rect style="stroke: #000000; fill: none;" x="539.5" y="98.54185418541854" width="7.5" height="181.45814581458146"></rect><rect style="stroke: #000000; fill: none;" x="553" y="88.4608460846085" width="7.5" height="191.5391539153915"></rect><rect style="stroke: #000000; fill: none;" x="566.5" y="141.3861386138614" width="7.5" height="138.6138613861386"></rect></g><g><text x="43.75" y="290" font-size="10" text-anchor="middle"></text><text x="57.25" y="290" font-size="10" text-anchor="middle"></text><text x="70.75" y="290" font-size="10" text-anchor="middle"></text><text x="84.25" y="290" font-size="10" text-anchor="middle"></text><text x="97.75" y="290" font-size="10" text-anchor="middle"></text><text x="111.25" y="290" font-size="10" text-anchor="middle"></text><text x="124.75000000000001" y="290" font-size="10" text-anchor="middle"></text><text x="138.25" y="290" font-size="10" text-anchor="middle"></text><text x="151.75" y="290" font-size="10" text-anchor="middle"></text><text x="165.25" y="290" font-size="10" text-anchor="middle"></text><text x="178.75" y="290" font-size="10" text-anchor="middle">B</text><text x="192.25" y="290" font-size="10" text-anchor="middle"></text><text x="205.75000000000003" y="290" font-size="10" text-anchor="middle"></text><text x="219.25" y="290" font-size="10" text-anchor="middle"></text><text x="232.75000000000003" y="290" font-size="10" text-anchor="middle"></text><text x="246.25" y="290" font-size="10" text-anchor="middle"></text><text x="259.75" y="290" font-size="10" text-anchor="middle"></text><text x="273.25" y="290" font-size="10" text-anchor="middle"></text><text x="286.75" y="290" font-size="10" text-anchor="middle"></text><text x="300.25" y="290" font-size="10" text-anchor="middle"></text><text x="313.75" y="290" font-size="10" text-anchor="middle"></text><text x="327.25" y="290" font-size="10" text-anchor="middle"></text><text x="340.75" y="290" font-size="10" text-anchor="middle"></text><text x="354.25000000000006" y="290" font-size="10" text-anchor="middle"></text><text x="367.75000000000006" y="290" font-size="10" text-anchor="middle"></text><text x="381.25" y="290" font-size="10" text-anchor="middle"></text><text x="394.75" y="290" font-size="10" text-anchor="middle"></text><text x="408.25" y="290" font-size="10" text-anchor="middle"></text><text x="421.75000000000006" y="290" font-size="10" text-anchor="middle"></text><text x="435.25000000000006" y="290" font-size="10" text-anchor="middle"></text><text x="448.75" y="290" font-size="10" text-anchor="middle"></text><text x="462.25" y="290" font-size="10" text-anchor="middle">A</text><text x="475.75" y="290" font-size="10" text-anchor="middle"></text><text x="489.25000000000006" y="290" font-size="10" text-anchor="middle"></text><text x="502.75000000000006" y="290" font-size="10" text-anchor="middle"></text><text x="516.25" y="290" font-size="10" text-anchor="middle"></text><text x="529.75" y="290" font-size="10" text-anchor="middle"></text><text x="543.25" y="290" font-size="10" text-anchor="middle"></text><text x="556.75" y="290" font-size="10" text-anchor="middle"></text><text x="570.25" y="290" font-size="10" text-anchor="middle"></text></g></svg>