<?xml version='1.0' encoding='utf-8'?><!DOCTYPE svg PUBLIC '-//W3C//DTD SVG 1.1//EN' 'http://www.w3.org/Graphics/SVG/1.1/DTD/svg11.dtd'><svg height="300" width="600"><g><line y1="20" y2="280" x1="20" x2="20" style="stroke: #000000;"></line><text x="0" y="25" font-size="10">100</text><text x="12" y="280" font-size="10">0</text><line x1="20" x2="580" y1="280" y2="280" style="stroke: #000000;"></line><rect style="stroke: #000000; fill: none;" x="40" y="241.43250688705234" width="7.5" height="38.56749311294766"></rect><rect style="stroke: #000000; fill: none;" x="53.5" y="51.16620752984389" width="7.5" height="228.8337924701561"></rect><rect style="stroke: #000000; fill: none;" x="67" y="110.30303030303031" width="7.5" height="169.6969696969697"></rect><rect style="stroke: #000000; fill: none;" x="80.5" y="107.73186409550047" width="7.5" height="172.26813590449953"></rect><rect style="stroke: #000000; fill: none;" x="94" y="25.454545454545467" width="7.5" height="254.54545454545453"></rect><rect style="stroke: #000000; fill: none;" x="107.5" y="244.0036730945822" width="7.5" height="35.99632690541781"></rect><rect style="stroke: #000000; fill: none;" x="121.00000000000001" y="30.59687786960515" width="7.5" height="249.40312213039485"></rect><rect style="stroke: #000000; fill: none;" x="134.5" y="130.87235996326905" width="7.5" height="149.12764003673095"></rect><rect style="stroke: #000000; fill: none;" x="148" y="102.58953168044079" width="7.5" height="177.41046831955921"></rect><rect style="stroke: #000000; fill: none;" x="161.5" y="208.00734618916437" width="7.5" height="71.99265381083562"></rect><rect style="stroke: #000000; fill: none;" x="175" y="92.30486685032142" width="7.5" height="187.69513314967858"></rect><rect style="stroke: #000000; fill: none;" x="188.5" y="269.71533516988063" width="7.5" height="10.284664830119375"></rect><rect style="stroke: #000000; fill: none;" x="202.00000000000003" y="35.739210284664836" width="7.5" height="244.26078971533516"></rect><rect style="stroke: #000000; fill: none;" x="215.5" y="218.29201101928373" width="7.5" height="61.70798898071625"></rect><rect style="stroke: #000000; fill: none;" x="229.00000000000003" y="202.86501377410468" width="7.5" height="77.13498622589532"></rect><rect style="stroke: #000000; fill: none;" x="242.5" y="84.59136822773186" width="7.5" height="195.40863177226814"></rect><rect style="stroke: #000000; fill: none;" x="256" y="76.87786960514237" width="7.5" height="203.12213039485763"></rect><rect style="stroke: #000000; fill: none;" x="269.5" y="38.31037649219468" width="7.5" height="241.68962350780532"></rect><rect style="stroke: #000000; fill: none;" x="283" y="205.43617998163452" width="7.5" height="74.56382001836548"></rect><rect style="stroke: #000000; fill: none;" x="296.5" y="79.44903581267218" width="7.5" height="200.55096418732782"></rect><rect style="stroke: #000000; fill: none;" x="310" y="40.88154269972452" width="7.5" height="239.11845730027548"></rect><rect style="stroke: #000000; fill: none;" x="323.5" y="125.73002754820936" width="7.5" height="154.26997245179064"></rect><rect style="stroke: #000000; fill: none;" x="337" y="89.73370064279158" width="7.5" height="190.26629935720842"></rect><rect style="stroke: #000000; fill: none;" x="350.50000000000006" y="166.86868686868686" width="7.5" height="113.13131313131314"></rect><rect style="stroke: #000000; fill: none;" x="364.00000000000006" y="182.29568411386595" width="7.5" height="97.70431588613407"></rect><rect style="stroke: #000000; fill: none;" x="377.5" y="187.43801652892563" width="7.5" height="92.56198347107438"></rect><rect style="stroke: #000000; fill: none;" x="391" y="128.3011937557392" width="7.5" height="151.6988062442608"></rect><rect style="stroke: #000000; fill: none;" x="404.5" y="213.14967860422405" width="7.5" height="66.85032139577594"></rect><rect style="stroke: #000000; fill: none;" x="418.00000000000006" y="264.57300275482095" width="7.5" height="15.426997245179063"></rect><rect style="stroke: #000000; fill: none;" x="431.50000000000006" y="267.14416896235076" width="7.5" height="12.855831037649219"></rect><rect style="stroke: #000000; fill: none;" x="445" y="61.450872359963284" width="7.5" height="218.54912764003672"></rect><rect style="stroke: #000000; fill: none;" x="458.5" y="123.15886134067952" width="7.5" height="156.84113865932048"></rect><rect style="stroke: #000000; fill: none;" x="472" y="223.43434343434342" width="7.5" height="56.56565656565657"></rect><rect style="stroke: #000000; fill: none;" x="485.50000000000006" y="87.1625344352617" width="7.5" height="192.8374655647383"></rect><rect style="stroke: #000000; fill: none;" x="499.00000000000006" y="71.73553719008265" width="7.5" height="208.26446280991735"></rect><rect style="stroke: #000000; fill: none;" x="512.5" y="254.28833792470158" width="7.5" height="25.711662075298438"></rect><rect style="stroke: #000000; fill: none;" x="526" y="233.71900826446281" width="7.5" height="46.28099173553719"></rect><rect style="stroke: #000000; fill: none;" x="539.5" y="238.86134067952253" width="7.5" height="41.1386593204775"></rect><rect style="stroke: #000000; fill: none;" x="553" y="28.02571166207531" width="7.5" height="251.9742883379247"></rect><rect style="stroke: #000000; fill: none;" x="566.5" y="200.29384756657487" width="7.5" height="79.70615243342515"></rect></g><g><text x="43.75" y="290" font-size="10" text-anchor="middle"></text><text x="57.25" y="290" font-size="10" text-anchor="middle"></text><text x="70.75" y="290" font-size="10" text-anchor="middle"></text><text x="84.25" y="290" font-size="10" text-anchor="middle"></text><text x="97.75" y="290" font-size="10" text-anchor="middle"></text><text x="111.25" y="290" font-size="10" text-anchor="middle"></text><text x="124.75000000000001" y="290" font-size="10" text-anchor="middle"></text><text x="138.25" y="290" font-size="10" text-anchor="middle"></text><text x="151.75" y="290" font-size="10" text-anchor="middle"></text><text x="165.25" y="290" font-size="10" text-anchor="middle"></text><text x="178.75" y="290" font-size="10" text-anchor="middle"></text><text x="192.25" y="290" font-size="10" text-anchor="middle"></text><text x="205.75000000000003" y="290" font-size="10" text-anchor="middle"></text><text x="219.25" y="290" font-size="10" text-anchor="middle"></text><text x="232.75000000000003" y="290" font-size="10" text-anchor="middle">B</text><text x="246.25" y="290" font-size="10" text-anchor="middle"></text><text x="259.75" y="290" font-size="10" text-anchor="middle"></text><text x="273.25" y="290" font-size="10" text-anchor="middle"></text><text x="286.75" y="290" font-size="10" text-anchor="middle"></text><text x="300.25" y="290" font-size="10" text-anchor="middle"></text><text x="313.75" y="290" font-size="10" text-anchor="middle"></text><text x="327.25" y="290" font-size="10" text-anchor="middle"></text><text x="340.75" y="290" font-size="10" text-anchor="middle"></text><text x="354.25000000000006" y="290" font-size="10" text-anchor="middle"></text><text x="367.75000000000006" y="290" font-size="10" text-anchor="middle"></text><text x="381.25" y="290" font-size="10" text-anchor="middle"></text><text x="394.75" y="290" font-size="10" text-anchor="middle"></text><text x="408.25" y="290" font-size="10" text-anchor="middle"></text><text x="421.75000000000006" y="290" font-size="10" text-anchor="middle"></text><text x="435.25000000000006" y="290" font-size="10" text-anchor="middle"></text><text x="448.75" y="290" font-size="10" text-anchor="middle"></text><text x="462.25" y="290" font-size="10" text-anchor="middle"></text><text x="475.75" y="290" font-size="10" text-anchor="middle"></text><text x="489.25000000000006" y="290" font-size="10" text-anchor="middle"></text><text x="502.75000000000006" y="290" font-size="10" text-anchor="middle"></text><text x="516.25" y="290" font-size="10" text-anchor="middle">A</text><text x="529.75" y="290" font-size="10" text-anchor="middle"></text><text x="543.25" y="290" font-size="10" text-anchor="middle"></text><text x="556.75" y="290" font-size="10" text-anchor="middle"></text><text x="570.25" y="290" font-size="10" text-anchor="middle"></text></g></svg>