<?xml version='1.0' encoding='utf-8'?><!DOCTYPE svg PUBLIC '-//W3C//DTD SVG 1.1//EN' 'http://www.w3.org/Graphics/SVG/1.1/DTD/svg11.dtd'><svg height="300" width="600"><g><line y1="20" y2="280" x1="20" x2="20" style="stroke: #000000;"></line><text x="0" y="25" font-size="10">100</text><text x="12" y="280" font-size="10">0</text><line x1="20" x2="580" y1="280" y2="280" style="stroke: #000000;"></line><rect style="stroke: #000000; fill: none;" x="40" y="184.23042304230427" width="7.5" height="95.76957695769575"></rect><rect style="stroke: #000000; fill: none;" x="53.5" y="209.43294329432945" width="7.5" height="70.56705670567055"></rect><rect style="stroke: #000000; fill: none;" x="67" y="25.454545454545496" width="7.5" height="254.5454545454545"></rect><rect style="stroke: #000000; fill: none;" x="80.5" y="123.74437443744375" width="7.5" height="156.25562556255625"></rect><rect style="stroke: #000000; fill: none;" x="94" y="45.61656165616566" width="7.5" height="234.38343834383434"></rect><rect style="stroke: #000000; fill: none;" x="107.5" y="27.97479747974802" width="7.5" height="252.02520252025198"></rect><rect style="stroke: #000000; fill: none;" x="121.00000000000001" y="78.37983798379841" width="7.5" height="201.6201620162016"></rect><rect style="stroke: #000000; fill: none;" x="134.5" y="239.67596759675968" width="7.5" height="40.32403240324032"></rect><rect style="stroke: #000000; fill: none;" x="148" y="171.62916291629165" width="7.5" height="108.37083708370835"></rect><rect style="stroke: #000000; fill: none;" x="161.5" y="272.43924392439243" width="7.5" height="7.56075607560756"></rect><rect style="stroke: #000000; fill: none;" x="175" y="73.33933393339339" width="7.5" height="206.6606660666066"></rect><rect style="stroke: #000000; fill: none;" x="188.5" y="257.31773177317734" width="7.5" height="22.682268226822682"></rect><rect style="stroke: #000000; fill: none;" x="202.00000000000003" y="159.02790279027903" width="7.5" height="120.97209720972096"></rect><rect style="stroke: #000000; fill: none;" x="215.5" y="65.77857785778582" width="7.5" height="214.22142214221418"></rect><rect style="stroke: #000000; fill: none;" x="229.00000000000003" y="38.055805580558086" width="7.5" height="241.9441944194419"></rect><rect style="stroke: #000000; fill: none;" x="242.5" y="244.71647164716472" width="7.5" height="35.283528352835276"></rect><rect style="stroke: #000000; fill: none;" x="256" y="164.06840684068408" width="7.5" height="115.93159315931591"></rect><rect style="stroke: #000000; fill: none;" x="269.5" y="116.18361836183621" width="7.5" height="163.8163816381638"></rect><rect style="stroke: #000000; fill: none;" x="283" y="60.73807380738077" width="7.5" height="219.26192619261923"></rect><rect style="stroke: #000000; fill: none;" x="296.5" y="85.94059405940598" width="7.5" height="194.05940594059402"></rect><rect style="stroke: #000000; fill: none;" x="310" y="252.2772277227723" width="7.5" height="27.722772277227715"></rect><rect style="stroke: #000000; fill: none;" x="323.5" y="242.1962196219622" width="7.5" height="37.80378037803779"></rect><rect style="stroke: #000000; fill: none;" x="337" y="214.4734473447345" width="7.5" height="65.52655265526552"></rect><rect style="stroke: #000000; fill: none;" x="350.50000000000006" y="262.3582358235824" width="7.5" height="17.641764176417638"></rect><rect style="stroke: #000000; fill: none;" x="364.00000000000006" y="186.75067506750676" width="7.5" height="93.24932493249324"></rect><rect style="stroke: #000000; fill: none;" x="377.5" y="70.81908190819084" width="7.5" height="209.18091809180916"></rect><rect style="stroke: #000000; fill: none;" x="391" y="108.62286228622864" width="7.5" height="171.37713771377136"></rect><rect style="stroke: #000000; fill: none;" x="404.5" y="131.30513051305132" width="7.5" height="148.69486948694868"></rect><rect style="stroke: #000000; fill: none;" x="418.00000000000006" y="83.42034203420343" width="7.5" height="196.57965796579657"></rect><rect style="stroke: #000000; fill: none;" x="431.50000000000006" y="43.096309630963134" width="7.5" height="236.90369036903687"></rect><rect style="stroke: #000000; fill: none;" x="445" y="106.10261026102614" width="7.5" height="173.89738973897386"></rect><rect style="stroke: #000000; fill: none;" x="458.5" y="98.54185418541854" width="7.5" height="181.45814581458146"></rect><rect style="stroke: #000000; fill: none;" x="472" y="138.8658865886589" width="7.5" height="141.1341134113411"></rect><rect style="stroke: #000000; fill: none;" x="485.50000000000006" y="33.01530153015307" width="7.5" height="246.98469846984693"></rect><rect style="stroke: #000000; fill: none;" x="499.00000000000006" y="146.42664266426644" width="7.5" height="133.57335733573356"></rect><rect style="stroke: #000000; fill: none;" x="512.5" y="30.495049504950515" width="7.5" height="249.50495049504948"></rect><rect style="stroke: #000000; fill: none;" x="526" y="53.1773177317732" width="7.5" height="226.8226822682268"></rect><rect style="stroke: #000000; fill: none;" x="539.5" y="88.4608460846085" width="7.5" height="191.5391539153915"></rect><rect style="stroke: #000000; fill: none;" x="553" y="222.03420342034204" width="7.5" height="57.965796579657955"></rect><rect style="stroke: #000000; fill: none;" x="566.5" y="181.71017101710171" width="7.5" height="98.28982898289829"></rect></g><g><text x="43.75" y="290" font-size="10" text-anchor="middle"></text><text x="57.25" y="290" font-size="10" text-anchor="middle"></text><text x="70.75" y="290" font-size="10" text-anchor="middle"></text><text x="84.25" y="290" font-size="10" text-anchor="middle"></text><text x="97.75" y="290" font-size="10" text-anchor="middle">A</text><text x="111.25" y="290" font-size="10" text-anchor="middle"></text><text x="124.75000000000001" y="290" font-size="10" text-anchor="middle"></text><text x="138.25" y="290" font-size="10" text-anchor="middle"></text><text x="151.75" y="290" font-size="10" text-anchor="middle"></text><text x="165.25" y="290" font-size="10" text-anchor="middle"></text><text x="178.75" y="290" font-size="10" text-anchor="middle"></text><text x="192.25" y="290" font-size="10" text-anchor="middle"></text><text x="205.75000000000003" y="290" font-size="10" text-anchor="middle"></text><text x="219.25" y="290" font-size="10" text-anchor="middle"></text><text x="232.75000000000003" y="290" font-size="10" text-anchor="middle"></text><text x="246.25" y="290" font-size="10" text-anchor="middle"></text><text x="259.75" y="290" font-size="10" text-anchor="middle"></text><text x="273.25" y="290" font-size="10" text-anchor="middle"></text><text x="286.75" y="290" font-size="10" text-anchor="middle"></text><text x="300.25" y="290" font-size="10" text-anchor="middle"></text><text x="313.75" y="290" font-size="10" text-anchor="middle"></text><text x="327.25" y="290" font-size="10" text-anchor="middle"></text><text x="340.75" y="290" font-size="10" text-anchor="middle"></text><text x="354.25000000000006" y="290" font-size="10" text-anchor="middle"></text><text x="367.75000000000006" y="290" font-size="10" text-anchor="middle"></text><text x="381.25" y="290" font-size="10" text-anchor="middle">B</text><text x="394.75" y="290" font-size="10" text-anchor="middle"></text><text x="408.25" y="290" font-size="10" text-anchor="middle"></text><text x="421.75000000000006" y="290" font-size="10" text-anchor="middle"></text><text x="435.25000000000006" y="290" font-size="10" text-anchor="middle"></text><text x="448.75" y="290" font-size="10" text-anchor="middle"></text><text x="462.25" y="290" font-size="10" text-anchor="middle"></text><text x="475.75" y="290" font-size="10" text-anchor="middle"></text><text x="489.25000000000006" y="290" font-size="10" text-anchor="middle"></text><text x="502.75000000000006" y="290" font-size="10" text-anchor="middle"></text><text x="516.25" y="290" font-size="10" text-anchor="middle"></text><text x="529.75" y="290" font-size="10" text-anchor="middle"></text><text x="543.25" y="290" font-size="10" text-anchor="middle"></text><text x="556.75" y="290" font-size="10" text-anchor="middle"></text><text x="570.25" y="290" font-size="10" text-anchor="middle"></text></g></svg>