<?xml version='1.0' encoding='utf-8'?><!DOCTYPE svg PUBLIC '-//W3C//DTD SVG 1.1//EN' 'http://www.w3.org/Graphics/SVG/1.1/DTD/svg11.dtd'><svg height="300" width="600"><g><line y1="20" y2="280" x1="20" x2="20" style="stroke: #000000;"></line><text x="0" y="25" font-size="10">100</text><text x="12" y="280" font-size="10">0</text><line x1="20" x2="580" y1="280" y2="280" style="stroke: #000000;"></line><rect style="stroke: #000000; fill: none;" x="40" y="251.07438016528926" width="30" height="28.92561983471074"></rect><rect style="stroke: #000000; fill: none;" x="94" y="109.33884297520663" width="30" height="170.66115702479337"></rect><rect style="stroke: #000000; fill: none;" x="148" y="25.454545454545496" width="30" height="254.5454545454545"></rect><rect style="stroke: #000000; fill: none;" x="202.00000000000003" y="184.54545454545456" width="30" height="95.45454545454545"></rect><rect style="stroke: #000000; fill: none;" x="256" y="207.68595041322317" width="30" height="72.31404958677685"></rect><rect style="stroke: #000000; fill: none;" x="310" y="155.61983471074382" width="30" height="124.38016528925618"></rect><rect style="stroke: #000000; fill: none;" x="364.00000000000006" y="193.22314049586777" width="30" height="86.77685950413222"></rect><rect style="stroke: #000000; fill: none;" x="418.00000000000006" y="106.44628099173556" width="30" height="173.55371900826444"></rect><rect style="stroke: #000000; fill: none;" x="472" y="149.83471074380168" width="30" height="130.16528925619832"></rect><rect style="stroke: #000000; fill: none;" x="526" y="167.19008264462812" width="30" height="112.80991735537188"></rect></g><g><text x="55" y="290" font-size="10" text-anchor="middle">A</text><text x="109" y="290" font-size="10" text-anchor="middle"></text><text x="163" y="290" font-size="10" text-anchor="middle"></text><text x="217.00000000000003" y="290" font-size="10" text-anchor="middle"></text><text x="271" y="290" font-size="10" text-anchor="middle"></text><text x="325" y="290" font-size="10" text-anchor="middle"></text><text x="379.00000000000006" y="290" font-size="10" text-anchor="middle">B</text><text x="433.00000000000006" y="290" font-size="10" text-anchor="middle"></text><text x="487" y="290" font-size="10" text-anchor="middle"></text><text x="541" y="290" font-size="10" text-anchor="middle"></text></g></svg>