<?xml version='1.0' encoding='utf-8'?><!DOCTYPE svg PUBLIC '-//W3C//DTD SVG 1.1//EN' 'http://www.w3.org/Graphics/SVG/1.1/DTD/svg11.dtd'><svg height="300" width="600"><g><line y1="20" y2="280" x1="20" x2="20" style="stroke: #000000;"></line><text x="0" y="25" font-size="10">100</text><text x="12" y="280" font-size="10">0</text><line x1="20" x2="580" y1="280" y2="280" style="stroke: #000000;"></line><rect style="stroke: #000000; fill: none;" x="40" y="123.74437443744375" width="7.5" height="156.25562556255625"></rect><rect style="stroke: #000000; fill: none;" x="53.5" y="219.51395139513951" width="7.5" height="60.48604860486048"></rect><rect style="stroke: #000000; fill: none;" x="67" y="108.62286228622864" width="7.5" height="171.37713771377136"></rect><rect style="stroke: #000000; fill: none;" x="80.5" y="257.31773177317734" width="7.5" height="22.682268226822682"></rect><rect style="stroke: #000000; fill: none;" x="94" y="43.096309630963134" width="7.5" height="236.90369036903687"></rect><rect style="stroke: #000000; fill: none;" x="107.5" y="25.454545454545496" width="7.5" height="254.5454545454545"></rect><rect style="stroke: #000000; fill: none;" x="121.00000000000001" y="98.54185418541854" width="7.5" height="181.45814581458146"></rect><rect style="stroke: #000000; fill: none;" x="134.5" y="159.02790279027903" width="7.5" height="120.97209720972096"></rect><rect style="stroke: #000000; fill: none;" x="148" y="239.67596759675968" width="7.5" height="40.32403240324032"></rect><rect style="stroke: #000000; fill: none;" x="161.5" y="169.10891089108912" width="7.5" height="110.89108910891086"></rect><rect style="stroke: #000000; fill: none;" x="175" y="201.87218721872188" width="7.5" height="78.12781278127812"></rect><rect style="stroke: #000000; fill: none;" x="188.5" y="186.75067506750676" width="7.5" height="93.24932493249324"></rect><rect style="stroke: #000000; fill: none;" x="202.00000000000003" y="35.53555355535559" width="7.5" height="244.4644464446444"></rect><rect style="stroke: #000000; fill: none;" x="215.5" y="151.4671467146715" width="7.5" height="128.5328532853285"></rect><rect style="stroke: #000000; fill: none;" x="229.00000000000003" y="116.18361836183621" width="7.5" height="163.8163816381638"></rect><rect style="stroke: #000000; fill: none;" x="242.5" y="161.54815481548155" width="7.5" height="118.45184518451843"></rect><rect style="stroke: #000000; fill: none;" x="256" y="211.95319531953197" width="7.5" height="68.04680468046803"></rect><rect style="stroke: #000000; fill: none;" x="269.5" y="222.03420342034204" width="7.5" height="57.965796579657955"></rect><rect style="stroke: #000000; fill: none;" x="283" y="111.14311431143116" width="7.5" height="168.85688568856884"></rect><rect style="stroke: #000000; fill: none;" x="296.5" y="103.58235823582362" width="7.5" height="176.41764176417638"></rect><rect style="stroke: #000000; fill: none;" x="310" y="118.70387038703873" width="7.5" height="161.29612961296127"></rect><rect style="stroke: #000000; fill: none;" x="323.5" y="206.91269126912692" width="7.5" height="73.08730873087308"></rect><rect style="stroke: #000000; fill: none;" x="337" y="70.81908190819084" width="7.5" height="209.18091809180916"></rect><rect style="stroke: #000000; fill: none;" x="350.50000000000006" y="196.83168316831686" width="7.5" height="83.16831683168314"></rect><rect style="stroke: #000000; fill: none;" x="364.00000000000006" y="63.258325832583296" width="7.5" height="216.7416741674167"></rect><rect style="stroke: #000000; fill: none;" x="377.5" y="191.7911791179118" width="7.5" height="88.20882088208819"></rect><rect style="stroke: #000000; fill: none;" x="391" y="247.23672367236725" width="7.5" height="32.76327632763276"></rect><rect style="stroke: #000000; fill: none;" x="404.5" y="171.62916291629165" width="7.5" height="108.37083708370835"></rect><rect style="stroke: #000000; fill: none;" x="418.00000000000006" y="101.0621062106211" width="7.5" height="178.9378937893789"></rect><rect style="stroke: #000000; fill: none;" x="431.50000000000006" y="27.97479747974802" width="7.5" height="252.02520252025198"></rect><rect style="stroke: #000000; fill: none;" x="445" y="60.73807380738077" width="7.5" height="219.26192619261923"></rect><rect style="stroke: #000000; fill: none;" x="458.5" y="48.13681368136818" width="7.5" height="231.86318631863182"></rect><rect style="stroke: #000000; fill: none;" x="472" y="146.42664266426644" width="7.5" height="133.57335733573356"></rect><rect style="stroke: #000000; fill: none;" x="485.50000000000006" y="88.4608460846085" width="7.5" height="191.5391539153915"></rect><rect style="stroke: #000000; fill: none;" x="499.00000000000006" y="237.15571557155715" width="7.5" height="42.84428442844284"></rect><rect style="stroke: #000000; fill: none;" x="512.5" y="131.30513051305132" width="7.5" height="148.69486948694868"></rect><rect style="stroke: #000000; fill: none;" x="526" y="121.22412241224126" width="7.5" height="158.77587758775874"></rect><rect style="stroke: #000000; fill: none;" x="539.5" y="138.8658865886589" width="7.5" height="141.1341134113411"></rect><rect style="stroke: #000000; fill: none;" x="553" y="267.3987398739874" width="7.5" height="12.6012601260126"></rect><rect style="stroke: #000000; fill: none;" x="566.5" y="30.495049504950515" width="7.5" height="249.50495049504948"></rect></g><g><text x="43.75" y="290" font-size="10" text-anchor="middle"></text><text x="57.25" y="290" font-size="10" text-anchor="middle"></text><text x="70.75" y="290" font-size="10" text-anchor="middle"></text><text x="84.25" y="290" font-size="10" text-anchor="middle"></text><text x="97.75" y="290" font-size="10" text-anchor="middle"></text><text x="111.25" y="290" font-size="10" text-anchor="middle"></text><text x="124.75000000000001" y="290" font-size="10" text-anchor="middle"></text><text x="138.25" y="290" font-size="10" text-anchor="middle"></text><text x="151.75" y="290" font-size="10" text-anchor="middle">B</text><text x="165.25" y="290" font-size="10" text-anchor="middle"></text><text x="178.75" y="290" font-size="10" text-anchor="middle"></text><text x="192.25" y="290" font-size="10" text-anchor="middle"></text><text x="205.75000000000003" y="290" font-size="10" text-anchor="middle"></text><text x="219.25" y="290" font-size="10" text-anchor="middle"></text><text x="232.75000000000003" y="290" font-size="10" text-anchor="middle"></text><text x="246.25" y="290" font-size="10" text-anchor="middle"></text><text x="259.75" y="290" font-size="10" text-anchor="middle"></text><text x="273.25" y="290" font-size="10" text-anchor="middle"></text><text x="286.75" y="290" font-size="10" text-anchor="middle"></text><text x="300.25" y="290" font-size="10" text-anchor="middle"></text><text x="313.75" y="290" font-size="10" text-anchor="middle"></text><text x="327.25" y="290" font-size="10" text-anchor="middle"></text><text x="340.75" y="290" font-size="10" text-anchor="middle"></text><text x="354.25000000000006" y="290" font-size="10" text-anchor="middle"></text><text x="367.75000000000006" y="290" font-size="10" text-anchor="middle"></text><text x="381.25" y="290" font-size="10" text-anchor="middle"></text><text x="394.75" y="290" font-size="10" text-anchor="middle"></text><text x="408.25" y="290" font-size="10" text-anchor="middle"></text><text x="421.75000000000006" y="290" font-size="10" text-anchor="middle"></text><text x="435.25000000000006" y="290" font-size="10" text-anchor="middle">A</text><text x="448.75" y="290" font-size="10" text-anchor="middle"></text><text x="462.25" y="290" font-size="10" text-anchor="middle"></text><text x="475.75" y="290" font-size="10" text-anchor="middle"></text><text x="489.25000000000006" y="290" font-size="10" text-anchor="middle"></text><text x="502.75000000000006" y="290" font-size="10" text-anchor="middle"></text><text x="516.25" y="290" font-size="10" text-anchor="middle"></text><text x="529.75" y="290" font-size="10" text-anchor="middle"></text><text x="543.25" y="290" font-size="10" text-anchor="middle"></text><text x="556.75" y="290" font-size="10" text-anchor="middle"></text><text x="570.25" y="290" font-size="10" text-anchor="middle"></text></g></svg>