<?xml version='1.0' encoding='utf-8'?><!DOCTYPE svg PUBLIC '-//W3C//DTD SVG 1.1//EN' 'http://www.w3.org/Graphics/SVG/1.1/DTD/svg11.dtd'><svg height="300" width="600"><g><line y1="20" y2="280" x1="20" x2="20" style="stroke: #000000;"></line><text x="0" y="25" font-size="10">100</text><text x="12" y="280" font-size="10">0</text><line x1="20" x2="580" y1="280" y2="280" style="stroke: #000000;"></line><rect style="stroke: #000000; fill: none;" x="40" y="196.83168316831686" width="7.5" height="83.16831683168314"></rect><rect style="stroke: #000000; fill: none;" x="53.5" y="133.82538253825385" width="7.5" height="146.17461746174615"></rect><rect style="stroke: #000000; fill: none;" x="67" y="103.58235823582362" width="7.5" height="176.41764176417638"></rect><rect style="stroke: #000000; fill: none;" x="80.5" y="161.54815481548155" width="7.5" height="118.45184518451843"></rect><rect style="stroke: #000000; fill: none;" x="94" y="118.70387038703873" width="7.5" height="161.29612961296127"></rect><rect style="stroke: #000000; fill: none;" x="107.5" y="121.22412241224126" width="7.5" height="158.77587758775874"></rect><rect style="stroke: #000000; fill: none;" x="121.00000000000001" y="201.87218721872188" width="7.5" height="78.12781278127812"></rect><rect style="stroke: #000000; fill: none;" x="134.5" y="269.9189918991899" width="7.5" height="10.08100810081008"></rect><rect style="stroke: #000000; fill: none;" x="148" y="257.31773177317734" width="7.5" height="22.682268226822682"></rect><rect style="stroke: #000000; fill: none;" x="161.5" y="143.90639063906394" width="7.5" height="136.09360936093606"></rect><rect style="stroke: #000000; fill: none;" x="175" y="148.94689468946896" width="7.5" height="131.05310531053104"></rect><rect style="stroke: #000000; fill: none;" x="188.5" y="136.34563456345637" width="7.5" height="143.65436543654363"></rect><rect style="stroke: #000000; fill: none;" x="202.00000000000003" y="65.77857785778582" width="7.5" height="214.22142214221418"></rect><rect style="stroke: #000000; fill: none;" x="215.5" y="90.981098109811" width="7.5" height="189.018901890189"></rect><rect style="stroke: #000000; fill: none;" x="229.00000000000003" y="88.4608460846085" width="7.5" height="191.5391539153915"></rect><rect style="stroke: #000000; fill: none;" x="242.5" y="254.79747974797482" width="7.5" height="25.2025202520252"></rect><rect style="stroke: #000000; fill: none;" x="256" y="60.73807380738077" width="7.5" height="219.26192619261923"></rect><rect style="stroke: #000000; fill: none;" x="269.5" y="239.67596759675968" width="7.5" height="40.32403240324032"></rect><rect style="stroke: #000000; fill: none;" x="283" y="33.01530153015307" width="7.5" height="246.98469846984693"></rect><rect style="stroke: #000000; fill: none;" x="296.5" y="194.3114311431143" width="7.5" height="85.68856885688568"></rect><rect style="stroke: #000000; fill: none;" x="310" y="25.454545454545496" width="7.5" height="254.5454545454545"></rect><rect style="stroke: #000000; fill: none;" x="323.5" y="68.29882988298831" width="7.5" height="211.70117011701169"></rect><rect style="stroke: #000000; fill: none;" x="337" y="50.657065706570705" width="7.5" height="229.3429342934293"></rect><rect style="stroke: #000000; fill: none;" x="350.50000000000006" y="138.8658865886589" width="7.5" height="141.1341134113411"></rect><rect style="stroke: #000000; fill: none;" x="364.00000000000006" y="38.055805580558086" width="7.5" height="241.9441944194419"></rect><rect style="stroke: #000000; fill: none;" x="377.5" y="53.1773177317732" width="7.5" height="226.8226822682268"></rect><rect style="stroke: #000000; fill: none;" x="391" y="153.987398739874" width="7.5" height="126.01260126012599"></rect><rect style="stroke: #000000; fill: none;" x="404.5" y="169.10891089108912" width="7.5" height="110.89108910891086"></rect><rect style="stroke: #000000; fill: none;" x="418.00000000000006" y="179.18991899189922" width="7.5" height="100.8100810081008"></rect><rect style="stroke: #000000; fill: none;" x="431.50000000000006" y="211.95319531953197" width="7.5" height="68.04680468046803"></rect><rect style="stroke: #000000; fill: none;" x="445" y="93.50135013501352" width="7.5" height="186.49864986498648"></rect><rect style="stroke: #000000; fill: none;" x="458.5" y="242.1962196219622" width="7.5" height="37.80378037803779"></rect><rect style="stroke: #000000; fill: none;" x="472" y="128.78487848784883" width="7.5" height="151.21512151215117"></rect><rect style="stroke: #000000; fill: none;" x="485.50000000000006" y="229.5949594959496" width="7.5" height="50.4050405040504"></rect><rect style="stroke: #000000; fill: none;" x="499.00000000000006" y="83.42034203420343" width="7.5" height="196.57965796579657"></rect><rect style="stroke: #000000; fill: none;" x="512.5" y="159.02790279027903" width="7.5" height="120.97209720972096"></rect><rect style="stroke: #000000; fill: none;" x="526" y="156.50765076507653" width="7.5" height="123.49234923492347"></rect><rect style="stroke: #000000; fill: none;" x="539.5" y="249.75697569756977" width="7.5" height="30.24302430243024"></rect><rect style="stroke: #000000; fill: none;" x="553" y="252.2772277227723" width="7.5" height="27.722772277227715"></rect><rect style="stroke: #000000; fill: none;" x="566.5" y="123.74437443744375" width="7.5" height="156.25562556255625"></rect></g><g><text x="43.75" y="290" font-size="10" text-anchor="middle"></text><text x="57.25" y="290" font-size="10" text-anchor="middle"></text><text x="70.75" y="290" font-size="10" text-anchor="middle"></text><text x="84.25" y="290" font-size="10" text-anchor="middle"></text><text x="97.75" y="290" font-size="10" text-anchor="middle"></text><text x="111.25" y="290" font-size="10" text-anchor="middle"></text><text x="124.75000000000001" y="290" font-size="10" text-anchor="middle"></text><text x="138.25" y="290" font-size="10" text-anchor="middle"></text><text x="151.75" y="290" font-size="10" text-anchor="middle"></text><text x="165.25" y="290" font-size="10" text-anchor="middle"></text><text x="178.75" y="290" font-size="10" text-anchor="middle"></text><text x="192.25" y="290" font-size="10" text-anchor="middle"></text><text x="205.75000000000003" y="290" font-size="10" text-anchor="middle"></text><text x="219.25" y="290" font-size="10" text-anchor="middle"></text><text x="232.75000000000003" y="290" font-size="10" text-anchor="middle"></text><text x="246.25" y="290" font-size="10" text-anchor="middle"></text><text x="259.75" y="290" font-size="10" text-anchor="middle">B</text><text x="273.25" y="290" font-size="10" text-anchor="middle"></text><text x="286.75" y="290" font-size="10" text-anchor="middle"></text><text x="300.25" y="290" font-size="10" text-anchor="middle"></text><text x="313.75" y="290" font-size="10" text-anchor="middle"></text><text x="327.25" y="290" font-size="10" text-anchor="middle"></text><text x="340.75" y="290" font-size="10" text-anchor="middle"></text><text x="354.25000000000006" y="290" font-size="10" text-anchor="middle"></text><text x="367.75000000000006" y="290" font-size="10" text-anchor="middle"></text><text x="381.25" y="290" font-size="10" text-anchor="middle"></text><text x="394.75" y="290" font-size="10" text-anchor="middle"></text><text x="408.25" y="290" font-size="10" text-anchor="middle"></text><text x="421.75000000000006" y="290" font-size="10" text-anchor="middle"></text><text x="435.25000000000006" y="290" font-size="10" text-anchor="middle"></text><text x="448.75" y="290" font-size="10" text-anchor="middle"></text><text x="462.25" y="290" font-size="10" text-anchor="middle"></text><text x="475.75" y="290" font-size="10" text-anchor="middle"></text><text x="489.25000000000006" y="290" font-size="10" text-anchor="middle"></text><text x="502.75000000000006" y="290" font-size="10" text-anchor="middle"></text><text x="516.25" y="290" font-size="10" text-anchor="middle"></text><text x="529.75" y="290" font-size="10" text-anchor="middle"></text><text x="543.25" y="290" font-size="10" text-anchor="middle">A</text><text x="556.75" y="290" font-size="10" text-anchor="middle"></text><text x="570.25" y="290" font-size="10" text-anchor="middle"></text></g></svg>