<?xml version='1.0' encoding='utf-8'?><!DOCTYPE svg PUBLIC '-//W3C//DTD SVG 1.1//EN' 'http://www.w3.org/Graphics/SVG/1.1/DTD/svg11.dtd'><svg height="300" width="600"><g><line y1="20" y2="280" x1="20" x2="20" style="stroke: #000000;"></line><text x="0" y="25" font-size="10">100</text><text x="12" y="280" font-size="10">0</text><line x1="20" x2="580" y1="280" y2="280" style="stroke: #000000;"></line><rect style="stroke: #000000; fill: none;" x="40" y="67.44142455482665" width="7.5" height="212.55857544517335"></rect><rect style="stroke: #000000; fill: none;" x="53.5" y="75.31396438612936" width="7.5" height="204.68603561387064"></rect><rect style="stroke: #000000; fill: none;" x="67" y="182.90534208059984" width="7.5" height="97.09465791940018"></rect><rect style="stroke: #000000; fill: none;" x="80.5" y="214.3955014058107" width="7.5" height="65.60449859418931"></rect><rect style="stroke: #000000; fill: none;" x="94" y="240.6373008434864" width="7.5" height="39.362699156513585"></rect><rect style="stroke: #000000; fill: none;" x="107.5" y="64.81724461105904" width="7.5" height="215.18275538894096"></rect><rect style="stroke: #000000; fill: none;" x="121.00000000000001" y="259.0065604498594" width="7.5" height="20.99343955014058"></rect><rect style="stroke: #000000; fill: none;" x="134.5" y="56.944704779756364" width="7.5" height="223.05529522024364"></rect><rect style="stroke: #000000; fill: none;" x="148" y="264.25492033739454" width="7.5" height="15.745079662605436"></rect><rect style="stroke: #000000; fill: none;" x="161.5" y="224.892221180881" width="7.5" height="55.10777881911902"></rect><rect style="stroke: #000000; fill: none;" x="175" y="206.52296157450797" width="7.5" height="73.47703842549203"></rect><rect style="stroke: #000000; fill: none;" x="188.5" y="109.42830365510781" width="7.5" height="170.5716963448922"></rect><rect style="stroke: #000000; fill: none;" x="202.00000000000003" y="85.81068416119965" width="7.5" height="194.18931583880035"></rect><rect style="stroke: #000000; fill: none;" x="215.5" y="77.93814432989691" width="7.5" height="202.06185567010309"></rect><rect style="stroke: #000000; fill: none;" x="229.00000000000003" y="190.77788191190254" width="7.5" height="89.22211808809746"></rect><rect style="stroke: #000000; fill: none;" x="242.5" y="127.7975632614808" width="7.5" height="152.2024367385192"></rect><rect style="stroke: #000000; fill: none;" x="256" y="227.51640112464855" width="7.5" height="52.48359887535145"></rect><rect style="stroke: #000000; fill: none;" x="269.5" y="185.5295220243674" width="7.5" height="94.47047797563262"></rect><rect style="stroke: #000000; fill: none;" x="283" y="274.7516401124649" width="7.5" height="5.248359887535145"></rect><rect style="stroke: #000000; fill: none;" x="296.5" y="222.2680412371134" width="7.5" height="57.73195876288659"></rect><rect style="stroke: #000000; fill: none;" x="310" y="203.89878163074042" width="7.5" height="76.1012183692596"></rect><rect style="stroke: #000000; fill: none;" x="323.5" y="230.1405810684161" width="7.5" height="49.859418931583875"></rect><rect style="stroke: #000000; fill: none;" x="337" y="41.19962511715093" width="7.5" height="238.80037488284907"></rect><rect style="stroke: #000000; fill: none;" x="350.50000000000006" y="245.88566073102157" width="7.5" height="34.11433926897844"></rect><rect style="stroke: #000000; fill: none;" x="364.00000000000006" y="46.447985004686046" width="7.5" height="233.55201499531395"></rect><rect style="stroke: #000000; fill: none;" x="377.5" y="49.07216494845363" width="7.5" height="230.92783505154637"></rect><rect style="stroke: #000000; fill: none;" x="391" y="253.7582005623243" width="7.5" height="26.241799437675724"></rect><rect style="stroke: #000000; fill: none;" x="404.5" y="248.50984067478913" width="7.5" height="31.490159325210872"></rect><rect style="stroke: #000000; fill: none;" x="418.00000000000006" y="196.02624179943768" width="7.5" height="83.97375820056232"></rect><rect style="stroke: #000000; fill: none;" x="431.50000000000006" y="269.5032802249297" width="7.5" height="10.49671977507029"></rect><rect style="stroke: #000000; fill: none;" x="445" y="25.454545454545467" width="7.5" height="254.54545454545453"></rect><rect style="stroke: #000000; fill: none;" x="458.5" y="130.42174320524836" width="7.5" height="149.57825679475164"></rect><rect style="stroke: #000000; fill: none;" x="472" y="188.15370196813495" width="7.5" height="91.84629803186503"></rect><rect style="stroke: #000000; fill: none;" x="485.50000000000006" y="83.18650421743206" width="7.5" height="196.81349578256794"></rect><rect style="stroke: #000000; fill: none;" x="499.00000000000006" y="161.91190253045926" width="7.5" height="118.08809746954076"></rect><rect style="stroke: #000000; fill: none;" x="512.5" y="135.6701030927835" width="7.5" height="144.3298969072165"></rect><rect style="stroke: #000000; fill: none;" x="526" y="266.87910028116215" width="7.5" height="13.120899718837862"></rect><rect style="stroke: #000000; fill: none;" x="539.5" y="177.65698219306466" width="7.5" height="102.34301780693532"></rect><rect style="stroke: #000000; fill: none;" x="553" y="104.17994376757264" width="7.5" height="175.82005623242736"></rect><rect style="stroke: #000000; fill: none;" x="566.5" y="28.078725398313026" width="7.5" height="251.92127460168697"></rect></g><g><text x="43.75" y="290" font-size="10" text-anchor="middle"></text><text x="57.25" y="290" font-size="10" text-anchor="middle"></text><text x="70.75" y="290" font-size="10" text-anchor="middle"></text><text x="84.25" y="290" font-size="10" text-anchor="middle"></text><text x="97.75" y="290" font-size="10" text-anchor="middle"></text><text x="111.25" y="290" font-size="10" text-anchor="middle"></text><text x="124.75000000000001" y="290" font-size="10" text-anchor="middle"></text><text x="138.25" y="290" font-size="10" text-anchor="middle"></text><text x="151.75" y="290" font-size="10" text-anchor="middle"></text><text x="165.25" y="290" font-size="10" text-anchor="middle">B</text><text x="178.75" y="290" font-size="10" text-anchor="middle"></text><text x="192.25" y="290" font-size="10" text-anchor="middle"></text><text x="205.75000000000003" y="290" font-size="10" text-anchor="middle"></text><text x="219.25" y="290" font-size="10" text-anchor="middle"></text><text x="232.75000000000003" y="290" font-size="10" text-anchor="middle"></text><text x="246.25" y="290" font-size="10" text-anchor="middle"></text><text x="259.75" y="290" font-size="10" text-anchor="middle"></text><text x="273.25" y="290" font-size="10" text-anchor="middle"></text><text x="286.75" y="290" font-size="10" text-anchor="middle"></text><text x="300.25" y="290" font-size="10" text-anchor="middle"></text><text x="313.75" y="290" font-size="10" text-anchor="middle"></text><text x="327.25" y="290" font-size="10" text-anchor="middle"></text><text x="340.75" y="290" font-size="10" text-anchor="middle"></text><text x="354.25000000000006" y="290" font-size="10" text-anchor="middle"></text><text x="367.75000000000006" y="290" font-size="10" text-anchor="middle"></text><text x="381.25" y="290" font-size="10" text-anchor="middle"></text><text x="394.75" y="290" font-size="10" text-anchor="middle"></text><text x="408.25" y="290" font-size="10" text-anchor="middle"></text><text x="421.75000000000006" y="290" font-size="10" text-anchor="middle"></text><text x="435.25000000000006" y="290" font-size="10" text-anchor="middle"></text><text x="448.75" y="290" font-size="10" text-anchor="middle">A</text><text x="462.25" y="290" font-size="10" text-anchor="middle"></text><text x="475.75" y="290" font-size="10" text-anchor="middle"></text><text x="489.25000000000006" y="290" font-size="10" text-anchor="middle"></text><text x="502.75000000000006" y="290" font-size="10" text-anchor="middle"></text><text x="516.25" y="290" font-size="10" text-anchor="middle"></text><text x="529.75" y="290" font-size="10" text-anchor="middle"></text><text x="543.25" y="290" font-size="10" text-anchor="middle"></text><text x="556.75" y="290" font-size="10" text-anchor="middle"></text><text x="570.25" y="290" font-size="10" text-anchor="middle"></text></g></svg>