<?xml version='1.0' encoding='utf-8'?><!DOCTYPE svg PUBLIC '-//W3C//DTD SVG 1.1//EN' 'http://www.w3.org/Graphics/SVG/1.1/DTD/svg11.dtd'><svg height="300" width="600"><g><line y1="20" y2="280" x1="20" x2="20" style="stroke: #000000;"></line><text x="0" y="25" font-size="10">100</text><text x="12" y="280" font-size="10">0</text><line x1="20" x2="580" y1="280" y2="280" style="stroke: #000000;"></line><rect style="stroke: #000000; fill: none;" x="40" y="253.4848484848485" width="30" height="26.515151515151512"></rect><rect style="stroke: #000000; fill: none;" x="94" y="226.96969696969697" width="30" height="53.030303030303024"></rect><rect style="stroke: #000000; fill: none;" x="148" y="99.69696969696975" width="30" height="180.30303030303025"></rect><rect style="stroke: #000000; fill: none;" x="202.00000000000003" y="158.03030303030306" width="30" height="121.96969696969695"></rect><rect style="stroke: #000000; fill: none;" x="256" y="237.57575757575756" width="30" height="42.424242424242415"></rect><rect style="stroke: #000000; fill: none;" x="310" y="25.454545454545496" width="30" height="254.5454545454545"></rect><rect style="stroke: #000000; fill: none;" x="364.00000000000006" y="112.9545454545455" width="30" height="167.0454545454545"></rect><rect style="stroke: #000000; fill: none;" x="418.00000000000006" y="192.5" width="30" height="87.49999999999999"></rect><rect style="stroke: #000000; fill: none;" x="472" y="176.59090909090912" width="30" height="103.40909090909089"></rect><rect style="stroke: #000000; fill: none;" x="526" y="118.25757575757578" width="30" height="161.74242424242422"></rect></g><g><text x="55" y="290" font-size="10" text-anchor="middle">A</text><text x="109" y="290" font-size="10" text-anchor="middle"></text><text x="163" y="290" font-size="10" text-anchor="middle"></text><text x="217.00000000000003" y="290" font-size="10" text-anchor="middle"></text><text x="271" y="290" font-size="10" text-anchor="middle">B</text><text x="325" y="290" font-size="10" text-anchor="middle"></text><text x="379.00000000000006" y="290" font-size="10" text-anchor="middle"></text><text x="433.00000000000006" y="290" font-size="10" text-anchor="middle"></text><text x="487" y="290" font-size="10" text-anchor="middle"></text><text x="541" y="290" font-size="10" text-anchor="middle"></text></g></svg>