<?xml version='1.0' encoding='utf-8'?><!DOCTYPE svg PUBLIC '-//W3C//DTD SVG 1.1//EN' 'http://www.w3.org/Graphics/SVG/1.1/DTD/svg11.dtd'><svg height="300" width="600"><g><line y1="20" y2="280" x1="20" x2="20" style="stroke: #000000;"></line><text x="0" y="25" font-size="10">100</text><text x="12" y="280" font-size="10">0</text><line x1="20" x2="580" y1="280" y2="280" style="stroke: #000000;"></line><rect style="stroke: #000000; fill: none;" x="40" y="88.4608460846085" width="7.5" height="191.5391539153915"></rect><rect style="stroke: #000000; fill: none;" x="53.5" y="141.3861386138614" width="7.5" height="138.6138613861386"></rect><rect style="stroke: #000000; fill: none;" x="67" y="194.3114311431143" width="7.5" height="85.68856885688568"></rect><rect style="stroke: #000000; fill: none;" x="80.5" y="166.5886588658866" width="7.5" height="113.4113411341134"></rect><rect style="stroke: #000000; fill: none;" x="94" y="128.78487848784883" width="7.5" height="151.21512151215117"></rect><rect style="stroke: #000000; fill: none;" x="107.5" y="242.1962196219622" width="7.5" height="37.80378037803779"></rect><rect style="stroke: #000000; fill: none;" x="121.00000000000001" y="257.31773177317734" width="7.5" height="22.682268226822682"></rect><rect style="stroke: #000000; fill: none;" x="134.5" y="244.71647164716472" width="7.5" height="35.283528352835276"></rect><rect style="stroke: #000000; fill: none;" x="148" y="96.02160216021605" width="7.5" height="183.97839783978395"></rect><rect style="stroke: #000000; fill: none;" x="161.5" y="75.85958595859589" width="7.5" height="204.1404140414041"></rect><rect style="stroke: #000000; fill: none;" x="175" y="249.75697569756977" width="7.5" height="30.24302430243024"></rect><rect style="stroke: #000000; fill: none;" x="188.5" y="239.67596759675968" width="7.5" height="40.32403240324032"></rect><rect style="stroke: #000000; fill: none;" x="202.00000000000003" y="234.63546354635463" width="7.5" height="45.364536453645364"></rect><rect style="stroke: #000000; fill: none;" x="215.5" y="101.0621062106211" width="7.5" height="178.9378937893789"></rect><rect style="stroke: #000000; fill: none;" x="229.00000000000003" y="103.58235823582362" width="7.5" height="176.41764176417638"></rect><rect style="stroke: #000000; fill: none;" x="242.5" y="211.95319531953197" width="7.5" height="68.04680468046803"></rect><rect style="stroke: #000000; fill: none;" x="256" y="252.2772277227723" width="7.5" height="27.722772277227715"></rect><rect style="stroke: #000000; fill: none;" x="269.5" y="70.81908190819084" width="7.5" height="209.18091809180916"></rect><rect style="stroke: #000000; fill: none;" x="283" y="63.258325832583296" width="7.5" height="216.7416741674167"></rect><rect style="stroke: #000000; fill: none;" x="296.5" y="161.54815481548155" width="7.5" height="118.45184518451843"></rect><rect style="stroke: #000000; fill: none;" x="310" y="90.981098109811" width="7.5" height="189.018901890189"></rect><rect style="stroke: #000000; fill: none;" x="323.5" y="262.3582358235824" width="7.5" height="17.641764176417638"></rect><rect style="stroke: #000000; fill: none;" x="337" y="27.97479747974802" width="7.5" height="252.02520252025198"></rect><rect style="stroke: #000000; fill: none;" x="350.50000000000006" y="116.18361836183621" width="7.5" height="163.8163816381638"></rect><rect style="stroke: #000000; fill: none;" x="364.00000000000006" y="25.454545454545496" width="7.5" height="254.5454545454545"></rect><rect style="stroke: #000000; fill: none;" x="377.5" y="229.5949594959496" width="7.5" height="50.4050405040504"></rect><rect style="stroke: #000000; fill: none;" x="391" y="259.83798379837987" width="7.5" height="20.16201620162016"></rect><rect style="stroke: #000000; fill: none;" x="404.5" y="174.14941494149417" width="7.5" height="105.85058505850584"></rect><rect style="stroke: #000000; fill: none;" x="418.00000000000006" y="113.66336633663371" width="7.5" height="166.33663366336629"></rect><rect style="stroke: #000000; fill: none;" x="431.50000000000006" y="171.62916291629165" width="7.5" height="108.37083708370835"></rect><rect style="stroke: #000000; fill: none;" x="445" y="222.03420342034204" width="7.5" height="57.965796579657955"></rect><rect style="stroke: #000000; fill: none;" x="458.5" y="48.13681368136818" width="7.5" height="231.86318631863182"></rect><rect style="stroke: #000000; fill: none;" x="472" y="254.79747974797482" width="7.5" height="25.2025202520252"></rect><rect style="stroke: #000000; fill: none;" x="485.50000000000006" y="146.42664266426644" width="7.5" height="133.57335733573356"></rect><rect style="stroke: #000000; fill: none;" x="499.00000000000006" y="209.43294329432945" width="7.5" height="70.56705670567055"></rect><rect style="stroke: #000000; fill: none;" x="512.5" y="65.77857785778582" width="7.5" height="214.22142214221418"></rect><rect style="stroke: #000000; fill: none;" x="526" y="45.61656165616566" width="7.5" height="234.38343834383434"></rect><rect style="stroke: #000000; fill: none;" x="539.5" y="267.3987398739874" width="7.5" height="12.6012601260126"></rect><rect style="stroke: #000000; fill: none;" x="553" y="181.71017101710171" width="7.5" height="98.28982898289829"></rect><rect style="stroke: #000000; fill: none;" x="566.5" y="264.87848784878486" width="7.5" height="15.12151215121512"></rect></g><g><text x="43.75" y="290" font-size="10" text-anchor="middle"></text><text x="57.25" y="290" font-size="10" text-anchor="middle"></text><text x="70.75" y="290" font-size="10" text-anchor="middle"></text><text x="84.25" y="290" font-size="10" text-anchor="middle"></text><text x="97.75" y="290" font-size="10" text-anchor="middle"></text><text x="111.25" y="290" font-size="10" text-anchor="middle"></text><text x="124.75000000000001" y="290" font-size="10" text-anchor="middle"></text><text x="138.25" y="290" font-size="10" text-anchor="middle"></text><text x="151.75" y="290" font-size="10" text-anchor="middle"></text><text x="165.25" y="290" font-size="10" text-anchor="middle"></text><text x="178.75" y="290" font-size="10" text-anchor="middle"></text><text x="192.25" y="290" font-size="10" text-anchor="middle">B</text><text x="205.75000000000003" y="290" font-size="10" text-anchor="middle"></text><text x="219.25" y="290" font-size="10" text-anchor="middle"></text><text x="232.75000000000003" y="290" font-size="10" text-anchor="middle"></text><text x="246.25" y="290" font-size="10" text-anchor="middle"></text><text x="259.75" y="290" font-size="10" text-anchor="middle"></text><text x="273.25" y="290" font-size="10" text-anchor="middle"></text><text x="286.75" y="290" font-size="10" text-anchor="middle"></text><text x="300.25" y="290" font-size="10" text-anchor="middle"></text><text x="313.75" y="290" font-size="10" text-anchor="middle"></text><text x="327.25" y="290" font-size="10" text-anchor="middle"></text><text x="340.75" y="290" font-size="10" text-anchor="middle"></text><text x="354.25000000000006" y="290" font-size="10" text-anchor="middle"></text><text x="367.75000000000006" y="290" font-size="10" text-anchor="middle"></text><text x="381.25" y="290" font-size="10" text-anchor="middle"></text><text x="394.75" y="290" font-size="10" text-anchor="middle"></text><text x="408.25" y="290" font-size="10" text-anchor="middle"></text><text x="421.75000000000006" y="290" font-size="10" text-anchor="middle"></text><text x="435.25000000000006" y="290" font-size="10" text-anchor="middle"></text><text x="448.75" y="290" font-size="10" text-anchor="middle"></text><text x="462.25" y="290" font-size="10" text-anchor="middle"></text><text x="475.75" y="290" font-size="10" text-anchor="middle">A</text><text x="489.25000000000006" y="290" font-size="10" text-anchor="middle"></text><text x="502.75000000000006" y="290" font-size="10" text-anchor="middle"></text><text x="516.25" y="290" font-size="10" text-anchor="middle"></text><text x="529.75" y="290" font-size="10" text-anchor="middle"></text><text x="543.25" y="290" font-size="10" text-anchor="middle"></text><text x="556.75" y="290" font-size="10" text-anchor="middle"></text><text x="570.25" y="290" font-size="10" text-anchor="middle"></text></g></svg>