<?xml version='1.0' encoding='utf-8'?><!DOCTYPE svg PUBLIC '-//W3C//DTD SVG 1.1//EN' 'http://www.w3.org/Graphics/SVG/1.1/DTD/svg11.dtd'><svg height="300" width="600"><g><line y1="20" y2="280" x1="20" x2="20" style="stroke: #000000;"></line><text x="0" y="25" font-size="10">100</text><text x="12" y="280" font-size="10">0</text><line x1="20" x2="580" y1="280" y2="280" style="stroke: #000000;"></line><rect style="stroke: #000000; fill: none;" x="40" y="150.1818181818182" width="30" height="129.8181818181818"></rect><rect style="stroke: #000000; fill: none;" x="94" y="160.36363636363637" width="30" height="119.63636363636363"></rect><rect style="stroke: #000000; fill: none;" x="148" y="25.454545454545467" width="30" height="254.54545454545453"></rect><rect style="stroke: #000000; fill: none;" x="202.00000000000003" y="84" width="30" height="196"></rect><rect style="stroke: #000000; fill: none;" x="256" y="262.1818181818182" width="30" height="17.818181818181817"></rect><rect style="stroke: #000000; fill: none;" x="310" y="226.54545454545456" width="30" height="53.454545454545446"></rect><rect style="stroke: #000000; fill: none;" x="364.00000000000006" y="239.27272727272725" width="30" height="40.72727272727273"></rect><rect style="stroke: #000000; fill: none;" x="418.00000000000006" y="180.72727272727272" width="30" height="99.27272727272728"></rect><rect style="stroke: #000000; fill: none;" x="472" y="201.0909090909091" width="30" height="78.9090909090909"></rect><rect style="stroke: #000000; fill: none;" x="526" y="193.45454545454544" width="30" height="86.54545454545455"></rect></g><g><text x="55" y="290" font-size="10" text-anchor="middle"></text><text x="109" y="290" font-size="10" text-anchor="middle"></text><text x="163" y="290" font-size="10" text-anchor="middle">A</text><text x="217.00000000000003" y="290" font-size="10" text-anchor="middle"></text><text x="271" y="290" font-size="10" text-anchor="middle"></text><text x="325" y="290" font-size="10" text-anchor="middle"></text><text x="379.00000000000006" y="290" font-size="10" text-anchor="middle">B</text><text x="433.00000000000006" y="290" font-size="10" text-anchor="middle"></text><text x="487" y="290" font-size="10" text-anchor="middle"></text><text x="541" y="290" font-size="10" text-anchor="middle"></text></g></svg>