<?xml version='1.0' encoding='utf-8'?><!DOCTYPE svg PUBLIC '-//W3C//DTD SVG 1.1//EN' 'http://www.w3.org/Graphics/SVG/1.1/DTD/svg11.dtd'><svg height="300" width="600"><g><line y1="20" y2="280" x1="20" x2="20" style="stroke: #000000;"></line><text x="0" y="25" font-size="10">100</text><text x="12" y="280" font-size="10">0</text><line x1="20" x2="580" y1="280" y2="280" style="stroke: #000000;"></line><rect style="stroke: #000000; fill: none;" x="40" y="58.21782178217828" width="7.5" height="221.78217821782172"></rect><rect style="stroke: #000000; fill: none;" x="53.5" y="126.2646264626463" width="7.5" height="153.7353735373537"></rect><rect style="stroke: #000000; fill: none;" x="67" y="128.78487848784883" width="7.5" height="151.21512151215117"></rect><rect style="stroke: #000000; fill: none;" x="80.5" y="33.01530153015307" width="7.5" height="246.98469846984693"></rect><rect style="stroke: #000000; fill: none;" x="94" y="196.83168316831686" width="7.5" height="83.16831683168314"></rect><rect style="stroke: #000000; fill: none;" x="107.5" y="121.22412241224126" width="7.5" height="158.77587758775874"></rect><rect style="stroke: #000000; fill: none;" x="121.00000000000001" y="249.75697569756977" width="7.5" height="30.24302430243024"></rect><rect style="stroke: #000000; fill: none;" x="134.5" y="247.23672367236725" width="7.5" height="32.76327632763276"></rect><rect style="stroke: #000000; fill: none;" x="148" y="90.981098109811" width="7.5" height="189.018901890189"></rect><rect style="stroke: #000000; fill: none;" x="161.5" y="171.62916291629165" width="7.5" height="108.37083708370835"></rect><rect style="stroke: #000000; fill: none;" x="175" y="25.454545454545496" width="7.5" height="254.5454545454545"></rect><rect style="stroke: #000000; fill: none;" x="188.5" y="148.94689468946896" width="7.5" height="131.05310531053104"></rect><rect style="stroke: #000000; fill: none;" x="202.00000000000003" y="169.10891089108912" width="7.5" height="110.89108910891086"></rect><rect style="stroke: #000000; fill: none;" x="215.5" y="224.55445544554456" width="7.5" height="55.44554455445543"></rect><rect style="stroke: #000000; fill: none;" x="229.00000000000003" y="111.14311431143116" width="7.5" height="168.85688568856884"></rect><rect style="stroke: #000000; fill: none;" x="242.5" y="60.73807380738077" width="7.5" height="219.26192619261923"></rect><rect style="stroke: #000000; fill: none;" x="256" y="103.58235823582362" width="7.5" height="176.41764176417638"></rect><rect style="stroke: #000000; fill: none;" x="269.5" y="244.71647164716472" width="7.5" height="35.283528352835276"></rect><rect style="stroke: #000000; fill: none;" x="283" y="27.97479747974802" width="7.5" height="252.02520252025198"></rect><rect style="stroke: #000000; fill: none;" x="296.5" y="237.15571557155715" width="7.5" height="42.84428442844284"></rect><rect style="stroke: #000000; fill: none;" x="310" y="118.70387038703873" width="7.5" height="161.29612961296127"></rect><rect style="stroke: #000000; fill: none;" x="323.5" y="141.3861386138614" width="7.5" height="138.6138613861386"></rect><rect style="stroke: #000000; fill: none;" x="337" y="219.51395139513951" width="7.5" height="60.48604860486048"></rect><rect style="stroke: #000000; fill: none;" x="350.50000000000006" y="174.14941494149417" width="7.5" height="105.85058505850584"></rect><rect style="stroke: #000000; fill: none;" x="364.00000000000006" y="229.5949594959496" width="7.5" height="50.4050405040504"></rect><rect style="stroke: #000000; fill: none;" x="377.5" y="55.697569756975724" width="7.5" height="224.30243024302428"></rect><rect style="stroke: #000000; fill: none;" x="391" y="143.90639063906394" width="7.5" height="136.09360936093606"></rect><rect style="stroke: #000000; fill: none;" x="404.5" y="156.50765076507653" width="7.5" height="123.49234923492347"></rect><rect style="stroke: #000000; fill: none;" x="418.00000000000006" y="68.29882988298831" width="7.5" height="211.70117011701169"></rect><rect style="stroke: #000000; fill: none;" x="431.50000000000006" y="38.055805580558086" width="7.5" height="241.9441944194419"></rect><rect style="stroke: #000000; fill: none;" x="445" y="136.34563456345637" width="7.5" height="143.65436543654363"></rect><rect style="stroke: #000000; fill: none;" x="458.5" y="85.94059405940598" width="7.5" height="194.05940594059402"></rect><rect style="stroke: #000000; fill: none;" x="472" y="252.2772277227723" width="7.5" height="27.722772277227715"></rect><rect style="stroke: #000000; fill: none;" x="485.50000000000006" y="269.9189918991899" width="7.5" height="10.08100810081008"></rect><rect style="stroke: #000000; fill: none;" x="499.00000000000006" y="106.10261026102614" width="7.5" height="173.89738973897386"></rect><rect style="stroke: #000000; fill: none;" x="512.5" y="146.42664266426644" width="7.5" height="133.57335733573356"></rect><rect style="stroke: #000000; fill: none;" x="526" y="274.95949594959495" width="7.5" height="5.04050405040504"></rect><rect style="stroke: #000000; fill: none;" x="539.5" y="186.75067506750676" width="7.5" height="93.24932493249324"></rect><rect style="stroke: #000000; fill: none;" x="553" y="206.91269126912692" width="7.5" height="73.08730873087308"></rect><rect style="stroke: #000000; fill: none;" x="566.5" y="123.74437443744375" width="7.5" height="156.25562556255625"></rect></g><g><text x="43.75" y="290" font-size="10" text-anchor="middle"></text><text x="57.25" y="290" font-size="10" text-anchor="middle"></text><text x="70.75" y="290" font-size="10" text-anchor="middle"></text><text x="84.25" y="290" font-size="10" text-anchor="middle"></text><text x="97.75" y="290" font-size="10" text-anchor="middle"></text><text x="111.25" y="290" font-size="10" text-anchor="middle"></text><text x="124.75000000000001" y="290" font-size="10" text-anchor="middle"></text><text x="138.25" y="290" font-size="10" text-anchor="middle"></text><text x="151.75" y="290" font-size="10" text-anchor="middle"></text><text x="165.25" y="290" font-size="10" text-anchor="middle"></text><text x="178.75" y="290" font-size="10" text-anchor="middle"></text><text x="192.25" y="290" font-size="10" text-anchor="middle"></text><text x="205.75000000000003" y="290" font-size="10" text-anchor="middle">B</text><text x="219.25" y="290" font-size="10" text-anchor="middle"></text><text x="232.75000000000003" y="290" font-size="10" text-anchor="middle"></text><text x="246.25" y="290" font-size="10" text-anchor="middle"></text><text x="259.75" y="290" font-size="10" text-anchor="middle"></text><text x="273.25" y="290" font-size="10" text-anchor="middle"></text><text x="286.75" y="290" font-size="10" text-anchor="middle"></text><text x="300.25" y="290" font-size="10" text-anchor="middle"></text><text x="313.75" y="290" font-size="10" text-anchor="middle"></text><text x="327.25" y="290" font-size="10" text-anchor="middle"></text><text x="340.75" y="290" font-size="10" text-anchor="middle"></text><text x="354.25000000000006" y="290" font-size="10" text-anchor="middle"></text><text x="367.75000000000006" y="290" font-size="10" text-anchor="middle"></text><text x="381.25" y="290" font-size="10" text-anchor="middle"></text><text x="394.75" y="290" font-size="10" text-anchor="middle"></text><text x="408.25" y="290" font-size="10" text-anchor="middle"></text><text x="421.75000000000006" y="290" font-size="10" text-anchor="middle"></text><text x="435.25000000000006" y="290" font-size="10" text-anchor="middle"></text><text x="448.75" y="290" font-size="10" text-anchor="middle"></text><text x="462.25" y="290" font-size="10" text-anchor="middle"></text><text x="475.75" y="290" font-size="10" text-anchor="middle"></text><text x="489.25000000000006" y="290" font-size="10" text-anchor="middle">A</text><text x="502.75000000000006" y="290" font-size="10" text-anchor="middle"></text><text x="516.25" y="290" font-size="10" text-anchor="middle"></text><text x="529.75" y="290" font-size="10" text-anchor="middle"></text><text x="543.25" y="290" font-size="10" text-anchor="middle"></text><text x="556.75" y="290" font-size="10" text-anchor="middle"></text><text x="570.25" y="290" font-size="10" text-anchor="middle"></text></g></svg>