<?xml version='1.0' encoding='utf-8'?><!DOCTYPE svg PUBLIC '-//W3C//DTD SVG 1.1//EN' 'http://www.w3.org/Graphics/SVG/1.1/DTD/svg11.dtd'><svg height="300" width="600"><g><line y1="20" y2="280" x1="20" x2="20" style="stroke: #000000;"></line><text x="0" y="25" font-size="10">100</text><text x="12" y="280" font-size="10">0</text><line x1="20" x2="580" y1="280" y2="280" style="stroke: #000000;"></line><rect style="stroke: #000000; fill: none;" x="40" y="178.70129870129873" width="30" height="101.29870129870127"></rect><rect style="stroke: #000000; fill: none;" x="94" y="150.12987012987014" width="30" height="129.87012987012986"></rect><rect style="stroke: #000000; fill: none;" x="148" y="238.44155844155847" width="30" height="41.55844155844155"></rect><rect style="stroke: #000000; fill: none;" x="202.00000000000003" y="241.03896103896102" width="30" height="38.96103896103896"></rect><rect style="stroke: #000000; fill: none;" x="256" y="215.06493506493507" width="30" height="64.93506493506493"></rect><rect style="stroke: #000000; fill: none;" x="310" y="144.93506493506496" width="30" height="135.06493506493504"></rect><rect style="stroke: #000000; fill: none;" x="364.00000000000006" y="25.454545454545496" width="30" height="254.5454545454545"></rect><rect style="stroke: #000000; fill: none;" x="418.00000000000006" y="134.54545454545456" width="30" height="145.45454545454544"></rect><rect style="stroke: #000000; fill: none;" x="472" y="254.02597402597405" width="30" height="25.974025974025967"></rect><rect style="stroke: #000000; fill: none;" x="526" y="139.74025974025975" width="30" height="140.25974025974025"></rect></g><g><text x="55" y="290" font-size="10" text-anchor="middle"></text><text x="109" y="290" font-size="10" text-anchor="middle"></text><text x="163" y="290" font-size="10" text-anchor="middle">B</text><text x="217.00000000000003" y="290" font-size="10" text-anchor="middle"></text><text x="271" y="290" font-size="10" text-anchor="middle"></text><text x="325" y="290" font-size="10" text-anchor="middle"></text><text x="379.00000000000006" y="290" font-size="10" text-anchor="middle"></text><text x="433.00000000000006" y="290" font-size="10" text-anchor="middle"></text><text x="487" y="290" font-size="10" text-anchor="middle">A</text><text x="541" y="290" font-size="10" text-anchor="middle"></text></g></svg>