<?xml version='1.0' encoding='utf-8'?><!DOCTYPE svg PUBLIC '-//W3C//DTD SVG 1.1//EN' 'http://www.w3.org/Graphics/SVG/1.1/DTD/svg11.dtd'><svg height="300" width="600"><g><line y1="20" y2="280" x1="20" x2="20" style="stroke: #000000;"></line><text x="0" y="25" font-size="10">100</text><text x="12" y="280" font-size="10">0</text><line x1="20" x2="580" y1="280" y2="280" style="stroke: #000000;"></line><rect style="stroke: #000000; fill: none;" x="40" y="73.33933393339339" width="30" height="206.6606660666066"></rect><rect style="stroke: #000000; fill: none;" x="94" y="25.454545454545496" width="30" height="254.5454545454545"></rect><rect style="stroke: #000000; fill: none;" x="148" y="262.3582358235824" width="30" height="17.641764176417638"></rect><rect style="stroke: #000000; fill: none;" x="202.00000000000003" y="176.6696669666967" width="30" height="103.3303330333033"></rect><rect style="stroke: #000000; fill: none;" x="256" y="106.10261026102614" width="30" height="173.89738973897386"></rect><rect style="stroke: #000000; fill: none;" x="310" y="232.11521152115213" width="30" height="47.884788478847874"></rect><rect style="stroke: #000000; fill: none;" x="364.00000000000006" y="65.77857785778582" width="30" height="214.22142214221418"></rect><rect style="stroke: #000000; fill: none;" x="418.00000000000006" y="45.61656165616566" width="30" height="234.38343834383434"></rect><rect style="stroke: #000000; fill: none;" x="472" y="206.91269126912692" width="30" height="73.08730873087308"></rect><rect style="stroke: #000000; fill: none;" x="526" y="239.67596759675968" width="30" height="40.32403240324032"></rect></g><g><text x="55" y="290" font-size="10" text-anchor="middle">B</text><text x="109" y="290" font-size="10" text-anchor="middle"></text><text x="163" y="290" font-size="10" text-anchor="middle"></text><text x="217.00000000000003" y="290" font-size="10" text-anchor="middle"></text><text x="271" y="290" font-size="10" text-anchor="middle"></text><text x="325" y="290" font-size="10" text-anchor="middle">A</text><text x="379.00000000000006" y="290" font-size="10" text-anchor="middle"></text><text x="433.00000000000006" y="290" font-size="10" text-anchor="middle"></text><text x="487" y="290" font-size="10" text-anchor="middle"></text><text x="541" y="290" font-size="10" text-anchor="middle"></text></g></svg>