<?xml version='1.0' encoding='utf-8'?><!DOCTYPE svg PUBLIC '-//W3C//DTD SVG 1.1//EN' 'http://www.w3.org/Graphics/SVG/1.1/DTD/svg11.dtd'><svg height="300" width="600"><g><line y1="20" y2="280" x1="20" x2="20" style="stroke: #000000;"></line><text x="0" y="25" font-size="10">100</text><text x="12" y="280" font-size="10">0</text><line x1="20" x2="580" y1="280" y2="280" style="stroke: #000000;"></line><rect style="stroke: #000000; fill: none;" x="40" y="28.13397129186609" width="7.5" height="251.8660287081339"></rect><rect style="stroke: #000000; fill: none;" x="53.5" y="170.14354066985646" width="7.5" height="109.85645933014352"></rect><rect style="stroke: #000000; fill: none;" x="67" y="103.15789473684214" width="7.5" height="176.84210526315786"></rect><rect style="stroke: #000000; fill: none;" x="80.5" y="25.454545454545524" width="7.5" height="254.54545454545448"></rect><rect style="stroke: #000000; fill: none;" x="94" y="105.8373205741627" width="7.5" height="174.1626794258373"></rect><rect style="stroke: #000000; fill: none;" x="107.5" y="199.6172248803828" width="7.5" height="80.38277511961721"></rect><rect style="stroke: #000000; fill: none;" x="121.00000000000001" y="121.91387559808618" width="7.5" height="158.08612440191382"></rect><rect style="stroke: #000000; fill: none;" x="134.5" y="188.8995215311005" width="7.5" height="91.1004784688995"></rect><rect style="stroke: #000000; fill: none;" x="148" y="234.44976076555025" width="7.5" height="45.55023923444975"></rect><rect style="stroke: #000000; fill: none;" x="161.5" y="196.93779904306223" width="7.5" height="83.06220095693779"></rect><rect style="stroke: #000000; fill: none;" x="175" y="274.64114832535887" width="7.5" height="5.358851674641147"></rect><rect style="stroke: #000000; fill: none;" x="188.5" y="250.5263157894737" width="7.5" height="29.47368421052631"></rect><rect style="stroke: #000000; fill: none;" x="202.00000000000003" y="247.8468899521531" width="7.5" height="32.15311004784688"></rect><rect style="stroke: #000000; fill: none;" x="215.5" y="255.88516746411483" width="7.5" height="24.11483253588516"></rect><rect style="stroke: #000000; fill: none;" x="229.00000000000003" y="213.01435406698567" width="7.5" height="66.98564593301434"></rect><rect style="stroke: #000000; fill: none;" x="242.5" y="46.8899521531101" width="7.5" height="233.1100478468899"></rect><rect style="stroke: #000000; fill: none;" x="256" y="116.55502392344502" width="7.5" height="163.44497607655498"></rect><rect style="stroke: #000000; fill: none;" x="269.5" y="124.59330143540672" width="7.5" height="155.40669856459328"></rect><rect style="stroke: #000000; fill: none;" x="283" y="95.11961722488041" width="7.5" height="184.88038277511959"></rect><rect style="stroke: #000000; fill: none;" x="296.5" y="159.4258373205742" width="7.5" height="120.57416267942581"></rect><rect style="stroke: #000000; fill: none;" x="310" y="129.95215311004787" width="7.5" height="150.04784688995213"></rect><rect style="stroke: #000000; fill: none;" x="323.5" y="223.73205741626793" width="7.5" height="56.26794258373205"></rect><rect style="stroke: #000000; fill: none;" x="337" y="261.24401913875596" width="7.5" height="18.755980861244016"></rect><rect style="stroke: #000000; fill: none;" x="350.50000000000006" y="36.17224880382781" width="7.5" height="243.8277511961722"></rect><rect style="stroke: #000000; fill: none;" x="364.00000000000006" y="68.32535885167468" width="7.5" height="211.67464114832532"></rect><rect style="stroke: #000000; fill: none;" x="377.5" y="127.27272727272731" width="7.5" height="152.7272727272727"></rect><rect style="stroke: #000000; fill: none;" x="391" y="119.23444976076559" width="7.5" height="160.76555023923441"></rect><rect style="stroke: #000000; fill: none;" x="404.5" y="263.92344497607655" width="7.5" height="16.07655502392344"></rect><rect style="stroke: #000000; fill: none;" x="418.00000000000006" y="73.68421052631584" width="7.5" height="206.31578947368416"></rect><rect style="stroke: #000000; fill: none;" x="431.50000000000006" y="65.64593301435414" width="7.5" height="214.35406698564586"></rect><rect style="stroke: #000000; fill: none;" x="445" y="237.12918660287085" width="7.5" height="42.870813397129176"></rect><rect style="stroke: #000000; fill: none;" x="458.5" y="146.02870813397132" width="7.5" height="133.97129186602868"></rect><rect style="stroke: #000000; fill: none;" x="472" y="113.87559808612443" width="7.5" height="166.12440191387557"></rect><rect style="stroke: #000000; fill: none;" x="485.50000000000006" y="92.44019138755985" width="7.5" height="187.55980861244015"></rect><rect style="stroke: #000000; fill: none;" x="499.00000000000006" y="108.5167464114833" width="7.5" height="171.4832535885167"></rect><rect style="stroke: #000000; fill: none;" x="512.5" y="204.97607655502395" width="7.5" height="75.02392344497606"></rect><rect style="stroke: #000000; fill: none;" x="526" y="30.813397129186683" width="7.5" height="249.18660287081332"></rect><rect style="stroke: #000000; fill: none;" x="539.5" y="191.57894736842107" width="7.5" height="88.42105263157893"></rect><rect style="stroke: #000000; fill: none;" x="553" y="60.287081339712955" width="7.5" height="219.71291866028704"></rect><rect style="stroke: #000000; fill: none;" x="566.5" y="87.08133971291872" width="7.5" height="192.91866028708128"></rect></g><g><text x="43.75" y="290" font-size="10" text-anchor="middle"></text><text x="57.25" y="290" font-size="10" text-anchor="middle"></text><text x="70.75" y="290" font-size="10" text-anchor="middle"></text><text x="84.25" y="290" font-size="10" text-anchor="middle"></text><text x="97.75" y="290" font-size="10" text-anchor="middle"></text><text x="111.25" y="290" font-size="10" text-anchor="middle"></text><text x="124.75000000000001" y="290" font-size="10" text-anchor="middle"></text><text x="138.25" y="290" font-size="10" text-anchor="middle"></text><text x="151.75" y="290" font-size="10" text-anchor="middle"></text><text x="165.25" y="290" font-size="10" text-anchor="middle">A</text><text x="178.75" y="290" font-size="10" text-anchor="middle"></text><text x="192.25" y="290" font-size="10" text-anchor="middle"></text><text x="205.75000000000003" y="290" font-size="10" text-anchor="middle"></text><text x="219.25" y="290" font-size="10" text-anchor="middle"></text><text x="232.75000000000003" y="290" font-size="10" text-anchor="middle"></text><text x="246.25" y="290" font-size="10" text-anchor="middle"></text><text x="259.75" y="290" font-size="10" text-anchor="middle"></text><text x="273.25" y="290" font-size="10" text-anchor="middle"></text><text x="286.75" y="290" font-size="10" text-anchor="middle"></text><text x="300.25" y="290" font-size="10" text-anchor="middle"></text><text x="313.75" y="290" font-size="10" text-anchor="middle"></text><text x="327.25" y="290" font-size="10" text-anchor="middle"></text><text x="340.75" y="290" font-size="10" text-anchor="middle"></text><text x="354.25000000000006" y="290" font-size="10" text-anchor="middle"></text><text x="367.75000000000006" y="290" font-size="10" text-anchor="middle"></text><text x="381.25" y="290" font-size="10" text-anchor="middle"></text><text x="394.75" y="290" font-size="10" text-anchor="middle"></text><text x="408.25" y="290" font-size="10" text-anchor="middle"></text><text x="421.75000000000006" y="290" font-size="10" text-anchor="middle"></text><text x="435.25000000000006" y="290" font-size="10" text-anchor="middle"></text><text x="448.75" y="290" font-size="10" text-anchor="middle">B</text><text x="462.25" y="290" font-size="10" text-anchor="middle"></text><text x="475.75" y="290" font-size="10" text-anchor="middle"></text><text x="489.25000000000006" y="290" font-size="10" text-anchor="middle"></text><text x="502.75000000000006" y="290" font-size="10" text-anchor="middle"></text><text x="516.25" y="290" font-size="10" text-anchor="middle"></text><text x="529.75" y="290" font-size="10" text-anchor="middle"></text><text x="543.25" y="290" font-size="10" text-anchor="middle"></text><text x="556.75" y="290" font-size="10" text-anchor="middle"></text><text x="570.25" y="290" font-size="10" text-anchor="middle"></text></g></svg>