<?xml version='1.0' encoding='utf-8'?><!DOCTYPE svg PUBLIC '-//W3C//DTD SVG 1.1//EN' 'http://www.w3.org/Graphics/SVG/1.1/DTD/svg11.dtd'><svg height="300" width="600"><g><line y1="20" y2="280" x1="20" x2="20" style="stroke: #000000;"></line><text x="0" y="25" font-size="10">100</text><text x="12" y="280" font-size="10">0</text><line x1="20" x2="580" y1="280" y2="280" style="stroke: #000000;"></line><rect style="stroke: #000000; fill: none;" x="40" y="164.29752066115702" width="7.5" height="115.70247933884298"></rect><rect style="stroke: #000000; fill: none;" x="53.5" y="51.16620752984389" width="7.5" height="228.8337924701561"></rect><rect style="stroke: #000000; fill: none;" x="67" y="238.86134067952253" width="7.5" height="41.1386593204775"></rect><rect style="stroke: #000000; fill: none;" x="80.5" y="56.3085399449036" width="7.5" height="223.6914600550964"></rect><rect style="stroke: #000000; fill: none;" x="94" y="143.7281910009183" width="7.5" height="136.2718089990817"></rect><rect style="stroke: #000000; fill: none;" x="107.5" y="74.3067033976125" width="7.5" height="205.6932966023875"></rect><rect style="stroke: #000000; fill: none;" x="121.00000000000001" y="236.29017447199266" width="7.5" height="43.70982552800734"></rect><rect style="stroke: #000000; fill: none;" x="134.5" y="156.5840220385675" width="7.5" height="123.4159779614325"></rect><rect style="stroke: #000000; fill: none;" x="148" y="100.01836547291094" width="7.5" height="179.98163452708906"></rect><rect style="stroke: #000000; fill: none;" x="161.5" y="174.5821854912764" width="7.5" height="105.4178145087236"></rect><rect style="stroke: #000000; fill: none;" x="175" y="130.87235996326905" width="7.5" height="149.12764003673095"></rect><rect style="stroke: #000000; fill: none;" x="188.5" y="30.59687786960515" width="7.5" height="249.40312213039485"></rect><rect style="stroke: #000000; fill: none;" x="202.00000000000003" y="179.72451790633608" width="7.5" height="100.27548209366391"></rect><rect style="stroke: #000000; fill: none;" x="215.5" y="79.44903581267218" width="7.5" height="200.55096418732782"></rect><rect style="stroke: #000000; fill: none;" x="229.00000000000003" y="197.722681359045" width="7.5" height="82.277318640955"></rect><rect style="stroke: #000000; fill: none;" x="242.5" y="166.86868686868686" width="7.5" height="113.13131313131314"></rect><rect style="stroke: #000000; fill: none;" x="256" y="244.0036730945822" width="7.5" height="35.99632690541781"></rect><rect style="stroke: #000000; fill: none;" x="269.5" y="187.43801652892563" width="7.5" height="92.56198347107438"></rect><rect style="stroke: #000000; fill: none;" x="283" y="87.1625344352617" width="7.5" height="192.8374655647383"></rect><rect style="stroke: #000000; fill: none;" x="296.5" y="125.73002754820936" width="7.5" height="154.26997245179064"></rect><rect style="stroke: #000000; fill: none;" x="310" y="48.595041322314046" width="7.5" height="231.40495867768595"></rect><rect style="stroke: #000000; fill: none;" x="323.5" y="202.86501377410468" width="7.5" height="77.13498622589532"></rect><rect style="stroke: #000000; fill: none;" x="337" y="231.14784205693297" width="7.5" height="48.852157943067034"></rect><rect style="stroke: #000000; fill: none;" x="350.50000000000006" y="267.14416896235076" width="7.5" height="12.855831037649219"></rect><rect style="stroke: #000000; fill: none;" x="364.00000000000006" y="215.72084481175392" width="7.5" height="64.2791551882461"></rect><rect style="stroke: #000000; fill: none;" x="377.5" y="94.87603305785123" width="7.5" height="185.12396694214877"></rect><rect style="stroke: #000000; fill: none;" x="391" y="97.44719926538107" width="7.5" height="182.55280073461893"></rect><rect style="stroke: #000000; fill: none;" x="404.5" y="226.0055096418733" width="7.5" height="53.994490358126725"></rect><rect style="stroke: #000000; fill: none;" x="418.00000000000006" y="210.57851239669424" width="7.5" height="69.42148760330578"></rect><rect style="stroke: #000000; fill: none;" x="431.50000000000006" y="190.00918273645547" width="7.5" height="89.99081726354453"></rect><rect style="stroke: #000000; fill: none;" x="445" y="246.57483930211203" width="7.5" height="33.42516069788797"></rect><rect style="stroke: #000000; fill: none;" x="458.5" y="205.43617998163452" width="7.5" height="74.56382001836548"></rect><rect style="stroke: #000000; fill: none;" x="472" y="33.168044077134994" width="7.5" height="246.831955922865"></rect><rect style="stroke: #000000; fill: none;" x="485.50000000000006" y="25.454545454545467" width="7.5" height="254.54545454545453"></rect><rect style="stroke: #000000; fill: none;" x="499.00000000000006" y="102.58953168044079" width="7.5" height="177.41046831955921"></rect><rect style="stroke: #000000; fill: none;" x="512.5" y="146.29935720844813" width="7.5" height="133.70064279155187"></rect><rect style="stroke: #000000; fill: none;" x="526" y="110.30303030303031" width="7.5" height="169.6969696969697"></rect><rect style="stroke: #000000; fill: none;" x="539.5" y="136.01469237832876" width="7.5" height="143.98530762167124"></rect><rect style="stroke: #000000; fill: none;" x="553" y="182.29568411386595" width="7.5" height="97.70431588613407"></rect><rect style="stroke: #000000; fill: none;" x="566.5" y="262.0018365472911" width="7.5" height="17.998163452708905"></rect></g><g><text x="43.75" y="290" font-size="10" text-anchor="middle"></text><text x="57.25" y="290" font-size="10" text-anchor="middle"></text><text x="70.75" y="290" font-size="10" text-anchor="middle"></text><text x="84.25" y="290" font-size="10" text-anchor="middle"></text><text x="97.75" y="290" font-size="10" text-anchor="middle"></text><text x="111.25" y="290" font-size="10" text-anchor="middle"></text><text x="124.75000000000001" y="290" font-size="10" text-anchor="middle"></text><text x="138.25" y="290" font-size="10" text-anchor="middle"></text><text x="151.75" y="290" font-size="10" text-anchor="middle"></text><text x="165.25" y="290" font-size="10" text-anchor="middle"></text><text x="178.75" y="290" font-size="10" text-anchor="middle"></text><text x="192.25" y="290" font-size="10" text-anchor="middle"></text><text x="205.75000000000003" y="290" font-size="10" text-anchor="middle"></text><text x="219.25" y="290" font-size="10" text-anchor="middle"></text><text x="232.75000000000003" y="290" font-size="10" text-anchor="middle"></text><text x="246.25" y="290" font-size="10" text-anchor="middle"></text><text x="259.75" y="290" font-size="10" text-anchor="middle"></text><text x="273.25" y="290" font-size="10" text-anchor="middle">B</text><text x="286.75" y="290" font-size="10" text-anchor="middle"></text><text x="300.25" y="290" font-size="10" text-anchor="middle"></text><text x="313.75" y="290" font-size="10" text-anchor="middle"></text><text x="327.25" y="290" font-size="10" text-anchor="middle"></text><text x="340.75" y="290" font-size="10" text-anchor="middle"></text><text x="354.25000000000006" y="290" font-size="10" text-anchor="middle"></text><text x="367.75000000000006" y="290" font-size="10" text-anchor="middle"></text><text x="381.25" y="290" font-size="10" text-anchor="middle"></text><text x="394.75" y="290" font-size="10" text-anchor="middle"></text><text x="408.25" y="290" font-size="10" text-anchor="middle"></text><text x="421.75000000000006" y="290" font-size="10" text-anchor="middle"></text><text x="435.25000000000006" y="290" font-size="10" text-anchor="middle"></text><text x="448.75" y="290" font-size="10" text-anchor="middle"></text><text x="462.25" y="290" font-size="10" text-anchor="middle"></text><text x="475.75" y="290" font-size="10" text-anchor="middle"></text><text x="489.25000000000006" y="290" font-size="10" text-anchor="middle"></text><text x="502.75000000000006" y="290" font-size="10" text-anchor="middle"></text><text x="516.25" y="290" font-size="10" text-anchor="middle"></text><text x="529.75" y="290" font-size="10" text-anchor="middle"></text><text x="543.25" y="290" font-size="10" text-anchor="middle"></text><text x="556.75" y="290" font-size="10" text-anchor="middle">A</text><text x="570.25" y="290" font-size="10" text-anchor="middle"></text></g></svg>