<?xml version='1.0' encoding='utf-8'?><!DOCTYPE svg PUBLIC '-//W3C//DTD SVG 1.1//EN' 'http://www.w3.org/Graphics/SVG/1.1/DTD/svg11.dtd'><svg height="300" width="600"><g><line y1="20" y2="280" x1="20" x2="20" style="stroke: #000000;"></line><text x="0" y="25" font-size="10">100</text><text x="12" y="280" font-size="10">0</text><line x1="20" x2="580" y1="280" y2="280" style="stroke: #000000;"></line><rect style="stroke: #000000; fill: none;" x="40" y="36.06060606060609" width="30" height="243.9393939393939"></rect><rect style="stroke: #000000; fill: none;" x="94" y="38.71212121212125" width="30" height="241.28787878787875"></rect><rect style="stroke: #000000; fill: none;" x="148" y="25.454545454545496" width="30" height="254.5454545454545"></rect><rect style="stroke: #000000; fill: none;" x="202.00000000000003" y="160.6818181818182" width="30" height="119.3181818181818"></rect><rect style="stroke: #000000; fill: none;" x="256" y="102.34848484848487" width="30" height="177.65151515151513"></rect><rect style="stroke: #000000; fill: none;" x="310" y="30.75757575757578" width="30" height="249.24242424242422"></rect><rect style="stroke: #000000; fill: none;" x="364.00000000000006" y="232.27272727272728" width="30" height="47.72727272727272"></rect><rect style="stroke: #000000; fill: none;" x="418.00000000000006" y="165.9848484848485" width="30" height="114.01515151515149"></rect><rect style="stroke: #000000; fill: none;" x="472" y="147.42424242424244" width="30" height="132.57575757575756"></rect><rect style="stroke: #000000; fill: none;" x="526" y="134.16666666666669" width="30" height="145.83333333333331"></rect></g><g><text x="55" y="290" font-size="10" text-anchor="middle"></text><text x="109" y="290" font-size="10" text-anchor="middle"></text><text x="163" y="290" font-size="10" text-anchor="middle">A</text><text x="217.00000000000003" y="290" font-size="10" text-anchor="middle"></text><text x="271" y="290" font-size="10" text-anchor="middle"></text><text x="325" y="290" font-size="10" text-anchor="middle"></text><text x="379.00000000000006" y="290" font-size="10" text-anchor="middle"></text><text x="433.00000000000006" y="290" font-size="10" text-anchor="middle"></text><text x="487" y="290" font-size="10" text-anchor="middle">B</text><text x="541" y="290" font-size="10" text-anchor="middle"></text></g></svg>