<?xml version='1.0' encoding='utf-8'?><!DOCTYPE svg PUBLIC '-//W3C//DTD SVG 1.1//EN' 'http://www.w3.org/Graphics/SVG/1.1/DTD/svg11.dtd'><svg height="300" width="600"><g><line y1="20" y2="280" x1="20" x2="20" style="stroke: #000000;"></line><text x="0" y="25" font-size="10">100</text><text x="12" y="280" font-size="10">0</text><line x1="20" x2="580" y1="280" y2="280" style="stroke: #000000;"></line><rect style="stroke: #000000; fill: none;" x="40" y="193.45454545454544" width="7.5" height="86.54545454545455"></rect><rect style="stroke: #000000; fill: none;" x="53.5" y="124.72727272727272" width="7.5" height="155.27272727272728"></rect><rect style="stroke: #000000; fill: none;" x="67" y="94.18181818181819" width="7.5" height="185.8181818181818"></rect><rect style="stroke: #000000; fill: none;" x="80.5" y="25.454545454545467" width="7.5" height="254.54545454545453"></rect><rect style="stroke: #000000; fill: none;" x="94" y="134.9090909090909" width="7.5" height="145.0909090909091"></rect><rect style="stroke: #000000; fill: none;" x="107.5" y="28.00000000000003" width="7.5" height="251.99999999999997"></rect><rect style="stroke: #000000; fill: none;" x="121.00000000000001" y="66.18181818181822" width="7.5" height="213.81818181818178"></rect><rect style="stroke: #000000; fill: none;" x="134.5" y="61.09090909090912" width="7.5" height="218.90909090909088"></rect><rect style="stroke: #000000; fill: none;" x="148" y="175.63636363636365" width="7.5" height="104.36363636363635"></rect><rect style="stroke: #000000; fill: none;" x="161.5" y="203.63636363636363" width="7.5" height="76.36363636363636"></rect><rect style="stroke: #000000; fill: none;" x="175" y="96.72727272727272" width="7.5" height="183.27272727272728"></rect><rect style="stroke: #000000; fill: none;" x="188.5" y="150.1818181818182" width="7.5" height="129.8181818181818"></rect><rect style="stroke: #000000; fill: none;" x="202.00000000000003" y="155.27272727272728" width="7.5" height="124.72727272727272"></rect><rect style="stroke: #000000; fill: none;" x="215.5" y="114.54545454545456" width="7.5" height="165.45454545454544"></rect><rect style="stroke: #000000; fill: none;" x="229.00000000000003" y="109.45454545454547" width="7.5" height="170.54545454545453"></rect><rect style="stroke: #000000; fill: none;" x="242.5" y="252" width="7.5" height="27.999999999999996"></rect><rect style="stroke: #000000; fill: none;" x="256" y="198.54545454545456" width="7.5" height="81.45454545454545"></rect><rect style="stroke: #000000; fill: none;" x="269.5" y="122.18181818181819" width="7.5" height="157.8181818181818"></rect><rect style="stroke: #000000; fill: none;" x="283" y="40.72727272727275" width="7.5" height="239.27272727272725"></rect><rect style="stroke: #000000; fill: none;" x="296.5" y="157.8181818181818" width="7.5" height="122.18181818181817"></rect><rect style="stroke: #000000; fill: none;" x="310" y="89.0909090909091" width="7.5" height="190.9090909090909"></rect><rect style="stroke: #000000; fill: none;" x="323.5" y="117.0909090909091" width="7.5" height="162.9090909090909"></rect><rect style="stroke: #000000; fill: none;" x="337" y="71.27272727272731" width="7.5" height="208.7272727272727"></rect><rect style="stroke: #000000; fill: none;" x="350.50000000000006" y="162.90909090909093" width="7.5" height="117.09090909090908"></rect><rect style="stroke: #000000; fill: none;" x="364.00000000000006" y="231.63636363636363" width="7.5" height="48.36363636363637"></rect><rect style="stroke: #000000; fill: none;" x="377.5" y="145.0909090909091" width="7.5" height="134.9090909090909"></rect><rect style="stroke: #000000; fill: none;" x="391" y="106.9090909090909" width="7.5" height="173.0909090909091"></rect><rect style="stroke: #000000; fill: none;" x="404.5" y="274.90909090909093" width="7.5" height="5.090909090909091"></rect><rect style="stroke: #000000; fill: none;" x="418.00000000000006" y="104.36363636363637" width="7.5" height="175.63636363636363"></rect><rect style="stroke: #000000; fill: none;" x="431.50000000000006" y="142.54545454545453" width="7.5" height="137.45454545454547"></rect><rect style="stroke: #000000; fill: none;" x="445" y="170.54545454545456" width="7.5" height="109.45454545454544"></rect><rect style="stroke: #000000; fill: none;" x="458.5" y="76.36363636363635" width="7.5" height="203.63636363636365"></rect><rect style="stroke: #000000; fill: none;" x="472" y="244.36363636363637" width="7.5" height="35.63636363636363"></rect><rect style="stroke: #000000; fill: none;" x="485.50000000000006" y="101.81818181818181" width="7.5" height="178.1818181818182"></rect><rect style="stroke: #000000; fill: none;" x="499.00000000000006" y="137.45454545454547" width="7.5" height="142.54545454545453"></rect><rect style="stroke: #000000; fill: none;" x="512.5" y="249.45454545454544" width="7.5" height="30.545454545454543"></rect><rect style="stroke: #000000; fill: none;" x="526" y="183.27272727272725" width="7.5" height="96.72727272727273"></rect><rect style="stroke: #000000; fill: none;" x="539.5" y="127.27272727272728" width="7.5" height="152.72727272727272"></rect><rect style="stroke: #000000; fill: none;" x="553" y="196" width="7.5" height="84"></rect><rect style="stroke: #000000; fill: none;" x="566.5" y="86.54545454545453" width="7.5" height="193.45454545454547"></rect></g><g><text x="43.75" y="290" font-size="10" text-anchor="middle"></text><text x="57.25" y="290" font-size="10" text-anchor="middle"></text><text x="70.75" y="290" font-size="10" text-anchor="middle"></text><text x="84.25" y="290" font-size="10" text-anchor="middle"></text><text x="97.75" y="290" font-size="10" text-anchor="middle"></text><text x="111.25" y="290" font-size="10" text-anchor="middle">B</text><text x="124.75000000000001" y="290" font-size="10" text-anchor="middle"></text><text x="138.25" y="290" font-size="10" text-anchor="middle"></text><text x="151.75" y="290" font-size="10" text-anchor="middle"></text><text x="165.25" y="290" font-size="10" text-anchor="middle"></text><text x="178.75" y="290" font-size="10" text-anchor="middle"></text><text x="192.25" y="290" font-size="10" text-anchor="middle"></text><text x="205.75000000000003" y="290" font-size="10" text-anchor="middle"></text><text x="219.25" y="290" font-size="10" text-anchor="middle"></text><text x="232.75000000000003" y="290" font-size="10" text-anchor="middle"></text><text x="246.25" y="290" font-size="10" text-anchor="middle"></text><text x="259.75" y="290" font-size="10" text-anchor="middle"></text><text x="273.25" y="290" font-size="10" text-anchor="middle"></text><text x="286.75" y="290" font-size="10" text-anchor="middle"></text><text x="300.25" y="290" font-size="10" text-anchor="middle"></text><text x="313.75" y="290" font-size="10" text-anchor="middle"></text><text x="327.25" y="290" font-size="10" text-anchor="middle"></text><text x="340.75" y="290" font-size="10" text-anchor="middle"></text><text x="354.25000000000006" y="290" font-size="10" text-anchor="middle"></text><text x="367.75000000000006" y="290" font-size="10" text-anchor="middle"></text><text x="381.25" y="290" font-size="10" text-anchor="middle"></text><text x="394.75" y="290" font-size="10" text-anchor="middle">A</text><text x="408.25" y="290" font-size="10" text-anchor="middle"></text><text x="421.75000000000006" y="290" font-size="10" text-anchor="middle"></text><text x="435.25000000000006" y="290" font-size="10" text-anchor="middle"></text><text x="448.75" y="290" font-size="10" text-anchor="middle"></text><text x="462.25" y="290" font-size="10" text-anchor="middle"></text><text x="475.75" y="290" font-size="10" text-anchor="middle"></text><text x="489.25000000000006" y="290" font-size="10" text-anchor="middle"></text><text x="502.75000000000006" y="290" font-size="10" text-anchor="middle"></text><text x="516.25" y="290" font-size="10" text-anchor="middle"></text><text x="529.75" y="290" font-size="10" text-anchor="middle"></text><text x="543.25" y="290" font-size="10" text-anchor="middle"></text><text x="556.75" y="290" font-size="10" text-anchor="middle"></text><text x="570.25" y="290" font-size="10" text-anchor="middle"></text></g></svg>