<?xml version='1.0' encoding='utf-8'?><!DOCTYPE svg PUBLIC '-//W3C//DTD SVG 1.1//EN' 'http://www.w3.org/Graphics/SVG/1.1/DTD/svg11.dtd'><svg height="300" width="600"><g><line y1="20" y2="280" x1="20" x2="20" style="stroke: #000000;"></line><text x="0" y="25" font-size="10">100</text><text x="12" y="280" font-size="10">0</text><line x1="20" x2="580" y1="280" y2="280" style="stroke: #000000;"></line><rect style="stroke: #000000; fill: none;" x="40" y="167.16026241799437" width="30" height="112.83973758200561"></rect><rect style="stroke: #000000; fill: none;" x="94" y="88.4348641049672" width="30" height="191.5651358950328"></rect><rect style="stroke: #000000; fill: none;" x="148" y="46.447985004686046" width="30" height="233.55201499531395"></rect><rect style="stroke: #000000; fill: none;" x="202.00000000000003" y="133.04592314901595" width="30" height="146.95407685098405"></rect><rect style="stroke: #000000; fill: none;" x="256" y="67.44142455482665" width="30" height="212.55857544517335"></rect><rect style="stroke: #000000; fill: none;" x="310" y="203.89878163074042" width="30" height="76.1012183692596"></rect><rect style="stroke: #000000; fill: none;" x="364.00000000000006" y="143.54264292408624" width="30" height="136.45735707591376"></rect><rect style="stroke: #000000; fill: none;" x="418.00000000000006" y="211.77132146204312" width="30" height="68.22867853795688"></rect><rect style="stroke: #000000; fill: none;" x="472" y="25.454545454545467" width="30" height="254.54545454545453"></rect><rect style="stroke: #000000; fill: none;" x="526" y="245.88566073102157" width="30" height="34.11433926897844"></rect></g><g><text x="55" y="290" font-size="10" text-anchor="middle">B</text><text x="109" y="290" font-size="10" text-anchor="middle"></text><text x="163" y="290" font-size="10" text-anchor="middle"></text><text x="217.00000000000003" y="290" font-size="10" text-anchor="middle"></text><text x="271" y="290" font-size="10" text-anchor="middle"></text><text x="325" y="290" font-size="10" text-anchor="middle"></text><text x="379.00000000000006" y="290" font-size="10" text-anchor="middle"></text><text x="433.00000000000006" y="290" font-size="10" text-anchor="middle">A</text><text x="487" y="290" font-size="10" text-anchor="middle"></text><text x="541" y="290" font-size="10" text-anchor="middle"></text></g></svg>