<?xml version='1.0' encoding='utf-8'?><!DOCTYPE svg PUBLIC '-//W3C//DTD SVG 1.1//EN' 'http://www.w3.org/Graphics/SVG/1.1/DTD/svg11.dtd'><svg height="300" width="600"><g><line y1="20" y2="280" x1="20" x2="20" style="stroke: #000000;"></line><text x="0" y="25" font-size="10">100</text><text x="12" y="280" font-size="10">0</text><line x1="20" x2="580" y1="280" y2="280" style="stroke: #000000;"></line><rect style="stroke: #000000; fill: none;" x="40" y="148.62170087976543" width="30" height="131.37829912023457"></rect><rect style="stroke: #000000; fill: none;" x="94" y="52.82502443792771" width="30" height="227.1749755620723"></rect><rect style="stroke: #000000; fill: none;" x="148" y="217.04789833822093" width="30" height="62.952101661779075"></rect><rect style="stroke: #000000; fill: none;" x="202.00000000000003" y="219.78494623655914" width="30" height="60.21505376344086"></rect><rect style="stroke: #000000; fill: none;" x="256" y="258.10361681329425" width="30" height="21.896383186705762"></rect><rect style="stroke: #000000; fill: none;" x="310" y="271.78885630498536" width="30" height="8.21114369501466"></rect><rect style="stroke: #000000; fill: none;" x="364.00000000000006" y="85.66959921798636" width="30" height="194.33040078201364"></rect><rect style="stroke: #000000; fill: none;" x="418.00000000000006" y="25.454545454545496" width="30" height="254.5454545454545"></rect><rect style="stroke: #000000; fill: none;" x="472" y="39.139784946236574" width="30" height="240.86021505376343"></rect><rect style="stroke: #000000; fill: none;" x="526" y="186.94037145650051" width="30" height="93.05962854349949"></rect></g><g><text x="55" y="290" font-size="10" text-anchor="middle"></text><text x="109" y="290" font-size="10" text-anchor="middle">B</text><text x="163" y="290" font-size="10" text-anchor="middle"></text><text x="217.00000000000003" y="290" font-size="10" text-anchor="middle"></text><text x="271" y="290" font-size="10" text-anchor="middle"></text><text x="325" y="290" font-size="10" text-anchor="middle"></text><text x="379.00000000000006" y="290" font-size="10" text-anchor="middle"></text><text x="433.00000000000006" y="290" font-size="10" text-anchor="middle">A</text><text x="487" y="290" font-size="10" text-anchor="middle"></text><text x="541" y="290" font-size="10" text-anchor="middle"></text></g></svg>