<?xml version='1.0' encoding='utf-8'?><!DOCTYPE svg PUBLIC '-//W3C//DTD SVG 1.1//EN' 'http://www.w3.org/Graphics/SVG/1.1/DTD/svg11.dtd'><svg height="300" width="600"><g><line y1="20" y2="280" x1="20" x2="20" style="stroke: #000000;"></line><text x="0" y="25" font-size="10">100</text><text x="12" y="280" font-size="10">0</text><line x1="20" x2="580" y1="280" y2="280" style="stroke: #000000;"></line><rect style="stroke: #000000; fill: none;" x="40" y="245.88566073102157" width="30" height="34.11433926897844"></rect><rect style="stroke: #000000; fill: none;" x="94" y="35.95126522961576" width="30" height="244.04873477038424"></rect><rect style="stroke: #000000; fill: none;" x="148" y="177.65698219306466" width="30" height="102.34301780693532"></rect><rect style="stroke: #000000; fill: none;" x="202.00000000000003" y="112.05248359887537" width="30" height="167.94751640112463"></rect><rect style="stroke: #000000; fill: none;" x="256" y="151.41518275538894" width="30" height="128.58481724461106"></rect><rect style="stroke: #000000; fill: none;" x="310" y="193.40206185567013" width="30" height="86.59793814432989"></rect><rect style="stroke: #000000; fill: none;" x="364.00000000000006" y="96.30740393626994" width="30" height="183.69259606373006"></rect><rect style="stroke: #000000; fill: none;" x="418.00000000000006" y="25.454545454545467" width="30" height="254.54545454545453"></rect><rect style="stroke: #000000; fill: none;" x="472" y="83.18650421743206" width="30" height="196.81349578256794"></rect><rect style="stroke: #000000; fill: none;" x="526" y="130.42174320524836" width="30" height="149.57825679475164"></rect></g><g><text x="55" y="290" font-size="10" text-anchor="middle"></text><text x="109" y="290" font-size="10" text-anchor="middle"></text><text x="163" y="290" font-size="10" text-anchor="middle">B</text><text x="217.00000000000003" y="290" font-size="10" text-anchor="middle"></text><text x="271" y="290" font-size="10" text-anchor="middle"></text><text x="325" y="290" font-size="10" text-anchor="middle"></text><text x="379.00000000000006" y="290" font-size="10" text-anchor="middle">A</text><text x="433.00000000000006" y="290" font-size="10" text-anchor="middle"></text><text x="487" y="290" font-size="10" text-anchor="middle"></text><text x="541" y="290" font-size="10" text-anchor="middle"></text></g></svg>