<?xml version='1.0' encoding='utf-8'?><!DOCTYPE svg PUBLIC '-//W3C//DTD SVG 1.1//EN' 'http://www.w3.org/Graphics/SVG/1.1/DTD/svg11.dtd'><svg height="300" width="600"><g><line y1="20" y2="280" x1="20" x2="20" style="stroke: #000000;"></line><text x="0" y="25" font-size="10">100</text><text x="12" y="280" font-size="10">0</text><line x1="20" x2="580" y1="280" y2="280" style="stroke: #000000;"></line><rect style="stroke: #000000; fill: none;" x="40" y="183.54066985645937" width="7.5" height="96.45933014354064"></rect><rect style="stroke: #000000; fill: none;" x="53.5" y="274.64114832535887" width="7.5" height="5.358851674641147"></rect><rect style="stroke: #000000; fill: none;" x="67" y="140.6698564593302" width="7.5" height="139.3301435406698"></rect><rect style="stroke: #000000; fill: none;" x="80.5" y="154.06698564593304" width="7.5" height="125.93301435406696"></rect><rect style="stroke: #000000; fill: none;" x="94" y="239.80861244019138" width="7.5" height="40.191387559808604"></rect><rect style="stroke: #000000; fill: none;" x="107.5" y="261.24401913875596" width="7.5" height="18.755980861244016"></rect><rect style="stroke: #000000; fill: none;" x="121.00000000000001" y="38.85167464114838" width="7.5" height="241.14832535885162"></rect><rect style="stroke: #000000; fill: none;" x="134.5" y="172.82296650717706" width="7.5" height="107.17703349282293"></rect><rect style="stroke: #000000; fill: none;" x="148" y="159.4258373205742" width="7.5" height="120.57416267942581"></rect><rect style="stroke: #000000; fill: none;" x="161.5" y="146.02870813397132" width="7.5" height="133.97129186602868"></rect><rect style="stroke: #000000; fill: none;" x="175" y="188.8995215311005" width="7.5" height="91.1004784688995"></rect><rect style="stroke: #000000; fill: none;" x="188.5" y="25.454545454545524" width="7.5" height="254.54545454545448"></rect><rect style="stroke: #000000; fill: none;" x="202.00000000000003" y="213.01435406698567" width="7.5" height="66.98564593301434"></rect><rect style="stroke: #000000; fill: none;" x="215.5" y="234.44976076555025" width="7.5" height="45.55023923444975"></rect><rect style="stroke: #000000; fill: none;" x="229.00000000000003" y="33.49282296650722" width="7.5" height="246.50717703349278"></rect><rect style="stroke: #000000; fill: none;" x="242.5" y="116.55502392344502" width="7.5" height="163.44497607655498"></rect><rect style="stroke: #000000; fill: none;" x="256" y="105.8373205741627" width="7.5" height="174.1626794258373"></rect><rect style="stroke: #000000; fill: none;" x="269.5" y="237.12918660287085" width="7.5" height="42.870813397129176"></rect><rect style="stroke: #000000; fill: none;" x="283" y="207.6555023923445" width="7.5" height="72.3444976076555"></rect><rect style="stroke: #000000; fill: none;" x="296.5" y="76.36363636363643" width="7.5" height="203.63636363636357"></rect><rect style="stroke: #000000; fill: none;" x="310" y="87.08133971291872" width="7.5" height="192.91866028708128"></rect><rect style="stroke: #000000; fill: none;" x="323.5" y="178.18181818181822" width="7.5" height="101.81818181818178"></rect><rect style="stroke: #000000; fill: none;" x="337" y="121.91387559808618" width="7.5" height="158.08612440191382"></rect><rect style="stroke: #000000; fill: none;" x="350.50000000000006" y="132.63157894736847" width="7.5" height="147.36842105263153"></rect><rect style="stroke: #000000; fill: none;" x="364.00000000000006" y="84.40191387559813" width="7.5" height="195.59808612440187"></rect><rect style="stroke: #000000; fill: none;" x="377.5" y="89.76076555023926" width="7.5" height="190.23923444976074"></rect><rect style="stroke: #000000; fill: none;" x="391" y="81.72248803827756" width="7.5" height="198.27751196172244"></rect><rect style="stroke: #000000; fill: none;" x="404.5" y="194.25837320574163" width="7.5" height="85.74162679425835"></rect><rect style="stroke: #000000; fill: none;" x="418.00000000000006" y="57.60765550239239" width="7.5" height="222.3923444976076"></rect><rect style="stroke: #000000; fill: none;" x="431.50000000000006" y="36.17224880382781" width="7.5" height="243.8277511961722"></rect><rect style="stroke: #000000; fill: none;" x="445" y="253.2057416267943" width="7.5" height="26.794258373205732"></rect><rect style="stroke: #000000; fill: none;" x="458.5" y="186.2200956937799" width="7.5" height="93.77990430622008"></rect><rect style="stroke: #000000; fill: none;" x="472" y="79.04306220095697" width="7.5" height="200.95693779904303"></rect><rect style="stroke: #000000; fill: none;" x="485.50000000000006" y="119.23444976076559" width="7.5" height="160.76555023923441"></rect><rect style="stroke: #000000; fill: none;" x="499.00000000000006" y="143.34928229665076" width="7.5" height="136.65071770334924"></rect><rect style="stroke: #000000; fill: none;" x="512.5" y="148.7081339712919" width="7.5" height="131.2918660287081"></rect><rect style="stroke: #000000; fill: none;" x="526" y="97.79904306220101" width="7.5" height="182.200956937799"></rect><rect style="stroke: #000000; fill: none;" x="539.5" y="44.21052631578951" width="7.5" height="235.7894736842105"></rect><rect style="stroke: #000000; fill: none;" x="553" y="223.73205741626793" width="7.5" height="56.26794258373205"></rect><rect style="stroke: #000000; fill: none;" x="566.5" y="111.19617224880389" width="7.5" height="168.8038277511961"></rect></g><g><text x="43.75" y="290" font-size="10" text-anchor="middle"></text><text x="57.25" y="290" font-size="10" text-anchor="middle"></text><text x="70.75" y="290" font-size="10" text-anchor="middle"></text><text x="84.25" y="290" font-size="10" text-anchor="middle"></text><text x="97.75" y="290" font-size="10" text-anchor="middle"></text><text x="111.25" y="290" font-size="10" text-anchor="middle"></text><text x="124.75000000000001" y="290" font-size="10" text-anchor="middle"></text><text x="138.25" y="290" font-size="10" text-anchor="middle"></text><text x="151.75" y="290" font-size="10" text-anchor="middle"></text><text x="165.25" y="290" font-size="10" text-anchor="middle"></text><text x="178.75" y="290" font-size="10" text-anchor="middle"></text><text x="192.25" y="290" font-size="10" text-anchor="middle"></text><text x="205.75000000000003" y="290" font-size="10" text-anchor="middle">B</text><text x="219.25" y="290" font-size="10" text-anchor="middle"></text><text x="232.75000000000003" y="290" font-size="10" text-anchor="middle"></text><text x="246.25" y="290" font-size="10" text-anchor="middle"></text><text x="259.75" y="290" font-size="10" text-anchor="middle"></text><text x="273.25" y="290" font-size="10" text-anchor="middle"></text><text x="286.75" y="290" font-size="10" text-anchor="middle"></text><text x="300.25" y="290" font-size="10" text-anchor="middle"></text><text x="313.75" y="290" font-size="10" text-anchor="middle"></text><text x="327.25" y="290" font-size="10" text-anchor="middle"></text><text x="340.75" y="290" font-size="10" text-anchor="middle"></text><text x="354.25000000000006" y="290" font-size="10" text-anchor="middle"></text><text x="367.75000000000006" y="290" font-size="10" text-anchor="middle"></text><text x="381.25" y="290" font-size="10" text-anchor="middle"></text><text x="394.75" y="290" font-size="10" text-anchor="middle"></text><text x="408.25" y="290" font-size="10" text-anchor="middle"></text><text x="421.75000000000006" y="290" font-size="10" text-anchor="middle"></text><text x="435.25000000000006" y="290" font-size="10" text-anchor="middle"></text><text x="448.75" y="290" font-size="10" text-anchor="middle"></text><text x="462.25" y="290" font-size="10" text-anchor="middle"></text><text x="475.75" y="290" font-size="10" text-anchor="middle"></text><text x="489.25000000000006" y="290" font-size="10" text-anchor="middle">A</text><text x="502.75000000000006" y="290" font-size="10" text-anchor="middle"></text><text x="516.25" y="290" font-size="10" text-anchor="middle"></text><text x="529.75" y="290" font-size="10" text-anchor="middle"></text><text x="543.25" y="290" font-size="10" text-anchor="middle"></text><text x="556.75" y="290" font-size="10" text-anchor="middle"></text><text x="570.25" y="290" font-size="10" text-anchor="middle"></text></g></svg>