<?xml version='1.0' encoding='utf-8'?><!DOCTYPE svg PUBLIC '-//W3C//DTD SVG 1.1//EN' 'http://www.w3.org/Graphics/SVG/1.1/DTD/svg11.dtd'><svg height="300" width="600"><g><line y1="20" y2="280" x1="20" x2="20" style="stroke: #000000;"></line><text x="0" y="25" font-size="10">100</text><text x="12" y="280" font-size="10">0</text><line x1="20" x2="580" y1="280" y2="280" style="stroke: #000000;"></line><rect style="stroke: #000000; fill: none;" x="40" y="144.60348162475822" width="30" height="135.39651837524178"></rect><rect style="stroke: #000000; fill: none;" x="94" y="236.67311411992262" width="30" height="43.32688588007736"></rect><rect style="stroke: #000000; fill: none;" x="148" y="76.90522243713733" width="30" height="203.09477756286267"></rect><rect style="stroke: #000000; fill: none;" x="202.00000000000003" y="131.06382978723406" width="30" height="148.93617021276594"></rect><rect style="stroke: #000000; fill: none;" x="256" y="25.454545454545496" width="30" height="254.5454545454545"></rect><rect style="stroke: #000000; fill: none;" x="310" y="98.56866537717605" width="30" height="181.43133462282395"></rect><rect style="stroke: #000000; fill: none;" x="364.00000000000006" y="125.64796905222437" width="30" height="154.35203094777563"></rect><rect style="stroke: #000000; fill: none;" x="418.00000000000006" y="139.1876208897486" width="30" height="140.8123791102514"></rect><rect style="stroke: #000000; fill: none;" x="472" y="190.63829787234044" width="30" height="89.36170212765957"></rect><rect style="stroke: #000000; fill: none;" x="526" y="49.825918762089" width="30" height="230.174081237911"></rect></g><g><text x="55" y="290" font-size="10" text-anchor="middle"></text><text x="109" y="290" font-size="10" text-anchor="middle"></text><text x="163" y="290" font-size="10" text-anchor="middle">B</text><text x="217.00000000000003" y="290" font-size="10" text-anchor="middle"></text><text x="271" y="290" font-size="10" text-anchor="middle"></text><text x="325" y="290" font-size="10" text-anchor="middle"></text><text x="379.00000000000006" y="290" font-size="10" text-anchor="middle"></text><text x="433.00000000000006" y="290" font-size="10" text-anchor="middle"></text><text x="487" y="290" font-size="10" text-anchor="middle">A</text><text x="541" y="290" font-size="10" text-anchor="middle"></text></g></svg>