<?xml version='1.0' encoding='utf-8'?><!DOCTYPE svg PUBLIC '-//W3C//DTD SVG 1.1//EN' 'http://www.w3.org/Graphics/SVG/1.1/DTD/svg11.dtd'><svg height="300" width="600"><g><line y1="20" y2="280" x1="20" x2="20" style="stroke: #000000;"></line><text x="0" y="25" font-size="10">100</text><text x="12" y="280" font-size="10">0</text><line x1="20" x2="580" y1="280" y2="280" style="stroke: #000000;"></line><rect style="stroke: #000000; fill: none;" x="40" y="51.428571428571445" width="30" height="228.57142857142856"></rect><rect style="stroke: #000000; fill: none;" x="94" y="204.6753246753247" width="30" height="75.32467532467531"></rect><rect style="stroke: #000000; fill: none;" x="148" y="28.051948051948074" width="30" height="251.94805194805193"></rect><rect style="stroke: #000000; fill: none;" x="202.00000000000003" y="217.66233766233768" width="30" height="62.33766233766233"></rect><rect style="stroke: #000000; fill: none;" x="256" y="212.46753246753246" width="30" height="67.53246753246752"></rect><rect style="stroke: #000000; fill: none;" x="310" y="137.14285714285717" width="30" height="142.85714285714283"></rect><rect style="stroke: #000000; fill: none;" x="364.00000000000006" y="35.844155844155864" width="30" height="244.15584415584414"></rect><rect style="stroke: #000000; fill: none;" x="418.00000000000006" y="87.79220779220782" width="30" height="192.20779220779218"></rect><rect style="stroke: #000000; fill: none;" x="472" y="168.31168831168833" width="30" height="111.68831168831167"></rect><rect style="stroke: #000000; fill: none;" x="526" y="25.454545454545496" width="30" height="254.5454545454545"></rect></g><g><text x="55" y="290" font-size="10" text-anchor="middle"></text><text x="109" y="290" font-size="10" text-anchor="middle"></text><text x="163" y="290" font-size="10" text-anchor="middle"></text><text x="217.00000000000003" y="290" font-size="10" text-anchor="middle"></text><text x="271" y="290" font-size="10" text-anchor="middle">A</text><text x="325" y="290" font-size="10" text-anchor="middle"></text><text x="379.00000000000006" y="290" font-size="10" text-anchor="middle"></text><text x="433.00000000000006" y="290" font-size="10" text-anchor="middle"></text><text x="487" y="290" font-size="10" text-anchor="middle">B</text><text x="541" y="290" font-size="10" text-anchor="middle"></text></g></svg>