<?xml version='1.0' encoding='utf-8'?><!DOCTYPE svg PUBLIC '-//W3C//DTD SVG 1.1//EN' 'http://www.w3.org/Graphics/SVG/1.1/DTD/svg11.dtd'><svg height="300" width="600"><g><line y1="20" y2="280" x1="20" x2="20" style="stroke: #000000;"></line><text x="0" y="25" font-size="10">100</text><text x="12" y="280" font-size="10">0</text><line x1="20" x2="580" y1="280" y2="280" style="stroke: #000000;"></line><rect style="stroke: #000000; fill: none;" x="40" y="84.59136822773186" width="30" height="195.40863177226814"></rect><rect style="stroke: #000000; fill: none;" x="94" y="213.14967860422405" width="30" height="66.85032139577594"></rect><rect style="stroke: #000000; fill: none;" x="148" y="25.454545454545467" width="30" height="254.54545454545453"></rect><rect style="stroke: #000000; fill: none;" x="202.00000000000003" y="56.3085399449036" width="30" height="223.6914600550964"></rect><rect style="stroke: #000000; fill: none;" x="256" y="274.8576675849403" width="30" height="5.142332415059688"></rect><rect style="stroke: #000000; fill: none;" x="310" y="195.15151515151516" width="30" height="84.84848484848484"></rect><rect style="stroke: #000000; fill: none;" x="364.00000000000006" y="202.86501377410468" width="30" height="77.13498622589532"></rect><rect style="stroke: #000000; fill: none;" x="418.00000000000006" y="159.15518824609734" width="30" height="120.84481175390266"></rect><rect style="stroke: #000000; fill: none;" x="472" y="236.29017447199266" width="30" height="43.70982552800734"></rect><rect style="stroke: #000000; fill: none;" x="526" y="143.7281910009183" width="30" height="136.2718089990817"></rect></g><g><text x="55" y="290" font-size="10" text-anchor="middle">A</text><text x="109" y="290" font-size="10" text-anchor="middle"></text><text x="163" y="290" font-size="10" text-anchor="middle"></text><text x="217.00000000000003" y="290" font-size="10" text-anchor="middle"></text><text x="271" y="290" font-size="10" text-anchor="middle"></text><text x="325" y="290" font-size="10" text-anchor="middle"></text><text x="379.00000000000006" y="290" font-size="10" text-anchor="middle">B</text><text x="433.00000000000006" y="290" font-size="10" text-anchor="middle"></text><text x="487" y="290" font-size="10" text-anchor="middle"></text><text x="541" y="290" font-size="10" text-anchor="middle"></text></g></svg>