<?xml version='1.0' encoding='utf-8'?><!DOCTYPE svg PUBLIC '-//W3C//DTD SVG 1.1//EN' 'http://www.w3.org/Graphics/SVG/1.1/DTD/svg11.dtd'><svg height="300" width="600"><g><line y1="20" y2="280" x1="20" x2="20" style="stroke: #000000;"></line><text x="0" y="25" font-size="10">100</text><text x="12" y="280" font-size="10">0</text><line x1="20" x2="580" y1="280" y2="280" style="stroke: #000000;"></line><rect style="stroke: #000000; fill: none;" x="40" y="43.855421686747036" width="30" height="236.14457831325296"></rect><rect style="stroke: #000000; fill: none;" x="94" y="169.59474260679082" width="30" height="110.40525739320918"></rect><rect style="stroke: #000000; fill: none;" x="148" y="80.65717415115009" width="30" height="199.3428258488499"></rect><rect style="stroke: #000000; fill: none;" x="202.00000000000003" y="197.19605695509313" width="30" height="82.80394304490689"></rect><rect style="stroke: #000000; fill: none;" x="256" y="200.26286966046" width="30" height="79.73713033953997"></rect><rect style="stroke: #000000; fill: none;" x="310" y="25.454545454545496" width="30" height="254.5454545454545"></rect><rect style="stroke: #000000; fill: none;" x="364.00000000000006" y="151.19386637458928" width="30" height="128.80613362541072"></rect><rect style="stroke: #000000; fill: none;" x="418.00000000000006" y="163.461117196057" width="30" height="116.53888280394303"></rect><rect style="stroke: #000000; fill: none;" x="472" y="138.9266155531216" width="30" height="141.0733844468784"></rect><rect style="stroke: #000000; fill: none;" x="526" y="175.72836801752464" width="30" height="104.27163198247534"></rect></g><g><text x="55" y="290" font-size="10" text-anchor="middle"></text><text x="109" y="290" font-size="10" text-anchor="middle">B</text><text x="163" y="290" font-size="10" text-anchor="middle"></text><text x="217.00000000000003" y="290" font-size="10" text-anchor="middle"></text><text x="271" y="290" font-size="10" text-anchor="middle"></text><text x="325" y="290" font-size="10" text-anchor="middle"></text><text x="379.00000000000006" y="290" font-size="10" text-anchor="middle"></text><text x="433.00000000000006" y="290" font-size="10" text-anchor="middle">A</text><text x="487" y="290" font-size="10" text-anchor="middle"></text><text x="541" y="290" font-size="10" text-anchor="middle"></text></g></svg>