<?xml version='1.0' encoding='utf-8'?><!DOCTYPE svg PUBLIC '-//W3C//DTD SVG 1.1//EN' 'http://www.w3.org/Graphics/SVG/1.1/DTD/svg11.dtd'><svg height="300" width="600"><g><line y1="20" y2="280" x1="20" x2="20" style="stroke: #000000;"></line><text x="0" y="25" font-size="10">100</text><text x="12" y="280" font-size="10">0</text><line x1="20" x2="580" y1="280" y2="280" style="stroke: #000000;"></line><rect style="stroke: #000000; fill: none;" x="40" y="82.3923444976077" width="30" height="197.6076555023923"></rect><rect style="stroke: #000000; fill: none;" x="94" y="226.41148325358853" width="30" height="53.58851674641148"></rect><rect style="stroke: #000000; fill: none;" x="148" y="149.37799043062202" width="30" height="130.62200956937798"></rect><rect style="stroke: #000000; fill: none;" x="202.00000000000003" y="28.803827751196224" width="30" height="251.19617224880378"></rect><rect style="stroke: #000000; fill: none;" x="256" y="179.52153110047848" width="30" height="100.47846889952152"></rect><rect style="stroke: #000000; fill: none;" x="310" y="142.6794258373206" width="30" height="137.3205741626794"></rect><rect style="stroke: #000000; fill: none;" x="364.00000000000006" y="102.48803827751198" width="30" height="177.51196172248802"></rect><rect style="stroke: #000000; fill: none;" x="418.00000000000006" y="62.296650717703386" width="30" height="217.7033492822966"></rect><rect style="stroke: #000000; fill: none;" x="472" y="25.454545454545496" width="30" height="254.5454545454545"></rect><rect style="stroke: #000000; fill: none;" x="526" y="162.7751196172249" width="30" height="117.22488038277511"></rect></g><g><text x="55" y="290" font-size="10" text-anchor="middle"></text><text x="109" y="290" font-size="10" text-anchor="middle"></text><text x="163" y="290" font-size="10" text-anchor="middle"></text><text x="217.00000000000003" y="290" font-size="10" text-anchor="middle"></text><text x="271" y="290" font-size="10" text-anchor="middle">B</text><text x="325" y="290" font-size="10" text-anchor="middle"></text><text x="379.00000000000006" y="290" font-size="10" text-anchor="middle"></text><text x="433.00000000000006" y="290" font-size="10" text-anchor="middle"></text><text x="487" y="290" font-size="10" text-anchor="middle">A</text><text x="541" y="290" font-size="10" text-anchor="middle"></text></g></svg>