<?xml version='1.0' encoding='utf-8'?><!DOCTYPE svg PUBLIC '-//W3C//DTD SVG 1.1//EN' 'http://www.w3.org/Graphics/SVG/1.1/DTD/svg11.dtd'><svg height="300" width="600"><g><line y1="20" y2="280" x1="20" x2="20" style="stroke: #000000;"></line><text x="0" y="25" font-size="10">100</text><text x="12" y="280" font-size="10">0</text><line x1="20" x2="580" y1="280" y2="280" style="stroke: #000000;"></line><rect style="stroke: #000000; fill: none;" x="40" y="154.12587412587413" width="30" height="125.87412587412587"></rect><rect style="stroke: #000000; fill: none;" x="94" y="198.88111888111888" width="30" height="81.11888111888112"></rect><rect style="stroke: #000000; fill: none;" x="148" y="89.79020979020979" width="30" height="190.2097902097902"></rect><rect style="stroke: #000000; fill: none;" x="202.00000000000003" y="252.02797202797206" width="30" height="27.972027972027973"></rect><rect style="stroke: #000000; fill: none;" x="256" y="109.37062937062936" width="30" height="170.62937062937064"></rect><rect style="stroke: #000000; fill: none;" x="310" y="25.454545454545467" width="30" height="254.54545454545453"></rect><rect style="stroke: #000000; fill: none;" x="364.00000000000006" y="73.00699300699301" width="30" height="206.993006993007"></rect><rect style="stroke: #000000; fill: none;" x="418.00000000000006" y="240.83916083916085" width="30" height="39.16083916083917"></rect><rect style="stroke: #000000; fill: none;" x="472" y="45.03496503496504" width="30" height="234.96503496503496"></rect><rect style="stroke: #000000; fill: none;" x="526" y="271.6083916083916" width="30" height="8.391608391608392"></rect></g><g><text x="55" y="290" font-size="10" text-anchor="middle"></text><text x="109" y="290" font-size="10" text-anchor="middle"></text><text x="163" y="290" font-size="10" text-anchor="middle">A</text><text x="217.00000000000003" y="290" font-size="10" text-anchor="middle"></text><text x="271" y="290" font-size="10" text-anchor="middle"></text><text x="325" y="290" font-size="10" text-anchor="middle"></text><text x="379.00000000000006" y="290" font-size="10" text-anchor="middle"></text><text x="433.00000000000006" y="290" font-size="10" text-anchor="middle"></text><text x="487" y="290" font-size="10" text-anchor="middle">B</text><text x="541" y="290" font-size="10" text-anchor="middle"></text></g></svg>