<?xml version='1.0' encoding='utf-8'?><!DOCTYPE svg PUBLIC '-//W3C//DTD SVG 1.1//EN' 'http://www.w3.org/Graphics/SVG/1.1/DTD/svg11.dtd'><svg height="300" width="600"><g><line y1="20" y2="280" x1="20" x2="20" style="stroke: #000000;"></line><text x="0" y="25" font-size="10">100</text><text x="12" y="280" font-size="10">0</text><line x1="20" x2="580" y1="280" y2="280" style="stroke: #000000;"></line><rect style="stroke: #000000; fill: none;" x="40" y="105.16069788797063" width="30" height="174.83930211202937"></rect><rect style="stroke: #000000; fill: none;" x="94" y="177.15335169880626" width="30" height="102.84664830119375"></rect><rect style="stroke: #000000; fill: none;" x="148" y="164.29752066115702" width="30" height="115.70247933884298"></rect><rect style="stroke: #000000; fill: none;" x="202.00000000000003" y="84.59136822773186" width="30" height="195.40863177226814"></rect><rect style="stroke: #000000; fill: none;" x="256" y="48.595041322314046" width="30" height="231.40495867768595"></rect><rect style="stroke: #000000; fill: none;" x="310" y="40.88154269972452" width="30" height="239.11845730027548"></rect><rect style="stroke: #000000; fill: none;" x="364.00000000000006" y="25.454545454545467" width="30" height="254.54545454545453"></rect><rect style="stroke: #000000; fill: none;" x="418.00000000000006" y="51.16620752984389" width="30" height="228.8337924701561"></rect><rect style="stroke: #000000; fill: none;" x="472" y="123.15886134067952" width="30" height="156.84113865932048"></rect><rect style="stroke: #000000; fill: none;" x="526" y="274.8576675849403" width="30" height="5.142332415059688"></rect></g><g><text x="55" y="290" font-size="10" text-anchor="middle">A</text><text x="109" y="290" font-size="10" text-anchor="middle"></text><text x="163" y="290" font-size="10" text-anchor="middle"></text><text x="217.00000000000003" y="290" font-size="10" text-anchor="middle"></text><text x="271" y="290" font-size="10" text-anchor="middle"></text><text x="325" y="290" font-size="10" text-anchor="middle"></text><text x="379.00000000000006" y="290" font-size="10" text-anchor="middle">B</text><text x="433.00000000000006" y="290" font-size="10" text-anchor="middle"></text><text x="487" y="290" font-size="10" text-anchor="middle"></text><text x="541" y="290" font-size="10" text-anchor="middle"></text></g></svg>