<?xml version='1.0' encoding='utf-8'?><!DOCTYPE svg PUBLIC '-//W3C//DTD SVG 1.1//EN' 'http://www.w3.org/Graphics/SVG/1.1/DTD/svg11.dtd'><svg height="300" width="600"><g><line y1="20" y2="280" x1="20" x2="20" style="stroke: #000000;"></line><text x="0" y="25" font-size="10">100</text><text x="12" y="280" font-size="10">0</text><line x1="20" x2="580" y1="280" y2="280" style="stroke: #000000;"></line><rect style="stroke: #000000; fill: none;" x="40" y="266.1660079051383" width="30" height="13.83399209486166"></rect><rect style="stroke: #000000; fill: none;" x="94" y="244.0316205533597" width="30" height="35.96837944664032"></rect><rect style="stroke: #000000; fill: none;" x="148" y="158.26086956521738" width="30" height="121.73913043478261"></rect><rect style="stroke: #000000; fill: none;" x="202.00000000000003" y="130.59288537549406" width="30" height="149.40711462450594"></rect><rect style="stroke: #000000; fill: none;" x="256" y="196.99604743083003" width="30" height="83.00395256916997"></rect><rect style="stroke: #000000; fill: none;" x="310" y="172.09486166007906" width="30" height="107.90513833992095"></rect><rect style="stroke: #000000; fill: none;" x="364.00000000000006" y="53.12252964426878" width="30" height="226.87747035573122"></rect><rect style="stroke: #000000; fill: none;" x="418.00000000000006" y="25.454545454545467" width="30" height="254.54545454545453"></rect><rect style="stroke: #000000; fill: none;" x="472" y="268.9328063241107" width="30" height="11.067193675889328"></rect><rect style="stroke: #000000; fill: none;" x="526" y="113.99209486166006" width="30" height="166.00790513833994"></rect></g><g><text x="55" y="290" font-size="10" text-anchor="middle"></text><text x="109" y="290" font-size="10" text-anchor="middle"></text><text x="163" y="290" font-size="10" text-anchor="middle">B</text><text x="217.00000000000003" y="290" font-size="10" text-anchor="middle"></text><text x="271" y="290" font-size="10" text-anchor="middle"></text><text x="325" y="290" font-size="10" text-anchor="middle"></text><text x="379.00000000000006" y="290" font-size="10" text-anchor="middle"></text><text x="433.00000000000006" y="290" font-size="10" text-anchor="middle"></text><text x="487" y="290" font-size="10" text-anchor="middle">A</text><text x="541" y="290" font-size="10" text-anchor="middle"></text></g></svg>