<?xml version='1.0' encoding='utf-8'?><!DOCTYPE svg PUBLIC '-//W3C//DTD SVG 1.1//EN' 'http://www.w3.org/Graphics/SVG/1.1/DTD/svg11.dtd'><svg height="300" width="600"><g><line y1="20" y2="280" x1="20" x2="20" style="stroke: #000000;"></line><text x="0" y="25" font-size="10">100</text><text x="12" y="280" font-size="10">0</text><line x1="20" x2="580" y1="280" y2="280" style="stroke: #000000;"></line><rect style="stroke: #000000; fill: none;" x="40" y="263.57771260997066" width="30" height="16.42228739002932"></rect><rect style="stroke: #000000; fill: none;" x="94" y="222.52199413489737" width="30" height="57.478005865102624"></rect><rect style="stroke: #000000; fill: none;" x="148" y="159.56989247311827" width="30" height="120.43010752688171"></rect><rect style="stroke: #000000; fill: none;" x="202.00000000000003" y="58.299120234604146" width="30" height="221.70087976539585"></rect><rect style="stroke: #000000; fill: none;" x="256" y="266.3147605083089" width="30" height="13.685239491691101"></rect><rect style="stroke: #000000; fill: none;" x="310" y="91.1436950146628" width="30" height="188.8563049853372"></rect><rect style="stroke: #000000; fill: none;" x="364.00000000000006" y="269.0518084066471" width="30" height="10.948191593352881"></rect><rect style="stroke: #000000; fill: none;" x="418.00000000000006" y="25.454545454545496" width="30" height="254.5454545454545"></rect><rect style="stroke: #000000; fill: none;" x="472" y="244.41837732160315" width="30" height="35.58162267839686"></rect><rect style="stroke: #000000; fill: none;" x="526" y="102.09188660801567" width="30" height="177.90811339198433"></rect></g><g><text x="55" y="290" font-size="10" text-anchor="middle"></text><text x="109" y="290" font-size="10" text-anchor="middle"></text><text x="163" y="290" font-size="10" text-anchor="middle">B</text><text x="217.00000000000003" y="290" font-size="10" text-anchor="middle"></text><text x="271" y="290" font-size="10" text-anchor="middle"></text><text x="325" y="290" font-size="10" text-anchor="middle"></text><text x="379.00000000000006" y="290" font-size="10" text-anchor="middle">A</text><text x="433.00000000000006" y="290" font-size="10" text-anchor="middle"></text><text x="487" y="290" font-size="10" text-anchor="middle"></text><text x="541" y="290" font-size="10" text-anchor="middle"></text></g></svg>