<?xml version='1.0' encoding='utf-8'?><!DOCTYPE svg PUBLIC '-//W3C//DTD SVG 1.1//EN' 'http://www.w3.org/Graphics/SVG/1.1/DTD/svg11.dtd'><svg height="300" width="600"><g><line y1="20" y2="280" x1="20" x2="20" style="stroke: #000000;"></line><text x="0" y="25" font-size="10">100</text><text x="12" y="280" font-size="10">0</text><line x1="20" x2="580" y1="280" y2="280" style="stroke: #000000;"></line><rect style="stroke: #000000; fill: none;" x="40" y="195.15151515151516" width="30" height="84.84848484848484"></rect><rect style="stroke: #000000; fill: none;" x="94" y="110.30303030303031" width="30" height="169.6969696969697"></rect><rect style="stroke: #000000; fill: none;" x="148" y="104.4514106583072" width="30" height="175.5485893416928"></rect><rect style="stroke: #000000; fill: none;" x="202.00000000000003" y="241.96447230929988" width="30" height="38.03552769070011"></rect><rect style="stroke: #000000; fill: none;" x="256" y="209.7805642633229" width="30" height="70.21943573667711"></rect><rect style="stroke: #000000; fill: none;" x="310" y="198.0773249738767" width="30" height="81.9226750261233"></rect><rect style="stroke: #000000; fill: none;" x="364.00000000000006" y="25.454545454545467" width="30" height="254.54545454545453"></rect><rect style="stroke: #000000; fill: none;" x="418.00000000000006" y="86.89655172413791" width="30" height="193.1034482758621"></rect><rect style="stroke: #000000; fill: none;" x="472" y="206.85475444096136" width="30" height="73.14524555903866"></rect><rect style="stroke: #000000; fill: none;" x="526" y="37.15778474399164" width="30" height="242.84221525600836"></rect></g><g><text x="55" y="290" font-size="10" text-anchor="middle"></text><text x="109" y="290" font-size="10" text-anchor="middle"></text><text x="163" y="290" font-size="10" text-anchor="middle">A</text><text x="217.00000000000003" y="290" font-size="10" text-anchor="middle"></text><text x="271" y="290" font-size="10" text-anchor="middle"></text><text x="325" y="290" font-size="10" text-anchor="middle"></text><text x="379.00000000000006" y="290" font-size="10" text-anchor="middle"></text><text x="433.00000000000006" y="290" font-size="10" text-anchor="middle"></text><text x="487" y="290" font-size="10" text-anchor="middle">B</text><text x="541" y="290" font-size="10" text-anchor="middle"></text></g></svg>