<?xml version='1.0' encoding='utf-8'?><!DOCTYPE svg PUBLIC '-//W3C//DTD SVG 1.1//EN' 'http://www.w3.org/Graphics/SVG/1.1/DTD/svg11.dtd'><svg height="300" width="600"><g><line y1="20" y2="280" x1="20" x2="20" style="stroke: #000000;"></line><text x="0" y="25" font-size="10">100</text><text x="12" y="280" font-size="10">0</text><line x1="20" x2="580" y1="280" y2="280" style="stroke: #000000;"></line><rect style="stroke: #000000; fill: none;" x="40" y="257.8656126482214" width="30" height="22.134387351778656"></rect><rect style="stroke: #000000; fill: none;" x="94" y="25.454545454545467" width="30" height="254.54545454545453"></rect><rect style="stroke: #000000; fill: none;" x="148" y="224.66403162055337" width="30" height="55.33596837944664"></rect><rect style="stroke: #000000; fill: none;" x="202.00000000000003" y="188.69565217391306" width="30" height="91.30434782608695"></rect><rect style="stroke: #000000; fill: none;" x="256" y="252.3320158102767" width="30" height="27.66798418972332"></rect><rect style="stroke: #000000; fill: none;" x="310" y="183.16205533596838" width="30" height="96.83794466403162"></rect><rect style="stroke: #000000; fill: none;" x="364.00000000000006" y="33.75494071146244" width="30" height="246.24505928853756"></rect><rect style="stroke: #000000; fill: none;" x="418.00000000000006" y="235.7312252964427" width="30" height="44.26877470355731"></rect><rect style="stroke: #000000; fill: none;" x="472" y="196.99604743083003" width="30" height="83.00395256916997"></rect><rect style="stroke: #000000; fill: none;" x="526" y="232.96442687747034" width="30" height="47.03557312252965"></rect></g><g><text x="55" y="290" font-size="10" text-anchor="middle"></text><text x="109" y="290" font-size="10" text-anchor="middle"></text><text x="163" y="290" font-size="10" text-anchor="middle"></text><text x="217.00000000000003" y="290" font-size="10" text-anchor="middle"></text><text x="271" y="290" font-size="10" text-anchor="middle">A</text><text x="325" y="290" font-size="10" text-anchor="middle"></text><text x="379.00000000000006" y="290" font-size="10" text-anchor="middle"></text><text x="433.00000000000006" y="290" font-size="10" text-anchor="middle"></text><text x="487" y="290" font-size="10" text-anchor="middle">B</text><text x="541" y="290" font-size="10" text-anchor="middle"></text></g></svg>