<?xml version='1.0' encoding='utf-8'?><!DOCTYPE svg PUBLIC '-//W3C//DTD SVG 1.1//EN' 'http://www.w3.org/Graphics/SVG/1.1/DTD/svg11.dtd'><svg height="300" width="600"><g><line y1="20" y2="280" x1="20" x2="20" style="stroke: #000000;"></line><text x="0" y="25" font-size="10">100</text><text x="12" y="280" font-size="10">0</text><line x1="20" x2="580" y1="280" y2="280" style="stroke: #000000;"></line><rect style="stroke: #000000; fill: #ffffff;" x="40" y="168" width="30" height="112"></rect><rect style="stroke: #000000; fill: #ffffff;" x="94" y="161" width="30" height="119.00000000000001"></rect><rect style="stroke: #000000; fill: #ffffff;" x="148" y="91" width="30" height="189"></rect><rect style="stroke: #000000; fill: #ffffff;" x="202.00000000000003" y="98" width="30" height="182"></rect><rect style="stroke: #000000; fill: #ffffff;" x="256" y="224" width="30" height="56"></rect><rect style="stroke: #000000; fill: #ffffff;" x="310" y="154" width="30" height="126"></rect><rect style="stroke: #000000; fill: #ffffff;" x="364.00000000000006" y="252" width="30" height="28"></rect><rect style="stroke: #000000; fill: #ffffff;" x="418.00000000000006" y="245" width="30" height="35"></rect><rect style="stroke: #000000; fill: #ffffff;" x="472" y="196" width="30" height="84.00000000000001"></rect><rect style="stroke: #000000; fill: #ffffff;" x="526" y="70" width="30" height="210"></rect></g><g><text x="55" y="290" font-size="10" text-anchor="middle"></text><text x="109" y="290" font-size="10" text-anchor="middle"></text><text x="163" y="290" font-size="10" text-anchor="middle">A</text><text x="217.00000000000003" y="290" font-size="10" text-anchor="middle"></text><text x="271" y="290" font-size="10" text-anchor="middle"></text><text x="325" y="290" font-size="10" text-anchor="middle"></text><text x="379.00000000000006" y="290" font-size="10" text-anchor="middle">B</text><text x="433.00000000000006" y="290" font-size="10" text-anchor="middle"></text><text x="487" y="290" font-size="10" text-anchor="middle"></text><text x="541" y="290" font-size="10" text-anchor="middle"></text></g></svg>